<svg xmlns="http://www.w3.org/2000/svg" xmlns:xlink="http://www.w3.org/1999/xlink" width="741" height="369" viewBox="0 0 741 369">
  <defs>
    <clipPath id="clip-path">
      <rect id="Rectangle_170" data-name="Rectangle 170" width="741" height="309" rx="8" transform="translate(0.598 -0.095)" fill="rgba(255,234,167,0.2)"/>
    </clipPath>
    <linearGradient id="linear-gradient" x1="0.504" y1="1" x2="0.504" y2="-0.015" gradientUnits="objectBoundingBox">
      <stop offset="0" stop-color="gray" stop-opacity="0.251"/>
      <stop offset="0.54" stop-color="gray" stop-opacity="0.122"/>
      <stop offset="1" stop-color="gray" stop-opacity="0.102"/>
    </linearGradient>
    <linearGradient id="linear-gradient-2" x1="0.504" y1="1" x2="0.504" y2="-0.02" xlink:href="#linear-gradient"/>
    <linearGradient id="linear-gradient-3" x1="0.5" y1="1" x2="0.5" y2="0" xlink:href="#linear-gradient"/>
    <linearGradient id="linear-gradient-4" x1="0.5" y1="1" x2="0.5" y2="0.001" xlink:href="#linear-gradient"/>
  </defs>
  <g id="Group_964" data-name="Group 964" transform="translate(-1468 -19)">
    <rect id="Rectangle_1902" data-name="Rectangle 1902" width="741" height="369" transform="translate(1468 19)" fill="#f9e2dd"/>
    <g id="Group_600" data-name="Group 600" transform="translate(1467.402 50.095)" clip-path="url(#clip-path)">
      <g id="undraw_forever_5ag7_1_" data-name="undraw_forever_5ag7 (1)" transform="translate(175.871 0.453)">
        <path id="Path_980" data-name="Path 980" d="M35.286,96.662C34.9,83.457,37.031,67.92,47.2,61.683c5.043-3.1,11.063-3.141,16.507-5.168,12.214-4.537,19.822-17.994,27.186-30.034S107.941,1.958,120.756,1.243c17.655-.988,29.664,20.2,45.937,28.1,30.85,14.968,67.054-20.831,98.333-7.074,4.537,2,8.878,5.158,11.429,9.9,2.513,4.673,3.078,10.445,5.528,15.163,7.74,14.909,28.484,11.558,39.512,23.441,3.793,4.087,6.076,9.635,8.274,15.045l7.657,18.845c1.434,3.535,2.9,7.179,3.068,11.073.3,6.837-3.42,13.366-2.76,20.168,1.026,10.623,11.775,16.437,15.181,26.387,1.605,4.69,1.434,9.908,1.047,14.93a197.615,197.615,0,0,1-4.886,31.06c-2.485,10.323-6.208,21.009-13.844,27.186-5.381,4.352-12.057,5.933-18.542,7.238-37.066,7.521-74.753,10.044-112.356,12-32.8,1.71-66.373,2.9-97.8-8.069C92.432,241.735,78.3,233.764,70.16,219.7c-5.584-9.642-6.631-20.14-9.147-31-1.944-8.4-7.678-14.881-10.948-22.747A196.287,196.287,0,0,1,35.286,96.662Z" transform="translate(26.714 -1.209)" fill="#fd79a8" opacity="0.1"/>
        <path id="Path_981" data-name="Path 981" d="M56.251,94.469a115.862,115.862,0,0,1,40.266,3.881c5.046,1.4,10.121,3.176,15.355,3.026,6.425-.185,12.361-3.221,18.283-5.72,9.339-3.944,19.445-6.711,29.542-5.793,18.58,1.686,34.926,15.523,53.573,14.884,15.98-.544,30.323-11.75,46.307-11.419,10.846.223,20.9,5.765,31.656,7.186,13.806,1.822,27.57-3.232,41.463-3.839a65.752,65.752,0,0,1,34.588,8.117c7.643,4.233,15.188,12.49,12.18,20.691-.918,2.5-2.774,4.729-2.89,7.392-.258,5.933,7.388,8.445,11.2,12.989,4.694,5.584,2.792,14.786-2.726,19.564s-13.5,5.769-20.7,4.572-13.921-4.293-20.74-6.9a158.692,158.692,0,0,0-40.336-9.6c-9.548-.981-19.257-1.089-28.687.7-7.06,1.333-13.89,3.71-20.939,5.015-35.268,6.516-70.125-14.075-105.976-13.935-10.075.042-20.056,1.724-30.062,2.918-31.014,3.7-62.374,2.666-93.594,1.633-3.158-.1-6.575-.3-9-2.328-4.537-3.79-2.792-11.136,0-16.343,4.579-8.491,10.819-15.809,15.488-24.181C35.57,97.951,46.563,95.24,56.251,94.469Z" transform="translate(0.019 101.419)" fill="#fd79a8"/>
        <g id="Group_863" data-name="Group 863" transform="translate(116.145 64.295)" opacity="0.05">
          <path id="Path_982" data-name="Path 982" d="M60.331,31.674a1.218,1.218,0,0,0,.171-.7A4.432,4.432,0,0,0,60.331,31.674Z" transform="translate(-60.331 -30.976)" fill="url(#linear-gradient)"/>
        </g>
        <g id="Group_864" data-name="Group 864" transform="translate(116.145 63.94)" opacity="0.05">
          <path id="Path_983" data-name="Path 983" d="M60.331,31.51a1.218,1.218,0,0,0,.171-.7A4.432,4.432,0,0,0,60.331,31.51Z" transform="translate(-60.331 -30.812)" fill="url(#linear-gradient-2)"/>
        </g>
        <path id="Path_984" data-name="Path 984" d="M279.129,199.569c-.806.4-7.437-.562-13.042-1.48,3.019-.7,5.235-1.605,6.282-2.792,6.02-6.924-20.506-2.914-28.892-1.5l-6.749-1.351-7.559-1.745c-5.214-7.329-13.118-22.188-16.943-29.556,1.27-.286,2.045-.422,2.045-.422-.059-.23-.122-.454-.185-.681l.185-.035c-7.13-27.088-19.247-23.169-19.247-23.169a18.412,18.412,0,0,0-6.1,1.651,57.7,57.7,0,0,0-3.141-8.4l-.293-.635c.848.157,1.344.255,1.344.255s-.07-.188-.206-.534l.126.024.3.056h.063l.122.024.311.059s-9.772-26.558-30.589-42.534a37.638,37.638,0,0,0-19.041-7.7c-.37-.038-.726-.066-1.078-.091l-.318-.031c-.269,0-.534-.028-.8-.035h-.558a23.934,23.934,0,0,0-12.145,3.141c-.726.349-1.466.743-2.234,1.159a16.159,16.159,0,0,1-1.769-.314q-.478-.115-.935-.262a19.965,19.965,0,0,0,10.2-25.79,13.61,13.61,0,0,1,6.177-5.668,1.993,1.993,0,0,0,.848-.562,1.86,1.86,0,0,0,.241-1.064V49.2a6.875,6.875,0,0,0-5.9-6.906,10.909,10.909,0,0,1-2.858-.827,6.964,6.964,0,0,1-4.135-5.584,4.535,4.535,0,0,1,.056-.621l-.052.08a3.1,3.1,0,0,1,.052-.436,2.053,2.053,0,0,1-2.816.492,3.238,3.238,0,0,1-1.117-2.551,5.9,5.9,0,0,1,.084-.8,11.306,11.306,0,0,0,.269-2.234,2.019,2.019,0,0,0-.757-1.937,8.115,8.115,0,0,1-5.72,2.645,30.807,30.807,0,0,1-6.446-.492c-5.284-.7-11.223-.614-15.209,2.928-2.593,2.3-3.9,5.688-5.113,8.938-1.717,4.589-3.427,9.569-3.375,14.354a15.9,15.9,0,0,0,1.246,6.519c1.668,3.839,5.053,6.875,6.086,10.937a11.521,11.521,0,0,0,.813,2.771,4.984,4.984,0,0,0,5.078,2.139,20.064,20.064,0,0,0,2.38,2.024c-.017.227-.038.45-.059.674-.133,1.4-.321,2.792-.579,4.118-.157-.227-.377-.1-1.019-.1h-.279l-.258.031h0l-.283.049h-.059l-.328.07h0l-.349.087h-.049l-.4.108h0l-.436.126H94c-1.242.373-2.757.918-4.352,1.532a19.543,19.543,0,0,0-5.235-10.494,10.665,10.665,0,0,0,1.344-2.481,2.792,2.792,0,0,0-.953-3.3A20.113,20.113,0,0,0,82,68.878a41.281,41.281,0,0,0-14.6-6.892,15.013,15.013,0,0,0-5.214-.544,15.331,15.331,0,0,0-4.746,1.515,45.406,45.406,0,0,0-6.854,3.961,19.286,19.286,0,0,1-4.565,2.726c-2.52.872-5.434.468-7.758,1.78-3.253,1.839-3.982,6.247-3.49,9.953s1.794,7.4,1.211,11.091c-.876,5.524-5.664,9.447-10.068,12.912-1.4,1.085-2.872,2.363-3.085,4.111a7.747,7.747,0,0,0,.6,3.221,27.367,27.367,0,0,1-.332,17.669,24.645,24.645,0,0,1-11.517,13.261c-2.024,1.047-4.477,2.136-4.952,4.369A4.119,4.119,0,0,0,8.163,151.9a10.637,10.637,0,0,0,4,2.506A35.981,35.981,0,0,0,19,156.19a10.412,10.412,0,0,0,6.125-.45c2.181-1.047,3.511-3.27,4.662-5.4,2.945-5.437,6.331-9.053,9.129-13.432.37,1.6.667,2.712.7,2.774-2.321,2.094-3.406,5.528-2.136,11.059,4.99,21.742,11.4,27.088,11.4,27.088a7.559,7.559,0,0,1,1.323-3.26l.283.349h0c3.043,3.7,6.54,7.545,9.447,9.684a49.652,49.652,0,0,1,8.944,8.5,1.787,1.787,0,0,1-.611,2.729c-4.568,2.227-14.567,7.943-2.649,10.5s21.637-4.188,25.054-7.025a1.79,1.79,0,0,0,.262-2.5L80.085,183.236l-1.337-1.651c.719.51,1.448,1.047,2.2,1.595l-1.937-3.1,6.132.639c.178.373.349.74.537,1.089a16.6,16.6,0,0,0,3.867,5.559,13.17,13.17,0,0,0,1.745,7.214c4.886,8.871,31.834,8.815,39.379,8.623a17.581,17.581,0,0,0,2.122.206,17.762,17.762,0,0,0,3.518-.23l.244-.042a9.072,9.072,0,0,0,4.059-1.665l10.724-2.146.241.059c6.051,1.246,17.568,3.242,24.181,1.972,6.338-1.218,10.005.9,11.694,2.356a19.653,19.653,0,0,1-.646,1.923h.094c-.422.932-1.982,5.441,4.362,10.515,4.146,3.315,32.382,4.188,42.06,2.139,6.98-1.473-2.935-5.7-4.279-5.7-3.04,0-12.476-6.4-13.457-7.067-.161-.209-.53-.7-1.047-1.4,6.561.876,18.112,2.261,20.384,1.5,3.207-1.068,17.449.7,17.449.7s19.247,4.279,28.516,1.427S280.553,198.857,279.129,199.569Z" transform="translate(-6.558 29.73)" fill="url(#linear-gradient-3)"/>
        <g id="Group_865" data-name="Group 865" transform="translate(137.992 143.045)" opacity="0.05">
          <path id="Path_985" data-name="Path 985" d="M79.2,78.473c-1.124.482-3.8,3-7.262,6.613-1.1-7.252-1.815-13.792-1.354-16.514A2.443,2.443,0,0,1,71,67.438c2.094-.143,6.31,5.06,9.684,9.772C79.745,77.96,79.2,78.473,79.2,78.473Z" transform="translate(-70.445 -67.435)" fill="url(#linear-gradient-4)"/>
        </g>
        <g id="Group_866" data-name="Group 866" transform="translate(128.593 108.672)" opacity="0.05">
          <path id="Path_986" data-name="Path 986" d="M59.537,50.313Z" transform="translate(-59.537 -50.313)" fill="#fff"/>
        </g>
        <path id="Path_987" data-name="Path 987" d="M112.11,87.248s18.147,35.945,22.684,37.341a9.474,9.474,0,0,0,7.678-.7s37.69-6.98,30.711,1.047-68.052,3.141-68.052,3.141L89.775,93.53Z" transform="translate(89.969 98.592)" fill="#ef91a3"/>
        <path id="Path_988" data-name="Path 988" d="M84.288,98.17S113.6,78.627,121.629,78.627c0,0,11.865-3.839,18.845,22.684,0,0-24.08,4.188-23.731,15.7l-4.537-9.772L92.664,128.881,68.933,112.828Z" transform="translate(65.792 88.368)" opacity="0.1"/>
        <path id="Path_989" data-name="Path 989" d="M84.288,97.847S113.6,78.3,121.629,78.3c0,0,11.865-3.839,18.845,22.684,0,0-24.08,4.188-23.731,15.7l-4.537-9.772L92.664,128.558,68.933,112.5Z" transform="translate(65.792 87.993)" fill="#5d526e"/>
        <path id="Path_990" data-name="Path 990" d="M106.308,95.858c-1.745,8.376-10.819,9.772-10.819,9.772L82.577,97.6s-1.822-12.023-3.361-19.351c-.59-2.816-1.138-4.942-1.525-5.427-1.4-1.745,20.59-1.4,20.59-1.4a86.484,86.484,0,0,1,4.209,8.051C104.885,84.712,107.24,91.378,106.308,95.858Z" transform="translate(75.879 80.21)" fill="#ef91a3"/>
        <path id="Path_991" data-name="Path 991" d="M85.221,63.54l-7.329,34.9L60.095,93.9s-16.4-12.912-11.517-20.939c1.6-2.624,2.411-6.442,2.792-10.389a88.27,88.27,0,0,0-.349-16.832s19.543-5.235,15.7,9.074c-1.577,5.877,1.26,8.4,5.151,9.328C77.464,65.473,85.221,63.54,85.221,63.54Z" transform="translate(41.128 49.362)" fill="#ef91a3"/>
        <path id="Path_992" data-name="Path 992" d="M70.076,64.137a19.425,19.425,0,0,1-8.99,2.2c-4.31,0-8.459-2.7-11.691-5.06a79.723,79.723,0,0,0-.174-15.53s19.543-5.235,15.7,9.074C63.348,60.685,66.185,63.191,70.076,64.137Z" transform="translate(42.928 49.362)" opacity="0.1"/>
        <circle id="Ellipse_277" data-name="Ellipse 277" cx="19.543" cy="19.543" r="19.543" transform="translate(84.471 75.903)" fill="#ef91a3"/>
        <path id="Path_993" data-name="Path 993" d="M70.682,78.38l5.3,7.4L79,74.845a54.4,54.4,0,0,0,1.829-13.4,9.2,9.2,0,0,1,1.787-5.329c5.437-2.966,9.475-4.537,16.329-3.839a36.853,36.853,0,0,1,18.632,7.549c20.37,15.652,29.95,41.658,29.95,41.658s-27.919-5.584-26.523.7c0,0-12.214-19.543-15.006-16.4s5.933,44.67,5.933,44.67l-57.234,4.188L39.688,94.852l.7-29.664s14.832-6.805,17.973-6.805c1.1,0,.932-.384,1.4,1.4C61.545,66.626,66.557,72.621,70.682,78.38Z" transform="translate(31.87 57.835)" opacity="0.1"/>
        <path id="Path_994" data-name="Path 994" d="M102.491,79.477c-4.854-.876-18.6-3.113-23.274-1.228-.59-2.816-1.138-4.942-1.525-5.427-1.4-1.745,20.59-1.4,20.59-1.4a86.483,86.483,0,0,1,4.209,8.051Z" transform="translate(75.879 80.206)" opacity="0.1"/>
        <path id="Path_995" data-name="Path 995" d="M71,78.218l5.3,7.4,3.015-10.934a54.4,54.4,0,0,0,1.829-13.4,9.2,9.2,0,0,1,1.787-5.329c5.437-2.966,9.475-4.537,16.329-3.839A36.853,36.853,0,0,1,117.9,59.663c20.37,15.652,29.95,41.658,29.95,41.658s-27.919-5.584-26.523.7c0,0-12.214-19.543-15.006-16.4s5.933,44.67,5.933,44.67l-57.234,4.188L40.011,94.69l.7-29.664s14.832-6.805,17.973-6.805c1.1,0,.932-.384,1.4,1.4C61.868,66.464,66.88,72.46,71,78.218Z" transform="translate(32.245 57.647)" fill="#dfecfb"/>
        <path id="Path_996" data-name="Path 996" d="M55.513,78.262c-1.961.349-4.244-.311-5.2-2.059a11.4,11.4,0,0,1-.8-2.712c-1.012-3.975-4.327-6.945-5.961-10.707C40.8,56.443,43.2,49.174,45.647,42.7c1.19-3.179,2.467-6.495,5-8.749,3.9-3.469,9.716-3.549,14.891-2.869a30.158,30.158,0,0,0,6.313.482,7.845,7.845,0,0,0,5.584-2.589c1.124.729.7,2.415.478,3.734a3.726,3.726,0,0,0,1.012,3.629c1.05.8,3.012.14,2.924-1.176-.946,2.792,1.141,5.884,3.839,7.105a10.679,10.679,0,0,0,2.792.81,6.732,6.732,0,0,1,5.772,6.76v.031a1.822,1.822,0,0,1-.234,1.047,1.951,1.951,0,0,1-.831.551,13.31,13.31,0,0,0-6.282,6.006c-.722,1.413-1.267,3.05-2.6,3.912-1.64,1.047-3.783.53-5.73.7a8.131,8.131,0,0,0-7.018,5.765c-.454,1.616-.391,3.378-1.4,4.813a2.747,2.747,0,0,1-1.909,1.2c-1.515.164-2.209-1.194-3.294-1.895-2.551-1.647-4.188.527-4.987,2.579C59.087,76.768,58.452,77.721,55.513,78.262Z" transform="translate(34.933 30.993)" opacity="0.1"/>
        <path id="Path_997" data-name="Path 997" d="M55.513,78.1c-1.961.349-4.244-.311-5.2-2.059a11.4,11.4,0,0,1-.8-2.712c-1.012-3.975-4.327-6.945-5.961-10.707-2.75-6.341-.349-13.61,2.094-20.088,1.19-3.179,2.467-6.495,5-8.749,3.9-3.469,9.716-3.549,14.891-2.869a30.158,30.158,0,0,0,6.313.482A7.845,7.845,0,0,0,77.44,28.81c1.124.729.7,2.415.478,3.734a3.726,3.726,0,0,0,1.012,3.629c1.05.8,3.012.14,2.924-1.176C80.909,37.789,83,40.881,85.693,42.1a10.679,10.679,0,0,0,2.792.81,6.732,6.732,0,0,1,5.772,6.76V49.7a1.822,1.822,0,0,1-.234,1.047,1.951,1.951,0,0,1-.831.551,13.311,13.311,0,0,0-6.282,6.006c-.722,1.413-1.267,3.05-2.6,3.912-1.64,1.047-3.783.53-5.73.7a8.131,8.131,0,0,0-7.018,5.765c-.454,1.616-.391,3.378-1.4,4.813a2.747,2.747,0,0,1-1.909,1.2c-1.515.164-2.209-1.194-3.294-1.895-2.551-1.647-4.188.527-4.987,2.579C59.087,76.607,58.452,77.559,55.513,78.1Z" transform="translate(34.933 30.806)" fill="#572142"/>
        <g id="Group_867" data-name="Group 867" transform="translate(87.04 109.601)" opacity="0.05">
          <path id="Path_998" data-name="Path 998" d="M83.338,59.319c18.845,14.469,28.449,37.8,29.786,41.219,2.6.426,4.352.775,4.352.775s-9.58-26-29.95-41.648a36.853,36.853,0,0,0-18.632-7.552c-.949-.1-1.843-.147-2.7-.161a37.045,37.045,0,0,1,17.142,7.367Z" transform="translate(-24.422 -51.951)"/>
          <path id="Path_999" data-name="Path 999" d="M47.417,55.912c1.79,6.854,6.8,12.85,10.927,18.608l5.3,7.4,1.1-3.964-2.206-3.078C58.407,69.118,53.4,63.122,51.609,56.268c-.464-1.78-.3-1.4-1.4-1.4a11.59,11.59,0,0,0-2.9.649Z" transform="translate(-46.321 -48.604)"/>
          <path id="Path_1000" data-name="Path 1000" d="M76.8,74.055c1.134,1.7,1.857,2.862,1.857,2.862-.611-2.74,4.362-3.221,10.159-2.9C84.266,73.539,79.544,73.333,76.8,74.055Z" transform="translate(-12.124 -26.859)"/>
          <path id="Path_1001" data-name="Path 1001" d="M97.971,69.03c-1.651-1.553-3.043-2.3-3.78-1.473-2.792,3.141,5.933,44.67,5.933,44.67l-53.269,3.9.241.639,57.234-4.188S96.718,76.415,97.971,69.03Z" transform="translate(-46.856 -34.247)"/>
        </g>
        <path id="Path_1002" data-name="Path 1002" d="M69.62,123.7c-3.34,2.764-12.822,9.388-24.53,6.879s-1.881-8.1,2.593-10.278a1.745,1.745,0,0,0,.6-2.673,48.618,48.618,0,0,0-8.773-8.33,59.749,59.749,0,0,1-9.248-9.482h0c-1.567-1.895-3-3.745-4.188-5.3a1.745,1.745,0,0,1,1.86-2.746L50.81,97.985a1.745,1.745,0,0,1,.907.6l7.521,9.4,10.627,13.282a1.745,1.745,0,0,1-.244,2.439Z" transform="translate(15.65 103.762)" fill="#ef91a3"/>
        <path id="Path_1003" data-name="Path 1003" d="M59.248,107.975c-19.093-13.925-26.3-11.436-28.99-8.163-1.567-1.895-3-3.745-4.188-5.3a1.745,1.745,0,0,1,1.86-2.746L50.81,97.98a1.745,1.745,0,0,1,.907.6Z" transform="translate(15.65 103.756)" opacity="0.1"/>
        <path id="Path_1004" data-name="Path 1004" d="M48.023,80.622S17.313,70.5,22.2,91.79s11.168,26.523,11.168,26.523,1.745-16.751,31.409,5.235L54.3,106.8,66.519,91.441Z" transform="translate(10.972 88.117)" fill="#5d526e"/>
        <path id="Path_1005" data-name="Path 1005" d="M40.412,72.694S37.62,87.351,47.74,105.149c8.027,14.109-1.5,20.541-5.79,22.6a3.026,3.026,0,0,1-3.438-.576c-2.827-2.792-8.247-9.89-5.081-20.981l2.094-5.584L24.009,92.237s-3.116-11.555-1.745-14.155,12.563-9.576,12.563-9.576Z" transform="translate(11.255 76.852)" opacity="0.1"/>
        <path id="Path_1006" data-name="Path 1006" d="M40.412,72.371S37.62,87.028,47.74,104.826c8.027,14.109-1.5,20.541-5.79,22.6a3.026,3.026,0,0,1-3.438-.576c-2.827-2.792-8.247-9.89-5.081-20.981l2.094-5.584L24.009,91.914s-3.116-11.555-1.745-14.155,12.563-9.576,12.563-9.576Z" transform="translate(11.255 76.477)" fill="#ef91a3"/>
        <path id="Path_1007" data-name="Path 1007" d="M65.979,57.2S40.852,71.5,30.383,80.927s-8.376,12.563-8.376,12.563,10.121-18.845,18.845-2.443c0,0,24.429-17.8,31.06-10.121S65.979,57.2,65.979,57.2Z" transform="translate(11.163 63.733)" fill="#dfecfb"/>
        <path id="Path_1008" data-name="Path 1008" d="M31.354,96.364l20.939-4.188-2.443,10.819-15.174-1.581Z" transform="translate(36.365 106.918)" fill="#5d526e"/>
        <path id="Path_1009" data-name="Path 1009" d="M79.975,88.648l-.7,7.678L54.15,92.138l-7.678-4.886L34.956,83.065a20.042,20.042,0,0,0,.611-11.67,17.715,17.715,0,0,0-2.007-4.732c-4.886-8.027,20.59-4.537,20.59-4.537a33.694,33.694,0,0,0-.384,5.469c.052,5.832,1.7,14.05,10.853,12.679L72.3,84.81Z" transform="translate(24.04 68.575)" fill="#ffc1cd"/>
        <path id="Path_1010" data-name="Path 1010" d="M43.243,69.717s12.912-5.584,19.194,5.933,9.074,10.819,9.074,10.819L58.947,78.442Z" transform="translate(35.994 76.687)" fill="#ffc1cd"/>
        <path id="Path_1011" data-name="Path 1011" d="M51.426,101.207s-9.772,8.027-4.188,18.147S87.72,127.73,87.72,127.73,65.567,119.407,71.06,91.46C71.06,91.457,55.265,95.973,51.426,101.207Z" transform="translate(38.629 103.478)" fill="#5f5470"/>
        <path id="Path_1012" data-name="Path 1012" d="M71.615,103.794l-3.49,13.261,12.214-2.443S75.1,103.445,75.8,100.3,71.615,103.794,71.615,103.794Z" transform="translate(64.855 112.757)" fill="#5f5470"/>
        <path id="Path_1013" data-name="Path 1013" d="M78.582,94.034s31.758,3.141,40.482,8.027l6.631,2.094s2.443-.7,7.678,3.839l27.221,6.282,20.939,4.188s19.194,3.49,20.59,2.792,10.819,5.235,1.745,8.027-27.919-1.4-27.919-1.4-13.959-1.745-17.1-.7-24.429-2.094-24.429-2.094l-20.939,1.4s-3.49-5.235-12.563-3.49c-6.474,1.246-17.749-.7-23.675-1.93a5.891,5.891,0,0,1-4.607-4.7L70.542,105.2Z" transform="translate(67.659 106.463)" fill="#ffc1cd"/>
        <path id="Path_1014" data-name="Path 1014" d="M78.582,94.034s31.758,3.141,40.482,8.027l6.631,2.094s2.443-.7,7.678,3.839l27.221,6.282,20.939,4.188s19.194,3.49,20.59,2.792,10.819,5.235,1.745,8.027-27.919-1.4-27.919-1.4-13.959-1.745-17.1-.7-24.429-2.094-24.429-2.094l-20.939,1.4s-3.49-5.235-12.563-3.49c-6.474,1.246-17.749-.7-23.675-1.93a5.891,5.891,0,0,1-4.607-4.7L70.542,105.2Z" transform="translate(67.659 106.463)" opacity="0.05"/>
        <path id="Path_1015" data-name="Path 1015" d="M53.766,67.587a19.229,19.229,0,0,1-18.2,3.8,17.715,17.715,0,0,0-2.007-4.725c-4.886-8.027,20.59-4.537,20.59-4.537A33.689,33.689,0,0,0,53.766,67.587Z" transform="translate(24.04 68.575)" opacity="0.1"/>
        <circle id="Ellipse_278" data-name="Ellipse 278" cx="19.194" cy="19.194" r="19.194" transform="translate(46.083 101.728)" fill="#ffc1cd"/>
        <path id="Path_1016" data-name="Path 1016" d="M33.064,72.064S47.721,80.09,48.419,85.325s-2.094,11.517-2.094,11.517,6.631,39.784,15.006,42.576l22.335-21.637,18.845-8.376s-11.168-.7-12.214-11.168,1.4-13.959-11.168-18.845S59.761,68.748,59.761,68.748l-3.246.82L73.2,78.345s9.423,5.584-15.006,1.4L35.158,71.366Z" transform="translate(24.186 77.133)" opacity="0.1"/>
        <path id="Path_1017" data-name="Path 1017" d="M32.9,71.741S47.56,79.767,48.258,85s-2.094,11.517-2.094,11.517S52.794,136.3,61.17,139.095l22.335-21.637,18.845-8.376s-11.168-.7-12.214-11.168,1.4-13.959-11.168-18.845S59.6,68.425,59.6,68.425l-3.246.82,16.681,8.777s9.423,5.584-15.006,1.4L35,71.043Z" transform="translate(23.999 76.758)" fill="#ff808c"/>
        <path id="Path_1018" data-name="Path 1018" d="M41.43,71.669S27.122,66.434,30.612,83.185,52.249,128.9,52.249,128.9l42.576-14.657s13.261-10.121,9.772-11.168-21.986,5.584-21.986,5.584L57.483,112.5,51.551,95.749s5.584-3.839,3.839-8.725l-.052-.147a26.994,26.994,0,0,0-13.349-14.93Z" transform="translate(20.706 79.622)" opacity="0.1"/>
        <path id="Path_1019" data-name="Path 1019" d="M41.107,71.345S26.8,66.111,30.288,82.862s21.637,45.717,21.637,45.717L94.5,113.922s13.261-10.121,9.772-11.168-21.986,5.584-21.986,5.584L57.16,112.177,51.228,95.425s5.584-3.839,3.839-8.725l-.052-.147a26.994,26.994,0,0,0-13.349-14.93Z" transform="translate(20.331 79.247)" fill="#ffc1cd"/>
        <path id="Path_1020" data-name="Path 1020" d="M67.586,44.767a14.719,14.719,0,0,0-5.106-.534,14.982,14.982,0,0,0-4.645,1.483,44.456,44.456,0,0,0-6.711,3.877,19.154,19.154,0,0,1-4.467,2.67c-2.467.855-5.322.457-7.594,1.745-3.186,1.8-3.9,6.118-3.427,9.747S37.382,71,36.823,74.615c-.855,5.409-5.549,9.252-9.855,12.63-1.358,1.047-2.813,2.314-3.022,4.024a7.493,7.493,0,0,0,.59,3.141,26.8,26.8,0,0,1-.269,17.264,24.132,24.132,0,0,1-11.283,12.993C11,125.714,8.6,126.761,8.137,128.945c-.59,2.792,2.4,4.924,5.06,5.908a35.225,35.225,0,0,0,6.7,1.745,10.181,10.181,0,0,0,6-.44c2.136-1.026,3.437-3.2,4.565-5.284,4.394-8.11,9.772-12.085,12.63-20.859.614-1.892,1.591-4.142,3.57-4.334,1.239-.119,2.359.66,3.41,1.323,5.078,3.2,10.414-.387,15.139-4.083a25.81,25.81,0,0,1,3.246-2.6c2.586-1.42,6.355-1.012,7.9-3.525a6.98,6.98,0,0,0,.743-2.118c.635-2.729,1.27-5.584.537-8.3-.681-2.5-2.443-4.537-3.49-6.927s-1.1-5.615,1.03-7.088c.639-.443,1.4-.67,2.038-1.127,1.832-1.33,1.874-3.985,1.864-6.25a3.33,3.33,0,0,1,.279-1.637,3.927,3.927,0,0,1,1.291-1.187,12.712,12.712,0,0,0,4.561-5.636c.925-2.5-1.445-3.622-3.336-5.025A40.416,40.416,0,0,0,67.586,44.767Z" transform="translate(-4.815 48.631)" opacity="0.1"/>
        <path id="Path_1021" data-name="Path 1021" d="M67.425,44.605a14.72,14.72,0,0,0-5.106-.534,14.982,14.982,0,0,0-4.645,1.483,44.455,44.455,0,0,0-6.711,3.877A19.154,19.154,0,0,1,46.5,52.1c-2.467.855-5.322.457-7.594,1.745-3.186,1.8-3.9,6.118-3.427,9.747s1.745,7.245,1.187,10.86c-.855,5.409-5.549,9.252-9.855,12.63-1.358,1.047-2.813,2.314-3.022,4.024a7.493,7.493,0,0,0,.59,3.141,26.8,26.8,0,0,1-.269,17.264,24.132,24.132,0,0,1-11.283,12.993c-1.982,1.047-4.383,2.094-4.847,4.279-.59,2.792,2.4,4.924,5.06,5.908a35.222,35.222,0,0,0,6.7,1.745,10.182,10.182,0,0,0,6-.44c2.136-1.026,3.438-3.2,4.565-5.284,4.394-8.11,9.772-12.085,12.63-20.859.614-1.892,1.591-4.142,3.57-4.334,1.239-.119,2.359.66,3.41,1.323,5.078,3.2,10.414-.387,15.139-4.083a25.813,25.813,0,0,1,3.246-2.6c2.586-1.42,6.355-1.012,7.9-3.525a6.979,6.979,0,0,0,.743-2.118c.635-2.729,1.27-5.584.537-8.3-.681-2.5-2.443-4.537-3.49-6.927s-1.1-5.615,1.029-7.088c.639-.443,1.4-.67,2.038-1.127,1.832-1.33,1.874-3.985,1.864-6.25a3.329,3.329,0,0,1,.279-1.637,3.926,3.926,0,0,1,1.291-1.187,12.712,12.712,0,0,0,4.561-5.636c.925-2.5-1.445-3.622-3.336-5.025A40.416,40.416,0,0,0,67.425,44.605Z" transform="translate(-5.002 48.443)" fill="#b46d86"/>
        <path id="Path_1022" data-name="Path 1022" d="M174.965,167.977c-9.475,2-37.122,1.152-41.18-2.094-6.212-4.97-4.683-9.384-4.272-10.3h-.091s3.49-8.376,0-14.657a20.232,20.232,0,0,0-7.678-13.61c-7.329-5.933-15.355-22.684-15.355-22.684l-4.188,8.725s-6.282,19.156-12.825,27.661a13.558,13.558,0,0,0-2.6,5.755c-.433,2.307-1.926,5.214-6.564,6.02l-.241.042a17.3,17.3,0,0,1-17.1-7.262c-3.141-4.5-6.662-10.738-7.461-16.821a14.787,14.787,0,0,1,3.424-11.471l.038-.045c7.507-8.882,33.569-39.432,37.743-41.212,0,0,18.845-18.147,26.174,6.282s9.772,31.758,9.772,31.758,8.763,15.652,11.168,20.939c2.485,5.465,12.822,19.1,13.872,20.475.96.656,10.2,6.92,13.174,6.92C172.093,162.394,181.791,166.536,174.965,167.977Z" transform="translate(49.973 78.056)" fill="#ffc1cd"/>
        <g id="Group_868" data-name="Group 868" transform="translate(105.263 178.853)" opacity="0.05">
          <path id="Path_1023" data-name="Path 1023" d="M130.852,129.064a14.756,14.756,0,0,0-1.427-8.756,20.232,20.232,0,0,0-7.678-13.61c-7.329-5.933-15.355-22.684-15.355-22.684L102.2,92.738S95.922,111.894,89.378,120.4a13.559,13.559,0,0,0-2.6,5.755c-.433,2.307-1.926,5.214-6.564,6.02l-.241.042a17.3,17.3,0,0,1-17.1-7.262c-3.089-4.446-6.578-10.6-7.43-16.619a14.489,14.489,0,0,0-.031,3.985c.8,6.079,4.338,12.323,7.461,16.821a17.3,17.3,0,0,0,17.1,7.262l.241-.042c4.638-.806,6.132-3.713,6.564-6.02a13.558,13.558,0,0,1,2.6-5.755c6.529-8.5,12.825-27.654,12.825-27.654l4.188-8.725s8.027,16.751,15.355,22.684a20.232,20.232,0,0,1,7.678,13.61A12.47,12.47,0,0,1,130.852,129.064Z" transform="translate(-55.293 -84.014)"/>
        </g>
        <path id="Path_1024" data-name="Path 1024" d="M48.171,86.744s15.006-.349,13.959-5.235" transform="translate(41.71 91.935)" opacity="0.05"/>
        <path id="Path_1025" data-name="Path 1025" d="M51.889,111.6a115.863,115.863,0,0,1,40.266,3.881c5.046,1.4,10.121,3.176,15.355,3.026,6.425-.185,12.361-3.221,18.283-5.72,9.339-3.943,19.445-6.711,29.542-5.793,18.58,1.686,34.926,15.523,53.573,14.884,15.98-.544,30.323-11.75,46.307-11.419,10.846.223,20.9,5.765,31.656,7.186,13.806,1.822,27.57-3.232,41.463-3.839a65.752,65.752,0,0,1,34.588,8.117c7.643,4.233,15.188,12.49,12.18,20.691-.918,2.5-2.774,4.729-2.89,7.392-.258,5.933,7.388,8.445,11.2,12.989,4.694,5.584,2.792,14.786-2.726,19.564s-13.5,5.769-20.7,4.572-13.921-4.293-20.74-6.9a158.694,158.694,0,0,0-40.336-9.6c-9.548-.981-19.257-1.089-28.686.7-7.06,1.333-13.89,3.71-20.939,5.015-35.268,6.516-70.125-14.075-105.976-13.935-10.075.042-20.056,1.724-30.062,2.918-31.014,3.7-62.374,2.666-93.594,1.633-3.158-.1-6.575-.3-9-2.328-4.537-3.79-2.792-11.136,0-16.343,4.579-8.491,10.819-15.809,15.488-24.181C31.208,115.078,42.2,112.366,51.889,111.6Z" transform="translate(-5.041 121.285)" fill="#fd79a8"/>
        <circle id="Ellipse_279" data-name="Ellipse 279" cx="24.08" cy="24.08" r="24.08" transform="translate(254.252 33.501)" fill="#fd79a8" opacity="0.1"/>
        <path id="Path_1026" data-name="Path 1026" d="M143.192,79.3s-23.6,14.239,19.892,36.162c0,0,9.583-17.8-1.012-32.306A14.287,14.287,0,0,0,143.541,79.1Z" transform="translate(144.514 87.027)" fill="#fd79a8"/>
        <path id="Path_1027" data-name="Path 1027" d="M139.882,78.077s20.2,15.453,19.627,36.462" transform="translate(148.09 87.954)" fill="none" stroke="#535461" stroke-miterlimit="10" stroke-width="0.162"/>
        <path id="Path_1028" data-name="Path 1028" d="M149.931,137.96s-7.395-25.127,1.4-43.592a39.662,39.662,0,0,0,3.207-24.883,66.7,66.7,0,0,0-3.521-11.677" transform="translate(156.372 64.443)" fill="none" stroke="#535461" stroke-miterlimit="10" stroke-width="0.323"/>
        <path id="Path_1029" data-name="Path 1029" d="M157.4,55.6c0,3.078-5.584,12-5.584,12s-5.584-8.924-5.584-12a5.584,5.584,0,1,1,11.143,0Z" transform="translate(155.437 54.975)" fill="#fd79a8"/>
        <path id="Path_1030" data-name="Path 1030" d="M161.673,64.752c-1.672,2.582-11.2,7.046-11.2,7.046s.174-10.518,1.846-13.1a5.584,5.584,0,0,1,9.353,6.058Z" transform="translate(160.377 62.867)" fill="#fd79a8"/>
        <path id="Path_1031" data-name="Path 1031" d="M162.574,79.362c-2.746,1.4-13.223.429-13.223.429s5.455-8.993,8.2-10.379a5.584,5.584,0,0,1,5.018,9.95Z" transform="translate(159.074 77.387)" fill="#fd79a8"/>
        <path id="Path_1032" data-name="Path 1032" d="M160,89.246c-2.474,1.829-12.961,2.656-12.961,2.656s3.86-9.772,6.334-11.618A5.584,5.584,0,0,1,160,89.243Z" transform="translate(156.387 89.475)" fill="#fd79a8"/>
        <path id="Path_1033" data-name="Path 1033" d="M146.115,69.115c2.206,2.143,12.49,4.366,12.49,4.366s-2.52-10.215-4.725-12.358a5.584,5.584,0,1,0-7.765,7.992Z" transform="translate(153.038 66.146)" fill="#fd79a8"/>
        <path id="Path_1034" data-name="Path 1034" d="M144.185,81.522c2.747,1.4,13.223.429,13.223.429s-5.458-8.993-8.208-10.379a5.584,5.584,0,1,0-5.018,9.95Z" transform="translate(149.133 79.512)" fill="#fd79a8"/>
        <path id="Path_1035" data-name="Path 1035" d="M142.694,93.24c2.474,1.829,12.961,2.656,12.961,2.656s-3.86-9.772-6.334-11.618a5.584,5.584,0,1,0-6.631,8.958Z" transform="translate(148.39 93.623)" fill="#fd79a8"/>
        <path id="Path_1036" data-name="Path 1036" d="M157.4,55.6c0,3.078-5.584,12-5.584,12s-5.584-8.924-5.584-12a5.584,5.584,0,1,1,11.143,0Z" transform="translate(155.437 54.975)" opacity="0.25"/>
        <path id="Path_1037" data-name="Path 1037" d="M161.673,64.752c-1.672,2.582-11.2,7.046-11.2,7.046s.174-10.518,1.846-13.1a5.584,5.584,0,0,1,9.353,6.058Z" transform="translate(160.377 62.867)" opacity="0.25"/>
        <path id="Path_1038" data-name="Path 1038" d="M162.574,79.362c-2.746,1.4-13.223.429-13.223.429s5.455-8.993,8.2-10.379a5.584,5.584,0,0,1,5.018,9.95Z" transform="translate(159.074 77.387)" opacity="0.25"/>
        <path id="Path_1039" data-name="Path 1039" d="M160,89.246c-2.474,1.829-12.961,2.656-12.961,2.656s3.86-9.772,6.334-11.618A5.584,5.584,0,0,1,160,89.243Z" transform="translate(156.387 89.475)" opacity="0.25"/>
        <path id="Path_1040" data-name="Path 1040" d="M146.115,69.115c2.206,2.143,12.49,4.366,12.49,4.366s-2.52-10.215-4.725-12.358a5.584,5.584,0,1,0-7.765,7.992Z" transform="translate(153.038 66.146)" opacity="0.25"/>
        <path id="Path_1041" data-name="Path 1041" d="M144.185,81.522c2.747,1.4,13.223.429,13.223.429s-5.458-8.993-8.208-10.379a5.584,5.584,0,1,0-5.018,9.95Z" transform="translate(149.133 79.512)" opacity="0.25"/>
        <path id="Path_1042" data-name="Path 1042" d="M142.694,93.24c2.474,1.829,12.961,2.656,12.961,2.656s-3.86-9.772-6.334-11.618a5.584,5.584,0,1,0-6.631,8.958Z" transform="translate(148.39 93.623)" opacity="0.25"/>
        <path id="Path_1043" data-name="Path 1043" d="M159.793,141.9s-7.395-25.127,1.4-43.592A39.663,39.663,0,0,0,164.4,73.423a66.714,66.714,0,0,0-3.521-11.677" transform="translate(167.812 69.01)" fill="none" stroke="#535461" stroke-miterlimit="10" stroke-width="0.323"/>
        <path id="Path_1044" data-name="Path 1044" d="M167.255,59.14c0,3.078-5.584,12-5.584,12s-5.584-8.924-5.584-12a5.584,5.584,0,0,1,11.143,0Z" transform="translate(166.887 59.939)" fill="#fd79a8"/>
        <path id="Path_1045" data-name="Path 1045" d="M171.535,69.019c-1.672,2.583-11.2,7.046-11.2,7.046s.174-10.518,1.846-13.1a5.584,5.584,0,1,1,9.353,6.058Z" transform="translate(171.816 67.105)" fill="#fd79a8"/>
        <path id="Path_1046" data-name="Path 1046" d="M172.436,83.477c-2.747,1.4-13.223.429-13.223.429s5.458-8.993,8.208-10.379a5.584,5.584,0,1,1,5.015,9.95Z" transform="translate(170.514 81.773)" fill="#fd79a8"/>
        <path id="Path_1047" data-name="Path 1047" d="M169.856,93.188c-2.474,1.829-12.961,2.656-12.961,2.656s3.86-9.772,6.334-11.618a5.584,5.584,0,0,1,6.631,8.958Z" transform="translate(167.825 94.048)" fill="#fd79a8"/>
        <path id="Path_1048" data-name="Path 1048" d="M155.976,73.053c2.206,2.143,12.49,4.366,12.49,4.366s-2.52-10.215-4.725-12.358a5.584,5.584,0,1,0-7.765,7.992Z" transform="translate(164.476 70.714)" fill="#fd79a8"/>
        <path id="Path_1049" data-name="Path 1049" d="M153.7,85.284c2.747,1.4,13.223.429,13.223.429s-5.458-8.993-8.208-10.379a5.584,5.584,0,0,0-5.018,9.95Z" transform="translate(160.923 84.255)" fill="#fd79a8"/>
        <path id="Path_1050" data-name="Path 1050" d="M152.557,97.177c2.474,1.829,12.961,2.656,12.961,2.656s-3.86-9.772-6.334-11.618a5.584,5.584,0,1,0-6.631,8.958Z" transform="translate(159.83 98.19)" fill="#fd79a8"/>
        <path id="Path_1051" data-name="Path 1051" d="M101.309,23.7H99.246a1.445,1.445,0,0,0,0-2.89H82.537a1.445,1.445,0,1,0,0,2.89H84.6a1.445,1.445,0,0,0,0,2.89H81.71a1.445,1.445,0,0,0,0,2.89H98.419a1.445,1.445,0,1,0,0-2.89h2.89a1.445,1.445,0,0,0,0-2.89Z" transform="translate(78.938 21.523)" fill="#fd79a8" opacity="0.1"/>
        <path id="Path_1052" data-name="Path 1052" d="M160.605,37.269h-2.062a1.445,1.445,0,1,0,0-2.89H141.833a1.445,1.445,0,0,0,0,2.89H143.9a1.445,1.445,0,1,0,0,2.89h-2.89a1.445,1.445,0,1,0,0,2.89h16.709a1.445,1.445,0,1,0,0-2.89h2.89a1.445,1.445,0,1,0,0-2.89Z" transform="translate(147.719 37.266)" fill="#fd79a8" opacity="0.1"/>
        <path id="Path_1053" data-name="Path 1053" d="M110.2,41.308h-2.063a1.445,1.445,0,1,0,0-2.89H91.423a1.445,1.445,0,1,0,0,2.89h2.062a1.445,1.445,0,1,0,0,2.89H90.6a1.445,1.445,0,0,0,0,2.89h16.709a1.445,1.445,0,1,0,0-2.89h2.89a1.445,1.445,0,1,0,0-2.89Z" transform="translate(89.245 41.951)" fill="#fd79a8" opacity="0.1"/>
      </g>
    </g>
  </g>
</svg>
