<svg xmlns="http://www.w3.org/2000/svg" xmlns:xlink="http://www.w3.org/1999/xlink" width="741" height="368.491" viewBox="0 0 741 368.491">
  <defs>
    <linearGradient id="linear-gradient" x1="0.5" y1="1" x2="0.5" gradientUnits="objectBoundingBox">
      <stop offset="0" stop-color="gray" stop-opacity="0.251"/>
      <stop offset="0.54" stop-color="gray" stop-opacity="0.122"/>
      <stop offset="1" stop-color="gray" stop-opacity="0.102"/>
    </linearGradient>
    <linearGradient id="linear-gradient-2" x1="0.5" y1="1" x2="0.5" y2="0" xlink:href="#linear-gradient"/>
  </defs>
  <g id="Group_965" data-name="Group 965" transform="translate(-1468 -503)">
    <rect id="Rectangle_1903" data-name="Rectangle 1903" width="741" height="368" transform="translate(1468 503)" fill="#ffefbe"/>
    <g id="undraw_doctor_kw5l_1_" data-name="undraw_doctor_kw5l (1)" transform="translate(1641.507 568.216)">
      <path id="Path_1365" data-name="Path 1365" d="M236.128,57.043c-25.187-.938-49.195-9.648-72.085-19.176S118.466,17.78,93.868,12.731c-15.815-3.251-33.9-3.708-46.641,5.374C34.965,26.843,31,41.928,28.873,55.924c-1.6,10.532-2.532,21.614,1.848,31.475,3.049,6.843,8.461,12.6,12.2,19.153,13.022,22.811,3.816,50.942-10.3,73.234-6.62,10.462-14.3,20.416-19.407,31.541s-7.473,23.869-3,35.214c4.431,11.237,14.986,19.692,26.424,25.632,23.23,12.055,50.6,15.5,77.294,17.479,59.084,4.328,118.487,2.453,177.727.577,21.924-.7,43.946-1.4,65.512-5.037,11.977-2.019,24.344-5.219,33.04-12.946,11.036-9.811,13.774-26.418,6.377-38.721-12.407-20.629-46.71-25.756-55.384-47.9-4.771-12.186.13-25.764,7.068-37.066,14.878-24.245,39.822-45.517,41.135-73.234.9-19.037-11.087-38.1-29.629-47.106-19.432-9.451-46.38-8.257-60.716,7.362C284.306,51.677,258.363,57.869,236.128,57.043Z" transform="translate(-7.857 -3.565)" fill="#fafafa" opacity="0.459"/>
      <path id="Path_1366" data-name="Path 1366" d="M68.887,150.9s-19.895-16.111-23.653-36.605A41.339,41.339,0,0,0,33.582,91.932a64.195,64.195,0,0,0-9.322-7.44" transform="translate(18.742 130.035)" fill="none" stroke="#535461" stroke-miterlimit="10" stroke-width="0.276"/>
      <path id="Path_1367" data-name="Path 1367" d="M29.259,81.377C31,83.9,31.791,94.609,31.791,94.609s-9.322-3.933-11.069-6.455a5.961,5.961,0,0,1,1.105-7.961A5.085,5.085,0,0,1,29.259,81.377Z" transform="translate(11.309 120.239)" fill="#fdcb6e"/>
      <path id="Path_1368" data-name="Path 1368" d="M36.274,86.319c.181,3.135-4.583,12.581-4.583,12.581s-5.835-8.734-6.019-11.869A5.566,5.566,0,0,1,30.639,81a5.452,5.452,0,0,1,5.633,5.32Z" transform="translate(21.013 123.697)" fill="#fdcb6e"/>
      <path id="Path_1369" data-name="Path 1369" d="M42.2,96.8c-1.317,2.805-9.886,8.385-9.886,8.385s-.915-10.694.4-13.5a5.148,5.148,0,0,1,7.13-2.523A5.884,5.884,0,0,1,42.2,96.8Z" transform="translate(31.294 137.369)" fill="#fdcb6e"/>
      <path id="Path_1370" data-name="Path 1370" d="M45.5,103.777c-.857,3-8.421,10.051-8.421,10.051s-2.594-10.373-1.736-13.38a5.258,5.258,0,0,1,6.632-3.776,5.77,5.77,0,0,1,3.525,7.1Z" transform="translate(36.421 151.605)" fill="#fdcb6e"/>
      <path id="Path_1371" data-name="Path 1371" d="M27.52,97.364c2.894.419,12.042-4.007,12.042-4.007s-7.719-6.851-10.628-7.269a5.389,5.389,0,0,0-5.97,4.88,5.631,5.631,0,0,0,4.556,6.4Z" transform="translate(16.561 132.828)" fill="#fdcb6e"/>
      <path id="Path_1372" data-name="Path 1372" d="M32.382,106.11c2.894-.531,10.371-7.68,10.371-7.68S33.471,94.37,30.581,94.9a5.663,5.663,0,0,0-4.328,6.574,5.357,5.357,0,0,0,6.137,4.636Z" transform="translate(21.844 148.768)" fill="#fdcb6e"/>
      <path id="Path_1373" data-name="Path 1373" d="M36.762,114.216c2.934,0,11.434-5.692,11.434-5.692s-8.5-5.684-11.438-5.684a5.7,5.7,0,0,0,0,11.376Z" transform="translate(30.396 163.21)" fill="#fdcb6e"/>
      <path id="Path_1374" data-name="Path 1374" d="M115.01,94.71s12.262-23.268,30.747-29.972A38.167,38.167,0,0,0,164.9,49.4a69.5,69.5,0,0,0,5.639-10.9" transform="translate(165.888 46.873)" fill="none" stroke="#535461" stroke-miterlimit="10" stroke-width="0.276"/>
      <path id="Path_1375" data-name="Path 1375" d="M147.983,43.271c-2.105,2.185-11.9,4.448-11.9,4.448s2.405-10.423,4.511-12.612a5.063,5.063,0,0,1,7.508.121,5.978,5.978,0,0,1-.114,8.043Z" transform="translate(200.049 37.838)" fill="#fdcb6e"/>
      <path id="Path_1376" data-name="Path 1376" d="M146.083,50.961c-2.894.612-12.252-3.193-12.252-3.193s7.307-7.362,10.183-7.963a5.1,5.1,0,0,1,5.118,1.772,6,6,0,0,1,1.048,5.651,5.43,5.43,0,0,1-4.1,3.733Z" transform="translate(196.406 48.992)" fill="#fdcb6e"/>
      <path id="Path_1377" data-name="Path 1377" d="M136.42,58.046c-2.771-1.027-9.068-9.381-9.068-9.381S137.118,46.27,139.9,47.3a5.8,5.8,0,0,1,3.279,7.236,5.231,5.231,0,0,1-6.756,3.513Z" transform="translate(185.899 62.319)" fill="#fdcb6e"/>
      <path id="Path_1378" data-name="Path 1378" d="M130.175,62.415c-2.894-.511-10.4-7.622-10.4-7.622s9.257-4.131,12.147-3.619a5.662,5.662,0,0,1,4.382,6.543,5.369,5.369,0,0,1-6.108,4.694Z" transform="translate(173.609 69.714)" fill="#fdcb6e"/>
      <path id="Path_1379" data-name="Path 1379" d="M130.715,43.4c0,3.142,5.317,12.26,5.317,12.26s5.314-9.106,5.314-12.244a5.789,5.789,0,0,0-2.613-5.05,5.008,5.008,0,0,0-5.39,0,5.789,5.789,0,0,0-2.613,5.05Z" transform="translate(191.352 45.211)" fill="#fdcb6e"/>
      <path id="Path_1380" data-name="Path 1380" d="M122.627,49.288c.875,3,8.486,9.993,8.486,9.993s2.532-10.392,1.649-13.391a5.237,5.237,0,0,0-6.595-3.535,5.763,5.763,0,0,0-3.534,6.934Z" transform="translate(177.942 53.373)" fill="#fdcb6e"/>
      <path id="Path_1381" data-name="Path 1381" d="M115.259,54.849c.391,3.1,6.786,11.38,6.786,11.38s4.127-9.784,3.737-12.9a5.66,5.66,0,0,0-3.22-4.621,5.025,5.025,0,0,0-5.335.768A5.9,5.9,0,0,0,115.259,54.849Z" transform="translate(166.185 64.539)" fill="#fdcb6e"/>
      <path id="Path_1382" data-name="Path 1382" d="M147.983,43.271c-2.105,2.185-11.9,4.448-11.9,4.448s2.405-10.423,4.511-12.612a5.063,5.063,0,0,1,7.508.121,5.978,5.978,0,0,1-.114,8.043Z" transform="translate(200.049 37.838)" opacity="0.25"/>
      <path id="Path_1383" data-name="Path 1383" d="M146.083,50.961c-2.894.612-12.252-3.193-12.252-3.193s7.307-7.362,10.183-7.963a5.1,5.1,0,0,1,5.118,1.772,6,6,0,0,1,1.048,5.651,5.43,5.43,0,0,1-4.1,3.733Z" transform="translate(196.406 48.992)" opacity="0.25"/>
      <path id="Path_1384" data-name="Path 1384" d="M136.42,58.046c-2.771-1.027-9.068-9.381-9.068-9.381S137.118,46.27,139.9,47.3a5.8,5.8,0,0,1,3.279,7.236,5.231,5.231,0,0,1-6.756,3.513Z" transform="translate(185.899 62.319)" opacity="0.25"/>
      <path id="Path_1385" data-name="Path 1385" d="M130.175,62.415c-2.894-.511-10.4-7.622-10.4-7.622s9.257-4.131,12.147-3.619a5.662,5.662,0,0,1,4.382,6.543,5.369,5.369,0,0,1-6.108,4.694Z" transform="translate(173.609 69.714)" opacity="0.25"/>
      <path id="Path_1386" data-name="Path 1386" d="M130.715,43.4c0,3.142,5.317,12.26,5.317,12.26s5.314-9.106,5.314-12.244a5.789,5.789,0,0,0-2.613-5.05,5.008,5.008,0,0,0-5.39,0,5.789,5.789,0,0,0-2.613,5.05Z" transform="translate(191.352 45.211)" opacity="0.25"/>
      <path id="Path_1387" data-name="Path 1387" d="M122.627,49.288c.875,3,8.486,9.993,8.486,9.993s2.532-10.392,1.649-13.391a5.237,5.237,0,0,0-6.595-3.535,5.763,5.763,0,0,0-3.534,6.934Z" transform="translate(177.942 53.373)" opacity="0.25"/>
      <path id="Path_1388" data-name="Path 1388" d="M115.259,54.849c.391,3.1,6.786,11.38,6.786,11.38s4.127-9.784,3.737-12.9a5.66,5.66,0,0,0-3.22-4.621,5.025,5.025,0,0,0-5.335.768A5.9,5.9,0,0,0,115.259,54.849Z" transform="translate(166.185 64.539)" opacity="0.25"/>
      <path id="Path_1389" data-name="Path 1389" d="M115.279,106.948s2.409-26.6,16.755-40.74a41.336,41.336,0,0,0,11.7-22.334,72.623,72.623,0,0,0,1.045-12.4" transform="translate(166.324 34.174)" fill="none" stroke="#535461" stroke-miterlimit="10" stroke-width="0.276"/>
      <path id="Path_1390" data-name="Path 1390" d="M136.279,33.308c-1.085,2.914-9.2,9.238-9.2,9.238s-1.744-10.574-.648-13.488a5.2,5.2,0,0,1,6.914-3.144,5.834,5.834,0,0,1,2.935,7.407Z" transform="translate(183.816 23.367)" fill="#fdcb6e"/>
      <path id="Path_1391" data-name="Path 1391" d="M138.425,42c-2.4,1.806-12.407,2.4-12.407,2.4s3.9-9.9,6.3-11.7a5.02,5.02,0,0,1,5.367-.63,5.688,5.688,0,0,1,3.108,4.73,5.834,5.834,0,0,1-2.365,5.2Z" transform="translate(183.736 34.33)" fill="#fdcb6e"/>
      <path id="Path_1392" data-name="Path 1392" d="M133.983,52.363c-2.923.264-11.843-4.65-11.843-4.65s8.03-6.432,10.953-6.7a5.434,5.434,0,0,1,5.737,5.192,5.586,5.586,0,0,1-4.847,6.145Z" transform="translate(177.449 51.391)" fill="#fdcb6e"/>
      <path id="Path_1393" data-name="Path 1393" d="M129.568,58.944c-2.84.775-12.4-2.43-12.4-2.43s6.9-7.792,9.738-8.583a5.29,5.29,0,0,1,6.473,4.078,5.734,5.734,0,0,1-3.807,6.934Z" transform="translate(169.381 63.599)" fill="#fdcb6e"/>
      <path id="Path_1394" data-name="Path 1394" d="M122.244,39.8c1.186,2.871,9.484,8.912,9.484,8.912s1.411-10.632.224-13.5A5.168,5.168,0,0,0,125,32.433a5.849,5.849,0,0,0-2.756,7.379Z" transform="translate(176.958 35.024)" fill="#fdcb6e"/>
      <path id="Path_1395" data-name="Path 1395" d="M117.339,48.717c1.935,2.36,11.535,5.452,11.535,5.452s-1.62-10.6-3.556-12.957a5.067,5.067,0,0,0-7.493-.522,5.974,5.974,0,0,0-.487,8.027Z" transform="translate(167.524 48.279)" fill="#fdcb6e"/>
      <path id="Path_1396" data-name="Path 1396" d="M112.686,56.531c1.534,2.674,10.508,7.459,10.508,7.459s.076-10.737-1.447-13.415a5.1,5.1,0,0,0-7.219-1.723,5.924,5.924,0,0,0-1.824,7.678Z" transform="translate(161.003 64.07)" fill="#fdcb6e"/>
      <path id="Path_1397" data-name="Path 1397" d="M108.242,25.845c.6-2.36,1.324-4.731,1.83-7.122C109.465,21.114,108.738,23.493,108.242,25.845Z" transform="translate(154.914 11.118)" fill="url(#linear-gradient)"/>
      <path id="Path_1398" data-name="Path 1398" d="M225.184,67.79c-.051-.093-.087-.186-.127-.271h0c0-.039-.036-.07-.051-.108a2.183,2.183,0,0,1-.242.1c-.159.066-.322.128-.488.178s-.235.077-.362.108a2,2,0,0,1-.322.089l.029.07c.134-.031.264-.058.4-.1l.036.48c.152,0,.293-.023.43-.023a1.659,1.659,0,0,1,.2,0h.723C225.329,68.146,225.249,67.964,225.184,67.79ZM298.615,193c-1.7-2.453-5.093-28.778-5.093-28.778s-6.674-18.719-4.854-26.19-4.97-26.585-4.97-26.585-4.485-2.089-4.728-5.188c0,0-18.314-6.2-19.171-10.849-.695-3.813-12.053-6.548-16.133-7.412-1.244-5.378-2.5-10.4-3.418-13.136-.25-.852-.485-1.589-.7-2.17-1.559-4.262-6.377-4.65-9.872-4.309a5.98,5.98,0,0,0-.828-2.027,1.122,1.122,0,0,0-.329-.539,1.94,1.94,0,0,0-.239-.186,1.214,1.214,0,0,0-.246-.333,1.746,1.746,0,0,0-.326-.248,2.1,2.1,0,0,0-.26-.128,3.3,3.3,0,0,0-.648-.19,5,5,0,0,0-.781-.108,4.789,4.789,0,0,0,1.668-1.306,3.813,3.813,0,0,0,.684-1.348,4.236,4.236,0,0,0,.152-1.271,3.3,3.3,0,0,1-.326.5c.152-1.717-.695-3.46-1.179-5.169a16.349,16.349,0,0,1-.318-6.839h0c.485-3.433,1.686-6.9,2.5-10.4a.272.272,0,0,0,0-.058,28.774,28.774,0,0,0,.789-5.3,24.822,24.822,0,0,0-2.112-10.516c-1.234-2.918-3.053-5.789-5.838-6.975-2.069-.9-4.388-.752-6.616-.9-5-.333-9.767-2.216-14.52-3.929s-9.644-3.27-14.646-2.972-10.15,2.883-12.432,7.626a49.363,49.363,0,0,1-2,4.518c-1.621,2.623-4.522,3.937-6.942,5.746a14.6,14.6,0,0,0-5.426,7.443,10.612,10.612,0,0,0-.2,5.1h0a9.623,9.623,0,0,0,.3,1.124,8.08,8.08,0,0,0,1.573,2.755,7.767,7.767,0,0,0,1.787,1.484h0a10.108,10.108,0,0,0,2.641,1.1c-.033.116-.065.24-.1.36-.058.2-.109.387-.163.6-.119.477-.232.961-.326,1.449a.485.485,0,0,0,0,.1,33.812,33.812,0,0,0-.666,6.707q0,1.6.152,3.193h0c1.447,15.724,13.565,28.127,28.537,28.933.514.027,1.031.043,1.555.043h.723c.235.333.467.674.687,1.007s.423.674.615,1.007l-.524-.581h0l-.525-.515a4.489,4.489,0,0,1-.474.585A8.354,8.354,0,0,0,194,87.6h0a12.551,12.551,0,0,0-6.8.484,29.242,29.242,0,0,0-10.107,6.18l-19.284,12.4-10.432,6.8-3.758,9.842S140.8,135,137.658,148.4c-.123.039-.242.078-.362.124a6.322,6.322,0,0,0-.767-.046,7.288,7.288,0,0,0-7.061,7.25c-6.251,8.137-6.605,16.274-5.137,20.009h0a5.464,5.464,0,0,0,.5,1,96.57,96.57,0,0,1,4.583,9.412c-.047.337-.076.62-.09.833q0,.1,0,.209s1.085,17.557-2.532,22.59c-.792,1.1-.673,2.538,0,4.134h0c2.424,5.742,12.006,13.411,12.006,13.411s11.492-.066,17.895-.814c-.018.69-.033,1.376-.047,2.046C156.5,235.324,156.5,241,156.5,241l-.239,7.1s-2.17,14.968-3.256,19.1c-.684,2.588.1,26.554.792,44.173H267.025c1.331-10.423-.546-42.092-.546-42.092a88.777,88.777,0,0,1-1.848-15.325.062.062,0,0,1,0-.05c0-.624,0-1.232.022-1.829l.821-.031,1.476-.054h.134s.036-.147.119-.387h0a7.627,7.627,0,0,1,.792-1.693,3.9,3.9,0,0,1,3.093-2.038,8.133,8.133,0,0,0,3.512-1.79.061.061,0,0,0,.029,0c3.845-2.786,8.927-7.928,10.161-8.773,1.7-1.162,9.821-8.912,9.821-8.912s1.212-1.643,2.5-3.623l.047-.07c1.606-2.48,3.313-5.444,2.894-6.378-.723-1.674.485-5.677.485-5.677C304.312,205.252,300.315,195.449,298.615,193ZM228.668,73.815a1.646,1.646,0,0,1,.065.356c-.09-.128-.181-.263-.271-.387l-.087-.124-.061-.093.137-.2v.027h0a1.374,1.374,0,0,1,.217.422Zm-1.215-3.433c-.394.085-.705.163-.908.221-.257-.488-.5-.976-.723-1.472A10.54,10.54,0,0,1,227.452,70.382Zm-.68.612a.087.087,0,0,1,0-.023l.029.023h0c.148.1.293.205.427.31h0c.119.093.228.182.336.275a3.742,3.742,0,0,1-.232.387c-.127-.213-.246-.418-.362-.632A1.414,1.414,0,0,1,226.772,70.994Zm-2.17-4.781a9.994,9.994,0,0,1,2.1,0h0a1.49,1.49,0,0,1,.271.035h0a2.845,2.845,0,0,1,.575.159,4.7,4.7,0,0,1,.763,2.174l-.2.031-.192.039c-.362.066-.723.132-1.006.194l-.362.081c-.481.112-.76.2-.77.2-.047-.1-.094-.2-.145-.3-.08-.167-.163-.337-.235-.5s-.166-.356-.242-.531c-.051-.093-.087-.186-.127-.271h0c0-.039-.036-.07-.051-.108a.962.962,0,0,1-.054-.128c-.221-.48-.423-.961-.619-1.434-.022-.046-.04-.1-.058-.143l.275-.019v.1ZM138.3,306.582a102.773,102.773,0,0,0-1.5-17.871c-.463-2.492-.94-4.983-1.425-7.432-.123-.612-.242-1.217-.362-1.821l-1.114.159h-.1c-3.039-15.348-6.214-28.871-6.214-28.871s-6.308-25.8-5.578-27.86a5.312,5.312,0,0,0-.293-2.046c-1.526-5.866-7.9-22.032-10.128-27.558h0a.226.226,0,0,0-.025-.07h0c-.362-.926-.622-1.55-.7-1.732l.524-8.246.029-.5.069-1.054-.029-.027.029-.488a51.869,51.869,0,0,0-14.831-8.327c-.362-.14-.745-.275-1.125-.407.467-3.336,1.085-7.1,1.892-10.772.076-.368.159-.725.246-1.085h0c.076-.36.163-.709.25-1.062.137-.573.286-1.139.438-1.7.5-.171,1-.36,1.487-.562l.188-.078c12.441-5.186,19.393-19.418,16.278-33.323h0a29.361,29.361,0,0,0-4.659-10.52h0c-.166-.24-.344-.48-.521-.717s-.391-.5-.59-.74c1.045-2.546,2.279-4.968,2.38-7.443a8.182,8.182,0,0,0,0-.942h0v-.039a8.184,8.184,0,0,0-2.326-4.9,15.136,15.136,0,0,0-8.613-4.348c-3.187-.6-6.435-.62-9.64-1.027-5.314-.682-10.49-2.437-15.8-2.976A35.356,35.356,0,0,0,57.412,93.7c-3.954,1.937-7.958,5.324-8.2,9.97-.2,3.84,2.3,7.521,1.671,11.314-.626,3.728-4.171,6.661-3.86,10.431a7.735,7.735,0,0,0,1.707,3.964h0c.3.387.626.775.959,1.162a16.663,16.663,0,0,1,3.426,4.7c.029.078.058.155.083.232.611,1.817.336,4.115-1.176,5.157a.058.058,0,0,1,.018.027h0c.022.031.043.054.062.085a.029.029,0,0,0,0-.019,3.93,3.93,0,0,0,2.065,1.379l.307.1c-.25.291-.485.593-.723.911l-.156.221a16.307,16.307,0,0,0-1.085,1.8c-.184.349-.362.7-.51,1.046a13.792,13.792,0,0,0-1.067,3.359c-.387,2.565.159,5.239-.427,7.75-.723,3.1-3.013,5.479-4.3,8.358-2.445,5.425-1.06,11.791-.568,17.781.669,8.137-.416,16.309-1.5,24.392q-.861,6.448-1.722,12.907l-4.341,32.424c-.528,3.96-1.154,8.137-3.617,11.194h.025a.034.034,0,0,1-.025.031,7.159,7.159,0,0,0,2.33.643h0c3.216.345,6.623-1.321,9.517-3.142A45.093,45.093,0,0,0,52.793,257q-.445,1.744-.955,3.793a.227.227,0,0,1,0,.039h0c-4.084,16.662-10.653,47.207-10.653,47.207s-.6,1.329-1.371,3.309H141.821c-1.194-1.55-2.3-3.034-3.172-4.231ZM62.769,152.52c.025-.047.043-.089.069-.132v.841h0a3.062,3.062,0,0,1-.058.477v.035l.362.143.42.186h0q3.719,1.573,7.531,2.848c.26.089.525.174.789.256l.054.48c.065.492.127.992.184,1.492v.039c.163,1.383.322,2.763.463,4.111,0,0-6.641-2.712-6.558,1.407a2.15,2.15,0,0,0,0,.221,1.964,1.964,0,0,0,0,.294,21.781,21.781,0,0,0,1.186,6.087.281.281,0,0,1-.058.109,2.256,2.256,0,0,0-.159,1.2,12.592,12.592,0,0,0,.152,2.069c-.2.128-.387.256-.579.387h0c-.145.1-.282.205-.423.314a60.078,60.078,0,0,0-3.469-9.578c-.995-2.193-2.112-4.479-2.1-6.885a4.166,4.166,0,0,1,.018-.473,8.651,8.651,0,0,1,.369-2.05c.083-.252.174-.5.275-.744q.355-.87.792-1.7h0c.188-.364.387-.725.579-1.089.061-.108.119-.221.177-.329ZM225.184,67.79c-.051-.093-.087-.186-.127-.271h0c0-.039-.036-.07-.051-.108a2.183,2.183,0,0,1-.242.1c-.159.066-.322.128-.488.178s-.235.077-.362.108l-.322.089.029.07c.134-.031.264-.058.4-.1l.036.48c.152,0,.293-.023.43-.023h.919C225.329,68.146,225.249,67.964,225.184,67.79Z" transform="translate(35.28 -8.096)" fill="url(#linear-gradient-2)"/>
      <path id="Path_1399" data-name="Path 1399" d="M87.158,50.949l-2.17,1.027s-14.147,58.874-14.147,63.632,30,31.235,30,31.235L105.52,113S98.8,35.391,87.158,50.949Z" transform="translate(94.269 65.658)" fill="#e8f5ff"/>
      <path id="Path_1400" data-name="Path 1400" d="M117.318,72.637l-12.534-7.006a27.9,27.9,0,0,0-3.675-8.97c-1.834-2.836-4.272-5.622-7.311-7.075-7.679-3.689,32.483-23.051,32.483-23.051q.949,3.489,2.232,6.858c2.069,5.471,5.5,12.547,9.926,14.562C145.959,51.384,117.318,72.637,117.318,72.637Z" transform="translate(129.911 25.242)" fill="#ffc1c7"/>
      <path id="Path_1401" data-name="Path 1401" d="M128.513,33.393c-3.519,13.258-14.551,22.625-27.4,23.268-1.834-2.836-4.272-5.622-7.311-7.075-7.679-3.689,32.483-23.051,32.483-23.051q.949,3.489,2.232,6.858Z" transform="translate(129.911 25.242)" opacity="0.1"/>
      <path id="Path_1402" data-name="Path 1402" d="M143.888,46.132c0,17.713-13.4,32.066-29.929,32.064S84.035,63.841,84.037,46.135s13.4-32.054,29.929-32.052a28.808,28.808,0,0,1,21.2,9.343,33.1,33.1,0,0,1,8.725,22.705Z" transform="translate(115.665 2.728)" fill="#ffc1c7"/>
      <path id="Path_1403" data-name="Path 1403" d="M128.568,37.145l-8.161,20.4-7.2,13.539H90.167l-6.721-18.51,2.724-19.2h17.6l11.362-.686,3.838-1.372,2.474,1.5Z" transform="translate(135.304 56.619)" fill="#575a89"/>
      <path id="Path_1404" data-name="Path 1404" d="M119.659,31.814s5.089,1.162.532,5.165S99.909,53.71,99.909,53.71s5.524,5.27,4.38,11.442l18.3-10.927,3.256-17.483S126.21,31.488,119.659,31.814Z" transform="translate(141.402 34.761)" opacity="0.1"/>
      <path id="Path_1405" data-name="Path 1405" d="M110.733,39.6,99.092,41.66s2.4,9.513,1.2,12.213a1.894,1.894,0,0,0-.09.26L95.454,67.884l3.559,10.8,12.32-18-4.2-6.812s4.438-6.3,7.079-8.486S110.733,39.6,110.733,39.6Z" transform="translate(134.178 48.869)" opacity="0.1"/>
      <path id="Path_1406" data-name="Path 1406" d="M110.733,39.413l-11.64,2.054s2.4,9.513,1.2,12.213a1.893,1.893,0,0,0-.09.26L95.454,67.691l3.559,10.8,12.32-18.01-4.2-6.812s4.438-6.3,7.079-8.486S110.733,39.413,110.733,39.413Z" transform="translate(134.178 48.528)" fill="#dce6f2"/>
      <path id="Path_1407" data-name="Path 1407" d="M120.148,31.448s5.089,1.162.528,5.165S99.909,54.371,99.909,54.371s6,4.243,4.862,10.412l18.3-10.923,3.256-17.483S126.688,31.123,120.148,31.448Z" transform="translate(141.402 34.1)" fill="#575a89"/>
      <path id="Path_1408" data-name="Path 1408" d="M104.6,37.7s1.111,2.224,6.012,6.235c0,0-8.161,4.65-5.039,11.187L93.086,51.629,91.165,45.2Z" transform="translate(127.224 45.421)" opacity="0.1"/>
      <path id="Path_1409" data-name="Path 1409" d="M104.41,37.513s1.111,2.224,6.012,6.235c0,0-8.161,4.627-5.039,11.183L92.9,51.443l-1.921-6.424Z" transform="translate(126.928 45.092)" fill="#575a89"/>
      <path id="Path_1410" data-name="Path 1410" d="M136.425,44.271l-8.161,20.4L121.08,78.207H98.024L91.3,59.7l2.72-19.2h4.894c-.08,4.479,1.447,9.741,1.349,11.7-.166,3.216,4.478,20.567,4.478,20.567s9.72-16.84,13.557-18.339c2.413-.942,7.524-8.776,10.993-14.48Z" transform="translate(127.448 49.493)" opacity="0.1"/>
      <path id="Path_1411" data-name="Path 1411" d="M192.983,156.538l-.828,1.116s6,32.265,4.341,39.593a22.2,22.2,0,0,0-.481,4.022v.058c-.293,7.455,1.809,17.13,1.809,17.13s1.678,28.519.723,40.248H86.187c-.658-17.344-1.367-39.814-.723-42.305,1.085-4.111,3.256-19.025,3.256-19.025l.239-7.068s0-6.831.2-14.441c.083-3.421.206-7.013.383-10.2a57.516,57.516,0,0,1,.984-9.04,21.276,21.276,0,0,0,.463-3.828,2.114,2.114,0,0,1,.022-.368c0-.387.036-.806.051-1.236v-.387c.069-2.5.043-5.456-.033-8.525v-.508c-.061-2.3-.152-4.65-.253-6.882-.315-6.975-.723-12.872-.723-12.872l-13.8-48.977,3.719-9.811,10.32-6.773,19.081-12.341c9.307-8.2,15.435-7.211,17.772-6.312a5.951,5.951,0,0,1,.666.291c.072.039.13.07.184.1a1.508,1.508,0,0,1,.213.132h0a4.487,4.487,0,0,0-1.621,1.43,6.54,6.54,0,0,0-1,2.325,11.516,11.516,0,0,0-.257,1.585c-.047.562-.065,1.143-.065,1.728a32.049,32.049,0,0,0,.307,3.832c0,.023,0,.054,0,.085.119.907.268,1.794.412,2.627a.186.186,0,0,0,0,.043c.166.973.333,1.872.445,2.646.022.14.04.267.058.387a9.472,9.472,0,0,1,.112,1.55,20.1,20.1,0,0,0,.47,3.72c.094.511.2,1.058.322,1.627.163.775.34,1.62.532,2.48.1.473.217.961.333,1.445.043.194.09.387.134.585l.072.306c.77,3.282,1.606,6.548,2.12,8.525.3,1.162.5,1.879.5,1.879a145.253,145.253,0,0,1,9.8-14.806c.065-.077.123-.151.185-.221.43-.531.854-1.015,1.259-1.441a7.489,7.489,0,0,1,2.322-1.868,2.458,2.458,0,0,0,.394-.2c1.78-1.081,4.652-5.006,7.339-9.117.264-.387.521-.81.781-1.209.6-.922,1.176-1.848,1.722-2.736.42-.678.821-1.337,1.2-1.965,1.809-3.015,3.082-5.262,3.082-5.262l2.51-.12.438-.023h.293l11.4-.566s.492.089,1.3.263a.219.219,0,0,1,.134.031c4.044.86,15.279,3.584,15.967,7.362.839,4.627,18.962,10.8,18.962,10.8.239,3.1,4.677,5.142,4.677,5.142s6.721,19.025,4.923,26.48c-1.776,7.362,4.623,25.574,4.793,26.085h0l-1.226,1.658Z" transform="translate(103.035 44.563)" fill="#e8f5ff"/>
      <path id="Path_1412" data-name="Path 1412" d="M116.863,31.85s11.094-3.371,13.615,3.569,8.161,34.966,8.161,34.966-14.643,2.956-18.481,0a10.515,10.515,0,0,0-7.8-2.185l-8.28,6.041-2.445-.775S114.878,52.371,117.757,45.2,121.609,34.83,116.863,31.85Z" transform="translate(144.194 33.373)" opacity="0.1"/>
      <path id="Path_1413" data-name="Path 1413" d="M116.671,31.3s11.1-3.371,13.633,3.569,8.16,34.966,8.16,34.966-14.639,2.956-18.481,0a10.5,10.5,0,0,0-7.8-2.185L103.9,73.688l-2.445-.775S114.7,51.819,117.579,44.651,121.417,34.286,116.671,31.3Z" transform="translate(143.906 32.375)" fill="#e8f5ff"/>
      <path id="Path_1414" data-name="Path 1414" d="M78.931,70.587s8.28,2.185,9.843,7.2-6.12,5.142-6.12,5.142S77.972,74.059,78.931,70.587Z" transform="translate(107.177 104.893)" opacity="0.1"/>
      <path id="Path_1415" data-name="Path 1415" d="M100.7,83.77s-20.278,44.479-15.6,48.722S100.7,83.77,100.7,83.77Z" transform="translate(116.252 128.73)" opacity="0.1"/>
      <path id="Path_1416" data-name="Path 1416" d="M101.282,72.1s16.2,43.2,12.961,49.876,6.96,0,6.96,0Z" transform="translate(143.628 107.625)" opacity="0.1"/>
      <path id="Path_1417" data-name="Path 1417" d="M135.667,87.3s-54.722,2.829-38.759,21.083,48.721.775,48.721.775Z" transform="translate(131.804 135.104)" fill="#ffc1c7"/>
      <path id="Path_1418" data-name="Path 1418" d="M143.268,46.129A33.889,33.889,0,0,1,141,58.381c-.5.062-1.006.1-1.49.124-.723-1.7-.336-3.666-.322-5.537s-.629-4.072-2.311-4.576c-3.353-1.011-5.668,5.7-8.974,4.491-2.532-.922-1.87-5.037-3.328-7.412-1.154-1.879-3.465-2.41-5.263-3.588-3.823-2.515-3.708-6.537-5.484-10.342-1.859-3.987-5.788-2.809-9.2-.457-2.59,1.79-4.825,4.189-7.6,5.615a17.735,17.735,0,0,1-7.752,1.755,15.952,15.952,0,0,1-4.862-.55c3.862-15.554,17.893-25.629,32.792-23.546s26.046,15.677,26.053,31.773Z" transform="translate(116.285 2.731)" opacity="0.1"/>
      <path id="Path_1419" data-name="Path 1419" d="M108.467,39.03c-2.594,1.79-4.825,4.185-7.6,5.618A17.786,17.786,0,0,1,93.119,46.4c-3.256.077-6.761-.535-8.985-3.053A9.8,9.8,0,0,1,82.466,34.4a14.443,14.443,0,0,1,5.372-7.412c2.434-1.833,5.259-3.1,6.873-5.723a47.83,47.83,0,0,0,1.975-4.5c2.268-4.723,7.368-7.281,12.3-7.6s9.817,1.255,14.512,2.96,9.427,3.58,14.382,3.933c2.206.147,4.5,0,6.547.9,2.753,1.2,4.558,4.061,5.788,6.975A24.73,24.73,0,0,1,152.3,34.388c-.3,7.66-5.028,15.178-2.952,22.516.55,1.957,1.581,3.964,1.031,5.921-.8,2.856-4.243,3.507-7.025,3.642-.724-1.7-.336-3.669-.322-5.537s-.629-4.072-2.308-4.576c-3.357-1-5.672,5.7-8.971,4.491-2.514-.926-1.863-5.037-3.324-7.412-1.154-1.883-3.469-2.41-5.263-3.588-3.823-2.515-3.708-6.537-5.484-10.342C115.814,35.5,111.882,36.674,108.467,39.03Z" transform="translate(112.457 -6.243)" fill="#99607e"/>
      <path id="Path_1420" data-name="Path 1420" d="M75.5,75.928l-2.76,1.031s1.085,17.483-2.532,22.5S82.09,116.935,82.09,116.935s21.241-.128,21.841-1.937S102.846,82.6,102.846,82.6,91.444,77.846,92.4,70.263c0,0-3.48,17.867-8.638,17.1S72.75,81.972,75.5,75.928Z" transform="translate(92.36 104.307)" fill="#e8f5ff"/>
      <ellipse id="Ellipse_360" data-name="Ellipse 360" cx="7.282" cy="7.134" rx="7.282" ry="7.134" transform="translate(169.787 182.807)" opacity="0.1"/>
      <path id="Path_1421" data-name="Path 1421" d="M94.256,97.122s-1.447-47.3-14.042-36.764S67.5,83.5,69.894,87.226s10.089,22.365,10.089,22.365h0a8.287,8.287,0,0,0,7.987.458A9.319,9.319,0,0,0,93,103.391Z" transform="translate(90.774 83.628)" fill="#ffc1c7"/>
      <path id="Path_1422" data-name="Path 1422" d="M168.96,30.589a1.149,1.149,0,0,0-.326-.535c-.622-.608-1.961-.821-3.979-.635l.083,1.023c2.691-.248,3.223.325,3.292.422v.1l.083.128a4.565,4.565,0,0,1,.723,3.41c-.59,3.158-4.21,5.673-4.247,5.7l-.087.054-.054.089c-1.563,2.484-10.4,9.493-12.711,11.307l-.2-.248c-1.035.961-10.128,9.489-10.62,12.756-.318,2.05-2.474,2.844-3.256,3.065a21.293,21.293,0,0,1-4.894-5.51c-1.306-2.406,3.95-7.1,4.413-8.935l-.723-.794c-.076.294-6.826,7.052-4.948,10.5a22.389,22.389,0,0,0,5.216,5.925c-.307,2.991-2.221,20.556-5.162,24.717-3.653,5.173-6.724,31.243-6.384,40.344.3,8.087-1.671,23.361-8.255,29.921a10.124,10.124,0,0,1-8.707,3.1h-.159a24.47,24.47,0,0,1-17.667-6.2c-6.565-5.917-10.284-15.573-11.058-28.708h-.159l-.065-3.824a7.388,7.388,0,0,0,5.841-8.243,7.106,7.106,0,0,0-7.472-6.561,7.3,7.3,0,0,0-6.4,7.752,7.2,7.2,0,0,0,6.993,7.142h.08l.065,3.8-.318.023c.8,13.562,4.7,23.594,11.575,29.789a25.626,25.626,0,0,0,18.669,6.545,12.556,12.556,0,0,0,1.447.085,11.461,11.461,0,0,0,8.32-3.584c6.934-6.916,9.043-22.753,8.714-31.115-.362-9.644,2.861-34.776,6.1-39.352,3.169-4.491,5.089-21.99,5.426-25.38,1.147-.345,3.74-1.434,4.182-4.262.318-2.046,6.392-8.35,10.128-11.841l-.112-.139A142.845,142.845,0,0,0,163.7,42.7c.962-.988,1.917-1.976,2.916-2.918a10.07,10.07,0,0,0,3.129-5.088A5.594,5.594,0,0,0,168.96,30.589Z" transform="translate(94.641 30.34)" opacity="0.1"/>
      <path id="Path_1423" data-name="Path 1423" d="M99.71,53.929a23,23,0,0,1-5.56-6.2c-1.874-3.452,4.876-10.206,4.948-10.5l.723.794c-.459,1.829-5.715,6.529-4.409,8.931a21.831,21.831,0,0,0,5.147,5.715Z" transform="translate(131.531 44.578)" fill="#353146"/>
      <path id="Path_1424" data-name="Path 1424" d="M102.012,52.732l-.564-.833c.116-.089,11.478-8.893,13.268-11.741l.058-.085.083-.058c.036-.027,3.657-2.538,4.247-5.7a4.536,4.536,0,0,0-.723-3.406l-.083-.132v-.093c-.072-.1-.6-.67-3.3-.422l-.083-1.027c2.022-.186,3.357.027,3.979.635a1.173,1.173,0,0,1,.329.539,5.6,5.6,0,0,1,.817,4.111,10.012,10.012,0,0,1-3.129,5.088c-.995.942-1.953,1.937-2.912,2.918A154.064,154.064,0,0,1,102.012,52.732Z" transform="translate(143.897 30.008)" fill="#e8f5ff"/>
      <path id="Path_1638" data-name="Path 1638" d="M.008,0H.966L.959,6.242H0Z" transform="translate(172.314 156.771) rotate(-1.05)" fill="#e8f5ff"/>
      <ellipse id="Ellipse_361" data-name="Ellipse 361" cx="6.999" cy="7.498" rx="6.999" ry="7.498" transform="translate(165.244 142.703)" fill="#fdcb6e"/>
      <ellipse id="Ellipse_362" data-name="Ellipse 362" cx="5.813" cy="6.227" rx="5.813" ry="6.227" transform="translate(166.43 143.974)" fill="#e8f5ff"/>
      <path id="Path_1425" data-name="Path 1425" d="M105.191,153.728a12.545,12.545,0,0,1-1.447-.081A25.664,25.664,0,0,1,85.075,147.1C78.2,140.9,74.3,130.882,73.5,117.309l1.447-.1c.774,13.136,4.493,22.8,11.062,28.708a24.566,24.566,0,0,0,17.663,6.2h.159a10.145,10.145,0,0,0,8.71-3.1c6.58-6.56,8.551-21.835,8.251-29.921-.362-9.11,2.709-35.179,6.366-40.348,3.2-4.53,5.187-24.946,5.209-25.151l.054-.581.535-.1c.033,0,3.158-.635,3.549-3.139.506-3.263,9.586-11.791,10.617-12.756l.944,1.162c-3.751,3.487-9.824,9.8-10.128,11.845-.441,2.836-3.035,3.921-4.178,4.262-.362,3.394-2.268,20.889-5.426,25.38-3.234,4.576-6.457,29.708-6.1,39.352.311,8.362-1.776,24.2-8.71,31.115A11.464,11.464,0,0,1,105.191,153.728Z" transform="translate(98.581 44.206)" fill="#353146"/>
      <g id="Group_886" data-name="Group 886" transform="translate(194.824 27.606)" opacity="0.1">
        <path id="Path_1426" data-name="Path 1426" d="M108.043,26.8c.593-2.348,1.309-4.712,1.809-7.091C109.255,22.1,108.535,24.451,108.043,26.8Z" transform="translate(-40.233 -14.706)"/>
        <path id="Path_1427" data-name="Path 1427" d="M143.935,48.472c-.723-1.7-.336-3.669-.322-5.537s-.629-4.053-2.308-4.576c-3.357-1-5.672,5.7-8.971,4.491-2.532-.926-1.863-5.037-3.324-7.412-1.154-1.883-3.465-2.41-5.26-3.588-3.827-2.515-3.711-6.537-5.484-10.342-1.863-3.991-5.788-2.813-9.2-.457-2.594,1.79-4.825,4.189-7.6,5.618a17.786,17.786,0,0,1-7.752,1.751c-3.237.081-6.761-.535-8.985-3.053a9.445,9.445,0,0,1-1.979-7.44c-.062.182-.116.364-.17.546a9.822,9.822,0,0,0,1.668,8.951c2.225,2.519,5.748,3.131,8.985,3.053a17.8,17.8,0,0,0,7.755-1.751c2.778-1.434,5.01-3.828,7.6-5.618,3.415-2.356,7.343-3.534,9.2.457,1.772,3.805,1.66,7.827,5.484,10.342,1.809,1.162,4.106,1.7,5.263,3.588,1.447,2.383.807,6.486,3.324,7.412,3.3,1.209,5.61-5.494,8.967-4.491,1.678.5,2.326,2.712,2.308,4.576s-.394,3.836.322,5.537c2.782-.136,6.222-.775,7.028-3.642a4.454,4.454,0,0,0,.152-1.267C149.462,47.794,146.438,48.352,143.935,48.472Z" transform="translate(-82.176 -17.927)"/>
      </g>
      <path id="Path_1428" data-name="Path 1428" d="M167.561,90.91l4.2,4.758s3.36,26.221,5.039,28.673,5.643,12.21,1.921,19.537c0,0-1.2,3.987-.481,5.657s-5.4,10.028-5.4,10.028-8.041,7.711-9.723,8.869-10.559,10.412-13.557,10.539-3.979,4.115-3.979,4.115l-16.922.643s-9.347-.523-11.38.891c0,0,1.085-15.3-9.358-25.326l13.319-5.142s5.042-2.325,6.6-4.754a8.231,8.231,0,0,1,3.979-3.212s3.719-2.829,3.838-4.371,4.547-3.433,4.547-3.433L137.7,115.465l1.32-38.051s4.2-31.882,13.08-30.08S167.561,90.91,167.561,90.91Z" transform="translate(154.397 62.716)" opacity="0.1"/>
      <path id="Path_1429" data-name="Path 1429" d="M168.113,90.91l4.2,4.758s3.36,26.221,5.039,28.673,5.643,12.21,1.921,19.537c0,0-1.2,3.987-.478,5.657s-5.4,10.028-5.4,10.028-8.041,7.711-9.723,8.869-10.559,10.412-13.557,10.539-3.979,4.115-3.979,4.115l-16.922.643s-9.354-.523-11.38.891c0,0,1.085-15.3-9.358-25.326l13.319-5.142s5.042-2.325,6.6-4.754a8.232,8.232,0,0,1,3.979-3.212s3.719-2.829,3.838-4.371,4.547-3.433,4.547-3.433l-2.507-22.919,1.32-38.051s4.2-31.882,13.08-30.08S168.113,90.91,168.113,90.91Z" transform="translate(155.292 62.716)" fill="#e8f5ff"/>
      <path id="Path_1430" data-name="Path 1430" d="M125.27,77.358s12.36-3.487,15.6.775S125.27,77.358,125.27,77.358Z" transform="translate(182.523 114.706)" opacity="0.1"/>
      <path id="Path_1431" data-name="Path 1431" d="M124.171,78.575c4.2,3.15,17.16,3.278,17.16,3.278Z" transform="translate(180.742 119.336)" opacity="0.1"/>
      <path id="Path_1432" data-name="Path 1432" d="M126.6,84.183c.362.128,8.909,9.9,12.5,6.944S126.6,84.183,126.6,84.183Z" transform="translate(184.676 129.476)" opacity="0.1"/>
      <path id="Path_1433" data-name="Path 1433" d="M82.684,54.977s2.51,18.514,1.273,26.054,3.277,16.883,3.277,16.883Z" transform="translate(113.473 76.668)" opacity="0.1"/>
      <path id="Path_1434" data-name="Path 1434" d="M82.712,59.927c-2.894,2.429-5.006,8.18-6.536,14.5a166.343,166.343,0,0,0-3.541,23.807s-23.042-5.657-21.364-8.226c1.056-1.616-.362-13.79-1.545-22.617-.705-5.215-1.335-9.265-1.335-9.265S90.634,53.239,82.712,59.927Z" transform="translate(57.869 79.247)" fill="#ffccd0"/>
      <path id="Path_1435" data-name="Path 1435" d="M82.712,59.742c-2.894,2.433-5.006,8.18-6.536,14.5a25.365,25.365,0,0,1-26.449-7.033c-.705-5.219-1.335-9.269-1.335-9.269S90.634,53.058,82.712,59.742Z" transform="translate(57.869 78.916)" opacity="0.1"/>
      <path id="Path_1436" data-name="Path 1436" d="M99.181,70.919c0,13.915-9.356,25.807-22.161,28.152S51.7,93.531,47.387,80.4s.841-27.67,12.2-34.429,25.6-3.764,33.734,7.089A29.83,29.83,0,0,1,99.181,70.919Z" transform="translate(53.786 53.89)" fill="#ffccd0"/>
      <path id="Path_1437" data-name="Path 1437" d="M79.731,135.469h-7.6l-.64-14.372-.669-14.875s1.725-.275,4.475-.686l1.11-.159h.09c.6,3.018,1.194,6.118,1.765,9.214a101.222,101.222,0,0,1,1.479,16.662c0,.388,0,.775,0,1.139C79.768,133.427,79.746,134.462,79.731,135.469Z" transform="translate(94.245 167.798)" opacity="0.1"/>
      <path id="Path_1438" data-name="Path 1438" d="M132.591,204H37.327c.412-1,.687-1.612.687-1.612s7.622-35.718,11.5-50.83a.208.208,0,0,0,0-.039q.726-3.079,1.751-6.064h0a2.153,2.153,0,0,1,.17-.387c1.917-3.34,4.319-6.94.959-12.082s-2.17-27.767-2.17-27.767,4.08-19.285,8.4-29.569a13.9,13.9,0,0,1,2.742-4.262,11.456,11.456,0,0,1,1.2-1.093h0a10.533,10.533,0,0,1,1.006-.717l.069-.047a13.83,13.83,0,0,1,5.907-1.964,15.743,15.743,0,0,1,4.431.132A62.771,62.771,0,0,1,91.039,72.74c12.078,5.684,15.735,13.3,15.807,13.461h0l.029.066c.485,1.213,7.575,18.944,10.128,27.217.662,2.154,1.024,3.669.879,4.084-.723,2.054,5.52,27.763,5.52,27.763s2.894,12.4,5.788,26.934c.127.6.246,1.209.362,1.821.517,2.639,1.031,5.328,1.527,8.013a100.7,100.7,0,0,1,1.479,16.778Q132.638,201.508,132.591,204Z" transform="translate(39.927 99.264)" fill="#ff748e"/>
      <path id="Path_1439" data-name="Path 1439" d="M53.416,64.924s-6.573-2.712-6.493,1.4,1.6,6.083,1.121,6.684.239,4.2.239,4.2,8.88,0,12.961,1.968,19.121,5.913,21.042,7.114,9.043,6.587,9.043,6.587l.64-10.2a53.065,53.065,0,0,0-19.439-9.854C60.451,69.489,53.416,64.924,53.416,64.924Z" transform="translate(55.486 93.069)" opacity="0.1"/>
      <path id="Path_1440" data-name="Path 1440" d="M53.416,64.741s-6.573-2.712-6.493,1.4,1.6,6.083,1.121,6.684.239,4.2.239,4.2,8.88,0,12.961,1.972,19.121,5.913,21.042,7.11S91.328,92.7,91.328,92.7l.647-10.167a53.065,53.065,0,0,0-19.439-9.854C60.459,69.336,53.416,64.741,53.416,64.741Z" transform="translate(55.486 92.737)" fill="#ff748e"/>
      <path id="Path_1441" data-name="Path 1441" d="M56.968,72.916s12.559,14.565,11.919,18.6S56.968,72.916,56.968,72.916Z" transform="translate(71.774 109.105)" opacity="0.1"/>
      <path id="Path_1442" data-name="Path 1442" d="M62.744,102.365s-4.88,10.629-2.239,9.943S62.744,102.365,62.744,102.365Z" transform="translate(76.239 162.351)" fill="none"/>
      <path id="Path_1443" data-name="Path 1443" d="M57.053,91.653s-9.206,9.086-11.919,9.6,2.08,2.228,5.2.86S60.1,97.148,60.1,97.148Z" transform="translate(51.288 142.983)" opacity="0.1"/>
      <path id="Path_1444" data-name="Path 1444" d="M98.137,136.058H76.668c-3-2.79-5.842-5.374-7.651-6.928a26.707,26.707,0,0,1-6.312-9.094c-.3-.67-.561-1.3-.781-1.868q-.593-1.472-1.042-3l15.9-10.113a25.755,25.755,0,0,1,2.471,2.588l.192.236a7.165,7.165,0,0,1,1.729,3.421c.08,1.209,3.219,5.886,6.428,10.377,3.256,4.568,6.591,8.935,6.811,9.23h0s.55.8,1.447,2.034C96.491,133.83,97.272,134.9,98.137,136.058Z" transform="translate(78.122 167.209)" fill="#ffccd0"/>
      <path id="Path_1445" data-name="Path 1445" d="M93.309,53.055a17.519,17.519,0,0,0-1.548,5.812c-.286,5.928.177,19.184-5.95,22.16-3.035,1.465-6.283-1.751-9.611-1.829-2.395-.054-4.59,1.573-6.052,3.607a39.975,39.975,0,0,0-3.429,6.75,46.929,46.929,0,0,1-3.324,6.006,15,15,0,0,1-1.23,1.662C51.929,92.6,45.447,81.652,45.9,69.761S53.65,47.528,64.2,43.812s22.154-.026,29.105,9.258Z" transform="translate(53.794 53.899)" opacity="0.1"/>
      <path id="Path_1446" data-name="Path 1446" d="M108.838,65.44c-.289,5.928.177,19.184-5.954,22.156-3.035,1.465-6.283-1.748-9.611-1.825-2.395-.058-4.587,1.573-6.052,3.6a39.718,39.718,0,0,0-3.429,6.754,47.025,47.025,0,0,1-3.324,6.006,8.45,8.45,0,0,1-2.717,2.9c-2,1.116-4.417.488-6.558-.229q-4.167-1.407-8.211-3.17a9.491,9.491,0,0,0,.094-1.317c-.08.163-.166.314-.253.477l-.17.318c-.307.581-.608,1.162-.883,1.759-.1.229-.206.465-.3.7a9.422,9.422,0,0,0-.676,2.774c-.184,2.584,1.006,5.037,2.062,7.362,4.062,8.993,6.573,19.51,3.516,28.945-1.324,4.1-3.617,7.75-5.292,11.714a40.317,40.317,0,0,0-2.471,22.389c.836,4.7,2.51,9.346,2.1,14.108-.723,8.2-7.321,14.294-13.93,18.487-3.57,2.255-7.94,4.262-11.731,2.48,2.416-3.022,3.038-7.2,3.559-11.148q2.138-16.139,4.286-32.293.857-6.428,1.711-12.857c1.063-8.052,2.141-16.193,1.476-24.3-.485-5.971-1.852-12.31.564-17.716,1.277-2.864,3.552-5.235,4.261-8.319.582-2.507.04-5.173.423-7.726a13.8,13.8,0,0,1,1.056-3.348,16.6,16.6,0,0,1,2.424-3.96,4.107,4.107,0,0,1-2.424-1.585c1.555-1.085,1.791-3.53,1.085-5.367a16.4,16.4,0,0,0-3.386-4.685,9.236,9.236,0,0,1-2.651-5.115c-.307-3.762,3.2-6.676,3.82-10.388.626-3.778-1.848-7.451-1.649-11.276.232-4.623,4.2-7.982,8.11-9.931A34.745,34.745,0,0,1,76.627,38.34C81.9,38.874,87,40.622,92.264,41.3c3.172.387,6.388.426,9.539,1.023a14.923,14.923,0,0,1,8.526,4.332C116.174,53.184,109.171,58.558,108.838,65.44Z" transform="translate(36.236 46.28)" fill="#ffe0d0"/>
      <path id="Path_1447" data-name="Path 1447" d="M88.161,173.827c-1.845-.856-5.2-.345-10.964-2.224s-6.873-10.373-6.873-10.373V161.2h0c-.069-.194-.6-1.457-4.229-5.882-4-4.886-12.66-29.565-12.66-29.565S45.759,116.925,46,113.67s-1.364-11.915-1.2-21.6,17.28-16.111,17.28-16.111c32.964-6.258,25.2,34.451,24.322,37.535s3.682,11.415,3.682,11.415c-.644,3.627,2.641,9.241,2.641,9.241s.8,4.967.959,6.855a1.233,1.233,0,0,0,.054.256c.528,1.778,4.833,3.39,6.583,4.371,1.841,1.031,7.763,10.028,7.763,10.028C109.358,162.264,90,174.695,88.161,173.827Z" transform="translate(52.023 113.422)" opacity="0.1"/>
      <path id="Path_1448" data-name="Path 1448" d="M88.524,173.262c-1.841-.86-5.2-.345-10.96-2.228s-6.873-10.369-6.873-10.369v-.027h0c-.065-.2-.6-1.457-4.229-5.882-4-4.886-12.66-29.569-12.66-29.569s-7.676-8.827-7.437-12.082-1.36-11.915-1.2-21.594,17.269-16.1,17.269-16.1c32.964-6.258,25.2,34.451,24.322,37.535s3.682,11.415,3.682,11.415c-.644,3.627,2.641,9.241,2.641,9.241s.8,4.967.962,6.854a1.032,1.032,0,0,0,.051.256c.528,1.779,4.833,3.39,6.587,4.371,1.838,1.027,7.763,10.028,7.763,10.028C109.725,161.708,90.366,174.138,88.524,173.262Z" transform="translate(52.618 112.437)" fill="#ff748e"/>
      <path id="Path_1449" data-name="Path 1449" d="M51.993,82.56s14.4,16.274,18.159,16.274S51.993,82.56,51.993,82.56Z" transform="translate(63.709 126.542)" opacity="0.1"/>
      <path id="Path_1450" data-name="Path 1450" d="M72.728,130.8c-1.841-.86-5.2-.345-10.96-2.228S54.9,118.208,54.9,118.208v-.027h0c3.816-2.712,13.482-10.373,17.29-13.174a27.817,27.817,0,0,0,6.149-6.765c.528,1.779,4.833,3.39,6.587,4.371,1.838,1.027,7.763,10.028,7.763,10.028C93.929,119.25,74.569,131.68,72.728,130.8Z" transform="translate(68.414 154.894)" fill="#ff748e"/>
      <g id="Group_887" data-name="Group 887" transform="translate(71.286 91.897)" opacity="0.1">
        <path id="Path_1451" data-name="Path 1451" d="M41.672,56.362c.018.031.043.058.065.089.109-.147.221-.294.336-.434a2.74,2.74,0,0,1-.4.345Z" transform="translate(-24.313 -13.348)"/>
        <path id="Path_1452" data-name="Path 1452" d="M60.8,67.67c.152-2.151,1.226-4.045,2.232-5.936-.658-.271-1.317-.546-1.968-.833a9.39,9.39,0,0,0,.094-1.314c-1.016,1.937-2.123,3.844-2.279,6.025-.184,2.588,1.006,5.037,2.062,7.362,4.066,8.99,6.573,19.506,3.516,28.945-1.328,4.1-3.617,7.75-5.292,11.713A40.3,40.3,0,0,0,56.7,136.017c.828,4.7,2.507,9.346,2.094,14.108-.723,8.2-7.318,14.294-13.93,18.483-2.7,1.713-5.86,3.282-8.88,3.17a11.729,11.729,0,0,1-.933,1.376c3.795,1.794,8.161-.225,11.731-2.488,6.616-4.185,13.225-10.268,13.948-18.479.412-4.762-1.266-9.408-2.1-14.108a40.334,40.334,0,0,1,2.46-22.385c1.664-3.96,3.979-7.614,5.292-11.714,3.057-9.439.546-19.955-3.516-28.945C61.814,72.7,60.617,70.258,60.8,67.67Z" transform="translate(-35.05 -6.893)"/>
        <path id="Path_1453" data-name="Path 1453" d="M93.044,41.907A10.718,10.718,0,0,0,91.9,40.822c4.384,6.091-1.946,11.268-2.261,17.824-.282,5.928.181,19.188-5.95,22.156-3.031,1.469-6.283-1.748-9.607-1.825-2.4-.054-4.59,1.577-6.055,3.607a39.548,39.548,0,0,0-3.426,6.75,47.23,47.23,0,0,1-3.328,6.006,8.239,8.239,0,0,1-2.72,2.906c-1.989,1.112-4.409.488-6.554-.232q-3.129-1.054-6.2-2.325a8.964,8.964,0,0,1-.094,1.205q4.048,1.767,8.215,3.17c2.141.721,4.561,1.345,6.554.232a8.451,8.451,0,0,0,2.72-2.91,46.458,46.458,0,0,0,3.324-6,39.6,39.6,0,0,1,3.429-6.754c1.469-2.03,3.657-3.658,6.052-3.6,3.328.078,6.58,3.294,9.611,1.825,6.131-2.968,5.665-16.228,5.95-22.156C91.894,53.8,98.9,48.432,93.044,41.907Z" transform="translate(-17.773 -40.822)"/>
      </g>
      <path id="Path_1454" data-name="Path 1454" d="M51.931,66.972c-.307.581-.608,1.162-.883,1.759-.1.229-.206.465-.3.7-1.9-2.046-6.511-6.909-9.087-8.416a16.682,16.682,0,0,1,2.424-3.96S50.227,60.532,51.931,66.972Z" transform="translate(46.962 80.428)" opacity="0.1"/>
      <path id="Path_1455" data-name="Path 1455" d="M52.1,67.315c-1.422-6.893-8.012-10.625-8.012-10.625a16.6,16.6,0,0,0-2.424,3.96c2.717,1.593,7.723,6.932,9.383,8.742Z" transform="translate(46.962 79.767)" fill="#ff748e"/>
    </g>
  </g>
</svg>
