<svg xmlns="http://www.w3.org/2000/svg" xmlns:xlink="http://www.w3.org/1999/xlink" width="741" height="369" viewBox="0 0 741 369">
  <defs>
    <linearGradient id="linear-gradient" x1="0.5" y1="1" x2="0.5" gradientUnits="objectBoundingBox">
      <stop offset="0" stop-color="gray" stop-opacity="0.251"/>
      <stop offset="0.54" stop-color="gray" stop-opacity="0.122"/>
      <stop offset="1" stop-color="gray" stop-opacity="0.102"/>
    </linearGradient>
  </defs>
  <g id="Group_967" data-name="Group 967" transform="translate(-1468 -1453)">
    <rect id="Rectangle_1905" data-name="Rectangle 1905" width="741" height="369" transform="translate(1468 1453)" fill="#d7f9f9"/>
    <g id="undraw_thoughts_e49y" transform="translate(1591.195 1467.914)">
      <path id="Path_1767" data-name="Path 1767" d="M466.491,113.63A120.328,120.328,0,0,0,446.9,82.412L175.1,79.736,398.883,48.3a127.02,127.02,0,0,0-45.414-9.006,127.256,127.256,0,0,0-152.024-5.147,126.694,126.694,0,0,0-58.173-14.016c-60.39,0-110.714,41.828-122,97.295Z" transform="translate(17.856 -11.433)" fill="#81ecec" opacity="0.1"/>
      <path id="Path_1768" data-name="Path 1768" d="M498.36,100.375a117.442,117.442,0,0,0-8.47-43.9L18.817,105.916A118.181,118.181,0,0,0,7.786,133.793l145.873,21.744L4.458,171.406C8.944,234.2,62.785,283.771,128.532,283.771A125.9,125.9,0,0,0,214,250.713a125.941,125.941,0,0,0,86.178,33.735c49.642,0,92.491-28.267,112.443-69.135,40.027-12.7,71.125-44.6,81.765-84.488L309.907,102.177H498.342C498.351,101.572,498.36,100.976,498.36,100.375Z" transform="translate(-4.458 48.342)" fill="#81ecec" opacity="0.1"/>
      <ellipse id="Ellipse_437" data-name="Ellipse 437" cx="14.307" cy="4.958" rx="14.307" ry="4.958" transform="translate(253.616 279.078)" fill="#81ecec" opacity="0.1"/>
      <ellipse id="Ellipse_438" data-name="Ellipse 438" cx="14.307" cy="4.958" rx="14.307" ry="4.958" transform="translate(433.366 279.078)" fill="#81ecec" opacity="0.1"/>
      <ellipse id="Ellipse_439" data-name="Ellipse 439" cx="14.307" cy="4.958" rx="14.307" ry="4.958" transform="translate(238.009 303.919)" fill="#81ecec" opacity="0.1"/>
      <ellipse id="Ellipse_440" data-name="Ellipse 440" cx="14.307" cy="4.958" rx="14.307" ry="4.958" transform="translate(448.883 304.399)" fill="#81ecec" opacity="0.1"/>
      <path id="Path_1769" data-name="Path 1769" d="M196.963,155.355l3.126,6.673V112.463h-3.126Z" transform="translate(261.411 149.267)" fill="#b77b7f"/>
      <path id="Path_1770" data-name="Path 1770" d="M111.967,155.355l-3.127,6.673V112.463h3.127Z" transform="translate(144.454 149.267)" fill="#b77b7f"/>
      <path id="Path_1771" data-name="Path 1771" d="M196.963,155.355l3.126,6.673V112.463h-3.126Z" transform="translate(261.411 149.267)" opacity="0.1"/>
      <path id="Path_1772" data-name="Path 1772" d="M111.967,155.355l-3.127,6.673V112.463h3.127Z" transform="translate(144.454 149.267)" opacity="0.1"/>
      <rect id="Rectangle_1665" data-name="Rectangle 1665" width="8.663" height="60.926" transform="translate(269.059 170.693)" fill="#b77b7f"/>
      <rect id="Rectangle_1666" data-name="Rectangle 1666" width="8.663" height="60.926" transform="translate(443.342 170.693)" fill="#b77b7f"/>
      <rect id="Rectangle_1667" data-name="Rectangle 1667" width="8.663" height="7.102" transform="translate(269.059 170.693)" opacity="0.1"/>
      <rect id="Rectangle_1668" data-name="Rectangle 1668" width="8.663" height="7.102" transform="translate(443.342 170.693)" opacity="0.1"/>
      <rect id="Rectangle_1669" data-name="Rectangle 1669" width="208.631" height="9.088" transform="translate(255.709 168.137)" fill="#dda2a6"/>
      <rect id="Rectangle_1670" data-name="Rectangle 1670" width="8.663" height="9.088" transform="translate(269.059 181.059)" opacity="0.1"/>
      <rect id="Rectangle_1671" data-name="Rectangle 1671" width="8.663" height="9.088" transform="translate(443.342 181.059)" opacity="0.1"/>
      <rect id="Rectangle_1672" data-name="Rectangle 1672" width="208.631" height="9.088" transform="translate(255.709 180.493)" fill="#dda2a6"/>
      <rect id="Rectangle_1673" data-name="Rectangle 1673" width="8.663" height="9.088" transform="translate(269.059 193.415)" opacity="0.1"/>
      <rect id="Rectangle_1674" data-name="Rectangle 1674" width="8.663" height="9.088" transform="translate(443.342 193.415)" opacity="0.1"/>
      <rect id="Rectangle_1675" data-name="Rectangle 1675" width="208.631" height="9.088" transform="translate(255.709 192.849)" fill="#dda2a6"/>
      <rect id="Rectangle_1676" data-name="Rectangle 1676" width="8.663" height="9.088" transform="translate(269.059 205.771)" opacity="0.1"/>
      <rect id="Rectangle_1677" data-name="Rectangle 1677" width="8.663" height="9.088" transform="translate(443.342 205.771)" opacity="0.1"/>
      <rect id="Rectangle_1678" data-name="Rectangle 1678" width="208.631" height="9.088" transform="translate(255.709 205.204)" fill="#dda2a6"/>
      <rect id="Rectangle_1679" data-name="Rectangle 1679" width="8.663" height="9.088" transform="translate(269.059 218.126)" opacity="0.1"/>
      <rect id="Rectangle_1680" data-name="Rectangle 1680" width="8.663" height="9.088" transform="translate(443.342 218.126)" opacity="0.1"/>
      <rect id="Rectangle_1681" data-name="Rectangle 1681" width="208.631" height="9.088" transform="translate(255.709 217.56)" fill="#dda2a6"/>
      <g id="Group_941" data-name="Group 941" transform="translate(272.134 171.992)" opacity="0.1">
        <circle id="Ellipse_441" data-name="Ellipse 441" cx="1.257" cy="1.257" r="1.257"/>
        <circle id="Ellipse_442" data-name="Ellipse 442" cx="1.257" cy="1.257" r="1.257" transform="translate(0 12.356)"/>
        <circle id="Ellipse_443" data-name="Ellipse 443" cx="1.257" cy="1.257" r="1.257" transform="translate(0 24.712)"/>
        <circle id="Ellipse_444" data-name="Ellipse 444" cx="1.257" cy="1.257" r="1.257" transform="translate(0 37.068)"/>
        <circle id="Ellipse_445" data-name="Ellipse 445" cx="1.257" cy="1.257" r="1.257" transform="translate(0 49.424)"/>
        <circle id="Ellipse_446" data-name="Ellipse 446" cx="1.257" cy="1.257" r="1.257" transform="translate(174.286)"/>
        <circle id="Ellipse_447" data-name="Ellipse 447" cx="1.257" cy="1.257" r="1.257" transform="translate(174.286 12.356)"/>
        <circle id="Ellipse_448" data-name="Ellipse 448" cx="1.257" cy="1.257" r="1.257" transform="translate(174.286 24.712)"/>
        <circle id="Ellipse_449" data-name="Ellipse 449" cx="1.257" cy="1.257" r="1.257" transform="translate(174.286 37.068)"/>
        <circle id="Ellipse_450" data-name="Ellipse 450" cx="1.257" cy="1.257" r="1.257" transform="translate(174.286 49.424)"/>
      </g>
      <circle id="Ellipse_451" data-name="Ellipse 451" cx="1.257" cy="1.257" r="1.257" transform="translate(272.134 171.426)" fill="#918c9e"/>
      <circle id="Ellipse_452" data-name="Ellipse 452" cx="1.257" cy="1.257" r="1.257" transform="translate(272.134 183.782)" fill="#918c9e"/>
      <circle id="Ellipse_453" data-name="Ellipse 453" cx="1.257" cy="1.257" r="1.257" transform="translate(272.134 196.138)" fill="#918c9e"/>
      <circle id="Ellipse_454" data-name="Ellipse 454" cx="1.257" cy="1.257" r="1.257" transform="translate(272.134 208.494)" fill="#918c9e"/>
      <circle id="Ellipse_455" data-name="Ellipse 455" cx="1.257" cy="1.257" r="1.257" transform="translate(272.134 220.85)" fill="#918c9e"/>
      <circle id="Ellipse_456" data-name="Ellipse 456" cx="1.257" cy="1.257" r="1.257" transform="translate(446.421 171.426)" fill="#918c9e"/>
      <circle id="Ellipse_457" data-name="Ellipse 457" cx="1.257" cy="1.257" r="1.257" transform="translate(446.421 183.782)" fill="#918c9e"/>
      <circle id="Ellipse_458" data-name="Ellipse 458" cx="1.257" cy="1.257" r="1.257" transform="translate(446.421 196.138)" fill="#918c9e"/>
      <circle id="Ellipse_459" data-name="Ellipse 459" cx="1.257" cy="1.257" r="1.257" transform="translate(446.421 208.494)" fill="#918c9e"/>
      <circle id="Ellipse_460" data-name="Ellipse 460" cx="1.257" cy="1.257" r="1.257" transform="translate(446.421 220.85)" fill="#918c9e"/>
      <path id="Path_1773" data-name="Path 1773" d="M326.173,104.659H107.742l4.971-6.111H321.344Z" transform="translate(142.996 130.798)" fill="#dda2a6"/>
      <path id="Path_1774" data-name="Path 1774" d="M326.173,104.659H107.742l4.971-6.111H321.344Z" transform="translate(142.996 130.798)" opacity="0.1"/>
      <path id="Path_1775" data-name="Path 1775" d="M326.173,104.533H107.742l4.971-6.107H321.344Z" transform="translate(142.996 130.637)" fill="#dda2a6"/>
      <path id="Path_1776" data-name="Path 1776" d="M338.539,110.364,104.2,109.8l7.956-8.38H331.725Z" transform="translate(138.297 134.606)" fill="#dda2a6"/>
      <path id="Path_1777" data-name="Path 1777" d="M338.539,110.364,104.2,109.8l7.956-8.38H331.725Z" transform="translate(138.297 134.606)" opacity="0.1"/>
      <path id="Path_1778" data-name="Path 1778" d="M338.539,110.242,104.2,109.676l7.956-8.38H331.725Z" transform="translate(138.297 134.445)" fill="#dda2a6"/>
      <path id="Path_1779" data-name="Path 1779" d="M350.7,113.925H100.6l7.673-8.663,235.616.283Z" transform="translate(133.518 139.708)" fill="#dda2a6"/>
      <path id="Path_1780" data-name="Path 1780" d="M119.338,112.463v17.893l-3.075,5.966-1.016-21.3-.12-2.556Z" transform="translate(152.797 149.267)" fill="#b77b7f"/>
      <path id="Path_1781" data-name="Path 1781" d="M194.731,112.463l-.124,2.556-1.012,21.3-3.079-5.966V112.463Z" transform="translate(252.853 149.267)" fill="#b77b7f"/>
      <path id="Path_1782" data-name="Path 1782" d="M119.338,112.463v17.893l-3.075,5.966-1.016-21.3-.12-2.556Z" transform="translate(152.797 149.267)" opacity="0.1"/>
      <path id="Path_1783" data-name="Path 1783" d="M194.731,112.463l-.124,2.556-1.012,21.3-3.079-5.966V112.463Z" transform="translate(252.853 149.267)" opacity="0.1"/>
      <rect id="Rectangle_1682" data-name="Rectangle 1682" width="7.951" height="25.282" transform="translate(261.104 260.311)" fill="#b77b7f"/>
      <rect id="Rectangle_1683" data-name="Rectangle 1683" width="7.951" height="25.282" transform="translate(446.447 260.311)" fill="#b77b7f"/>
      <path id="Path_1784" data-name="Path 1784" d="M120.152,113.273h3.075v2.556H112.2v-3.976h7.956Z" transform="translate(148.908 148.457)" opacity="0.1"/>
      <path id="Path_1785" data-name="Path 1785" d="M201.545,111.853v3.976H190.515v-2.556h3.079v-1.42Z" transform="translate(252.853 148.457)" opacity="0.1"/>
      <rect id="Rectangle_1684" data-name="Rectangle 1684" width="213.602" height="6.249" transform="translate(250.738 257.467)" fill="#b77b7f"/>
      <rect id="Rectangle_1685" data-name="Rectangle 1685" width="9.088" height="54.965" transform="translate(244.206 256.331)" fill="#b77b7f"/>
      <rect id="Rectangle_1686" data-name="Rectangle 1686" width="9.088" height="54.965" transform="translate(470.592 311.295) rotate(180)" fill="#b77b7f"/>
      <rect id="Rectangle_1687" data-name="Rectangle 1687" width="213.602" height="0.566" transform="translate(250.738 257.467)" opacity="0.1"/>
      <rect id="Rectangle_1688" data-name="Rectangle 1688" width="250.103" height="3.834" transform="translate(234.119 253.633)" fill="#dda2a6"/>
      <rect id="Rectangle_1689" data-name="Rectangle 1689" width="250.103" height="3.834" transform="translate(234.119 253.633)" fill="#fff" opacity="0.1"/>
      <circle id="Ellipse_461" data-name="Ellipse 461" cx="1.257" cy="1.257" r="1.257" transform="translate(246.951 259.62)" opacity="0.1"/>
      <circle id="Ellipse_462" data-name="Ellipse 462" cx="1.257" cy="1.257" r="1.257" transform="translate(246.951 259.054)" fill="#918c9e"/>
      <circle id="Ellipse_463" data-name="Ellipse 463" cx="1.257" cy="1.257" r="1.257" transform="translate(465.532 259.449)" opacity="0.1"/>
      <circle id="Ellipse_464" data-name="Ellipse 464" cx="1.257" cy="1.257" r="1.257" transform="translate(465.532 258.882)" fill="#918c9e"/>
      <ellipse id="Ellipse_465" data-name="Ellipse 465" cx="20.123" cy="2.762" rx="20.123" ry="2.762" transform="translate(16.366 274.875)" fill="#81ecec" opacity="0.1"/>
      <ellipse id="Ellipse_466" data-name="Ellipse 466" cx="20.123" cy="2.762" rx="20.123" ry="2.762" transform="translate(93.452 282.689)" fill="#81ecec" opacity="0.1"/>
      <ellipse id="Ellipse_467" data-name="Ellipse 467" cx="20.123" cy="2.762" rx="20.123" ry="2.762" transform="translate(184.249 272.113)" fill="#81ecec" opacity="0.1"/>
      <ellipse id="Ellipse_468" data-name="Ellipse 468" cx="14.307" cy="1.964" rx="14.307" ry="1.964" transform="translate(68.414 305.741)" fill="#81ecec" opacity="0.1"/>
      <ellipse id="Ellipse_469" data-name="Ellipse 469" cx="14.307" cy="1.964" rx="14.307" ry="1.964" transform="translate(148.421 303.777)" fill="#81ecec" opacity="0.1"/>
      <path id="Path_1786" data-name="Path 1786" d="M59.9,220.98s-28.216-92.521,4.422-129.6c24.42-27.722,52.134-24.407,64.55-20.976a22.945,22.945,0,0,1,14.8,12.3c4.336,9.362,3.555,24.557-27.079,42.3-51.294,29.7-54.467,70.434-54.467,70.434Z" transform="translate(54.097 63.853)" fill="#81ecec"/>
      <path id="Path_1787" data-name="Path 1787" d="M119.546,74.771S36.344,100.787,55,212.2" transform="translate(59.004 72.63)" fill="none" stroke="#565987" stroke-miterlimit="10" stroke-width="0.184"/>
      <path id="Path_1788" data-name="Path 1788" d="M60.3,78.777S71.756,86.5,68.115,98.1" transform="translate(69.657 77.947)" fill="none" stroke="#565987" stroke-miterlimit="10" stroke-width="0.184"/>
      <path id="Path_1789" data-name="Path 1789" d="M86.453,84.229s-7-7.128-15.53-3.2" transform="translate(83.755 79.37)" fill="none" stroke="#565987" stroke-miterlimit="10" stroke-width="0.184"/>
      <path id="Path_1790" data-name="Path 1790" d="M72.292,98.465s-12.3-6.24-15.478,1.578" transform="translate(65.03 100.945)" fill="none" stroke="#565987" stroke-miterlimit="10" stroke-width="0.184"/>
      <path id="Path_1791" data-name="Path 1791" d="M50.388,102.743s9.255-.738,9.4,3.7" transform="translate(56.501 109.693)" fill="none" stroke="#565987" stroke-miterlimit="10" stroke-width="0.184"/>
      <path id="Path_1792" data-name="Path 1792" d="M52.955,171.667s33.058-67.243,42.137-65.772c4.314.7,6.3,4.941,7.2,9.2a27.053,27.053,0,0,1-1.8,16.37C95.8,142.229,83.2,162.66,52.955,171.667Z" transform="translate(59.908 113.905)" fill="#81ecec"/>
      <path id="Path_1793" data-name="Path 1793" d="M94.561,111.365s-34.7,50.307-41.4,52.516" transform="translate(60.182 121.197)" fill="none" stroke="#565987" stroke-miterlimit="10" stroke-width="0.184"/>
      <line id="Line_37" data-name="Line 37" x1="8.097" transform="translate(149.849 240.411)" fill="none" stroke="#565987" stroke-miterlimit="10" stroke-width="0.184"/>
      <line id="Line_38" data-name="Line 38" x1="12.695" y2="0.545" transform="translate(135.55 258.818)" fill="none" stroke="#565987" stroke-miterlimit="10" stroke-width="0.184"/>
      <line id="Line_39" data-name="Line 39" x2="1.377" y2="6.609" transform="translate(140.521 244.095)" fill="none" stroke="#565987" stroke-miterlimit="10" stroke-width="0.184"/>
      <line id="Line_40" data-name="Line 40" x2="0.244" y2="6.009" transform="translate(127.024 264.218)" fill="none" stroke="#565987" stroke-miterlimit="10" stroke-width="0.184"/>
      <path id="Path_1794" data-name="Path 1794" d="M81.819,171.667s-33.053-67.243-42.133-65.772c-4.314.7-6.3,4.941-7.2,9.2a27.054,27.054,0,0,0,1.8,16.37C38.974,142.229,51.574,162.66,81.819,171.667Z" transform="translate(32.026 113.905)" fill="#81ecec"/>
      <path id="Path_1795" data-name="Path 1795" d="M35.383,111.365s34.7,50.307,41.4,52.516" transform="translate(36.586 121.197)" fill="none" stroke="#565987" stroke-miterlimit="10" stroke-width="0.184"/>
      <line id="Line_41" data-name="Line 41" x2="8.101" transform="translate(68.766 240.411)" fill="none" stroke="#565987" stroke-miterlimit="10" stroke-width="0.184"/>
      <line id="Line_42" data-name="Line 42" x2="12.695" y2="0.545" transform="translate(78.467 258.818)" fill="none" stroke="#565987" stroke-miterlimit="10" stroke-width="0.184"/>
      <line id="Line_43" data-name="Line 43" x1="1.377" y2="6.609" transform="translate(84.814 244.095)" fill="none" stroke="#565987" stroke-miterlimit="10" stroke-width="0.184"/>
      <line id="Line_44" data-name="Line 44" x1="0.249" y2="6.009" transform="translate(99.443 264.218)" fill="none" stroke="#565987" stroke-miterlimit="10" stroke-width="0.184"/>
      <path id="Path_1796" data-name="Path 1796" d="M88.184,146.078a5.688,5.688,0,0,0,1.883-2.839,2.531,2.531,0,0,0-1.317-2.895c-1.205-.459-2.5.377-3.474,1.222s-2.1,1.81-3.38,1.63a5.146,5.146,0,0,0,1.57-4.816,2.059,2.059,0,0,0-.429-.978c-.673-.716-1.887-.407-2.689.154-2.573,1.8-3.264,5.262-3.281,8.385a16,16,0,0,1-.047-3.452,3.561,3.561,0,0,0-1.287-3.054,3.9,3.9,0,0,0-1.977-.467,4.077,4.077,0,0,0-3.208.913,3.2,3.2,0,0,0,.124,3.941,12.544,12.544,0,0,0,3.32,2.659,7.359,7.359,0,0,1,2.376,2.264,2.479,2.479,0,0,1,.176.4h7.192a20.16,20.16,0,0,0,4.447-3.071Z" transform="translate(82.427 155.199)" fill="#81ecec"/>
      <path id="Path_1797" data-name="Path 1797" d="M34.043,134.44a5.669,5.669,0,0,0,1.883-2.839,2.529,2.529,0,0,0-1.317-2.895c-1.205-.459-2.5.377-3.474,1.222s-2.1,1.81-3.38,1.63a5.146,5.146,0,0,0,1.591-4.816,2.08,2.08,0,0,0-.429-.978c-.673-.716-1.887-.407-2.689.159-2.573,1.793-3.264,5.262-3.277,8.38a15.553,15.553,0,0,1-.047-3.431,3.586,3.586,0,0,0-1.287-3.054,3.9,3.9,0,0,0-1.977-.467,4.1,4.1,0,0,0-3.208.913,3.2,3.2,0,0,0,.124,3.941,12.493,12.493,0,0,0,3.324,2.659,7.389,7.389,0,0,1,2.372,2.264,2.485,2.485,0,0,1,.176.4h7.192a20.156,20.156,0,0,0,4.422-3.092Z" transform="translate(10.603 139.754)" fill="#81ecec"/>
      <path id="Path_1798" data-name="Path 1798" d="M52.081,146.078a5.688,5.688,0,0,0,1.883-2.839,2.526,2.526,0,0,0-1.317-2.895c-1.205-.459-2.5.377-3.474,1.222s-2.1,1.81-3.38,1.63a5.146,5.146,0,0,0,1.591-4.816,2.058,2.058,0,0,0-.429-.978c-.673-.716-1.887-.407-2.689.154-2.552,1.8-3.264,5.262-3.277,8.385a15.726,15.726,0,0,1-.047-3.452,3.561,3.561,0,0,0-1.287-3.054,3.9,3.9,0,0,0-1.977-.467,4.086,4.086,0,0,0-3.208.913,3.2,3.2,0,0,0,.124,3.941,12.5,12.5,0,0,0,3.324,2.659,7.342,7.342,0,0,1,2.372,2.264,2.144,2.144,0,0,1,.176.4h7.167A20.161,20.161,0,0,0,52.081,146.078Z" transform="translate(34.544 155.199)" fill="#81ecec"/>
      <path id="Path_1799" data-name="Path 1799" d="M97.066,117.367s2.7,3.525-1.244,8.848-7.188,9.817-5.876,13.136c0,0,5.944-9.864,10.786-10.023S102.392,123.311,97.066,117.367Z" transform="translate(108.61 129.164)" fill="#81ecec"/>
      <path id="Path_1800" data-name="Path 1800" d="M96.98,117.367a4.32,4.32,0,0,1,.553,1.107c4.718,5.545,7.235,10.722,2.7,10.855-4.229.12-9.3,7.681-10.516,9.59.043.146.09.292.146.429,0,0,5.944-9.864,10.786-10.023S102.307,123.311,96.98,117.367Z" transform="translate(108.696 129.164)" opacity="0.1"/>
      <path id="Path_1801" data-name="Path 1801" d="M95.346,119.753c0,1.239-.137,2.247-.309,2.247s-.313-1.008-.313-2.247.176-.66.347-.66S95.346,118.509,95.346,119.753Z" transform="translate(115.344 131.272)" fill="#ffd037"/>
      <path id="Path_1802" data-name="Path 1802" d="M96.958,120.418c-1.089.6-2.037.952-2.144.8s.738-.755,1.827-1.347.66-.163.742,0S98.048,119.826,96.958,120.418Z" transform="translate(115.451 132.087)" fill="#ffd037"/>
      <path id="Path_1803" data-name="Path 1803" d="M90.166,117.367s-2.693,3.525,1.248,8.848,7.188,9.817,5.876,13.136c0,0-5.949-9.864-10.786-10.023S84.844,123.311,90.166,117.367Z" transform="translate(101.267 129.164)" fill="#81ecec"/>
      <path id="Path_1804" data-name="Path 1804" d="M90.166,117.367a4.416,4.416,0,0,0-.549,1.107c-4.718,5.545-7.239,10.722-2.7,10.855,4.229.12,9.3,7.681,10.512,9.59a3.923,3.923,0,0,1-.142.429s-5.949-9.864-10.786-10.023S84.844,123.311,90.166,117.367Z" transform="translate(101.267 129.164)" opacity="0.1"/>
      <path id="Path_1805" data-name="Path 1805" d="M84.564,119.753c0,1.239.137,2.247.309,2.247s.313-1.008.313-2.247-.176-.66-.347-.66S84.564,118.509,84.564,119.753Z" transform="translate(101.86 131.272)" fill="#ffd037"/>
      <path id="Path_1806" data-name="Path 1806" d="M84.2,120.418c1.089.6,2.037.952,2.119.8s-.733-.755-1.823-1.347-.66-.163-.742,0S83.114,119.826,84.2,120.418Z" transform="translate(100.501 132.087)" fill="#ffd037"/>
      <path id="Path_1807" data-name="Path 1807" d="M84.933,128.941s7.54-.232,9.808-1.853,11.58-3.547,12.163-.952,11.331,12.9,2.818,12.974-19.775-1.325-22.044-2.711S84.933,128.941,84.933,128.941Z" transform="translate(102.349 139.115)" fill="#a8a8a8"/>
      <path id="Path_1808" data-name="Path 1808" d="M109.868,135.888c-8.509.069-19.775-1.325-22.044-2.706-1.715-1.051-2.415-4.829-2.642-6.57h-.253s.476,6.077,2.745,7.458,13.531,2.779,22.044,2.711c2.457,0,3.307-.9,3.259-2.192C112.643,135.386,111.708,135.875,109.868,135.888Z" transform="translate(102.344 141.432)" opacity="0.2"/>
      <path id="Path_1809" data-name="Path 1809" d="M255.984,189.008l.253-.09s-.12-5.485-3.092-8.41-1.111-12.086-1.111-12.086.249-9.633-1.115-11.948,0-10.975,0-10.975V132.345s-1.111-3.431-1.36-12.8-1.235-8.149-3.092-10.851c-.961-1.394-5.052-2.848-8.818-3.894a70.865,70.865,0,0,0-8.106-7.141,10.9,10.9,0,0,1,3.937-2.861c1.334-.63,2.865-1.287,3.41-2.633a5.2,5.2,0,0,0,.146-2.427,14.523,14.523,0,0,0-.733-3.787,4.963,4.963,0,0,0-2.509-2.843c-.648-.283-1.488-.48-1.677-1.154a1.626,1.626,0,0,1,.034-.811,16.972,16.972,0,0,0,.742-3.971,9.778,9.778,0,0,0-1.385-4.242c-1.763-3.358-4.006-6.669-7.364-8.5-4.216-2.3-9.435-1.848-14.093-.691a18.523,18.523,0,0,1-3.86.716,16.761,16.761,0,0,0-2.367.056,4.481,4.481,0,0,0-1.287.429c.086-.086.172-.18.266-.262a6.334,6.334,0,0,0-2.05,1.527,5.031,5.031,0,0,0-1.287,2.264,3.1,3.1,0,0,0-.1.858,4.254,4.254,0,0,0,.858,2.247,19.962,19.962,0,0,0-1.814,1.021,2.262,2.262,0,0,0-.751.656,1.34,1.34,0,0,0-.141.322,3.405,3.405,0,0,0-.287,1.488.408.408,0,0,1-.03.189c.051-.094.094-.189.137-.287-.489,3-4.194,4.885-5.237,7.613a4.027,4.027,0,0,0-.429,1.818c.047,2.2,1.99,3.826,3.045,5.756,1.763,3.229.974,7.154.476,10.786-.069.515-.124,1.046-.159,1.583-2.612.429-5.451,1.338-7.188,3.157-3.894,4.087-2.144.609-4.945,9.633l-2.783,9.006-.373,6.523s-2.144,2.144-1.977,4.452a4.563,4.563,0,0,1-.926,3.431,46.86,46.86,0,0,0,0,5.974c.249,1.158-1.857,2.316-1.715,3.354a30.161,30.161,0,0,1,0,3.431c0,.184-1.857.489-1.668,2.62a33.613,33.613,0,0,1,.12,3.783s-3.088,3.229-2.47,5-.558,4.756-.558,4.756-.682,3.9-2.35,4.941c-1.36.858-2.432,4.027-2.783,5.185-1.244.043-19.2.733-18.6,3.126.618,2.479,17.562,3.251,19.54,3.251a1.748,1.748,0,0,0,.257-.026c-.463,3-1.655,8.908-3.911,9.864-3.032,1.287-8.535,6.828-8.286,9.268s-.991,17.194-1.8,19.265a13.917,13.917,0,0,0-.257,3.482c-3.911,6.776-6.8,12.287-7.561,13.754l-.2.382-.232.609h0c-.527-.364-4.362,4.516-4.362,4.516a67.38,67.38,0,0,0-3.277,6.094c-.124.729-2.539,1.218-2.659,1.767A37.556,37.556,0,0,1,131.1,257.2s-1.608,4.143-4.456,5.241-5.871,3.783-1.977,6.832,11.687,4.752,11.687,4.752,4.949-5.061,5.936-7.437a44.368,44.368,0,0,1,3.834-6.339,33.309,33.309,0,0,0,1.981-4.718c.266-1.287,5.974-9.911,5.974-9.911l-.618-.24c.236-.257.506-.54.806-.858.21-.219.429-.455.673-.69.66,1.621,1.458,2.723,2.415,2.942,4.576,1.038,7.853-4.512,9.958-5.061s4.387-7.673,4.387-7.673,6.249-5.245,6.309-9.435c0-.922.034-1.9.056-2.874a49.623,49.623,0,0,1,3.594-6.047c2.312-3.088,4.121-6.1,5.279-6.746.858-.472,6.184-5.773,9.006-8.616l.292-.3c.858,1.87,1.844,3.191,2.968,3.221.858.026,1.553-1.222,2.1-3q.082.172.18.347a21.273,21.273,0,0,0,4.4,5.147s7.917,11.1,7.235,12.866,5.751,9.2,9.435,11.4c2.968,1.758,10.722,10.572,13.685,14l.429.506a2.753,2.753,0,0,1-.665.167c-1.029.039,1.445,2.762,1.445,2.762s1.934,2.642,1.853,3.946,2.432,4.43,2.432,4.43,4.289,7.291,4,9.8-2.762,9.144,3.092,7.844,12.12-1.951,12.008-4.919-2.638-8.149-2.638-8.149l-2.6-5.207a46.127,46.127,0,0,1-3.753-5.687c-1.158-2.316-4.739-9.757-4.739-9.757l-1.287.545-.275-.583c-1.33-2.809-4.546-9.71-8.44-18.673a73.611,73.611,0,0,0-5.147-9.993l5.147-1.085c5.927,5.532,19.853,7.231,19.853,7.231s-.858-13.775.5-17.8c.7-2.084-.352-3.285-1.6-4.289,5.575-.322,15.517-1.218,15.989-3.105S261.307,189.3,255.984,189.008Zm-15.512-3.358c-1.1-.077-1.917-.086-1.917-.086a14.44,14.44,0,0,1,1.235-3.474c.742-1.222-4.452-4.512-4.121-7.561s-1.69-9.388-1.69-9.388.245-6.583,0-9.633a9.315,9.315,0,0,1,1.111-5.241s2.968,7.926,1.715,9.006,0,6.948,0,6.948,2.226,7.806,3.337,10.61c.656,1.621.429,5.412.33,8.822Z" transform="translate(152.627 56.721)" fill="url(#linear-gradient)"/>
      <path id="Path_1810" data-name="Path 1810" d="M151.914,112.784s-18.75.639-18.15,3.084,17.069,3.2,18.991,3.2,4.683-3.521,4.683-3.521Z" transform="translate(167.139 123.081)" fill="#efb7b9"/>
      <rect id="Rectangle_1690" data-name="Rectangle 1690" width="10.816" height="9.971" transform="translate(330.693 227.309)" fill="#67647e"/>
      <rect id="Rectangle_1691" data-name="Rectangle 1691" width="10.816" height="9.971" transform="translate(330.693 227.309)" opacity="0.12"/>
      <path id="Path_1811" data-name="Path 1811" d="M145.3,107.524l-9.95,20.089,12.613,4.091,10.182-8.736,4.812-9.324,9.744.793,10.4,5.176,8.406,5.134,5.087,9.512,7.291,4.122,15.633-3.337,2.282-10.632-12.755-8.543-4.623-7-18.742-2.728-5.425-8.089-18.75,4.525Z" transform="translate(179.638 130.142)" fill="#67647e"/>
      <path id="Path_1812" data-name="Path 1812" d="M145.417,107.607l-10.156,21.885,12.819,2.294,10.182-8.736,4.812-9.324,9.744.789,10.4,5.181,8.406,5.129,5.087,9.517L204,138.46l15.633-3.337,2.282-10.632-12.755-8.539-4.623-7L185.8,106.226l-5.425-8.093-18.75,4.525Z" transform="translate(179.52 130.248)" opacity="0.12"/>
      <path id="Path_1813" data-name="Path 1813" d="M158.95,69.332a2.166,2.166,0,0,0-.729.648,3.457,3.457,0,0,0-.283,1.475c-.382,3.62-5.46,5.575-5.382,9.2.043,2.144,1.934,3.766,2.959,5.67,1.716,3.182.944,7.055.463,10.636-.365,2.715-.365,5.9,1.716,7.685a33.172,33.172,0,0,1,2.745,1.939c1.587,1.655,1.239,4.37,2.286,6.433a1.871,1.871,0,0,0,.429.583,1.789,1.789,0,0,0,.609.313,5.484,5.484,0,0,0,5.691-1.908,9.712,9.712,0,0,0,1.977-5.94,48.466,48.466,0,0,0-.476-6.347c-.39-4.066-.257-8.149-.588-12.231a9.862,9.862,0,0,0-.858-3.748c-.313-.609-.738-1.158-1.034-1.776a9.435,9.435,0,0,1-.695-2.685l-1.132-7.167c-.223-1.432-.429-4-2.071-4.555S160.288,68.483,158.95,69.332Z" transform="translate(192.097 62.895)" fill="#e3787d"/>
      <path id="Path_1814" data-name="Path 1814" d="M158.95,69.332a2.166,2.166,0,0,0-.729.648,3.457,3.457,0,0,0-.283,1.475c-.382,3.62-5.46,5.575-5.382,9.2.043,2.144,1.934,3.766,2.959,5.67,1.716,3.182.944,7.055.463,10.636-.365,2.715-.365,5.9,1.716,7.685a33.172,33.172,0,0,1,2.745,1.939c1.587,1.655,1.239,4.37,2.286,6.433a1.871,1.871,0,0,0,.429.583,1.789,1.789,0,0,0,.609.313,5.484,5.484,0,0,0,5.691-1.908,9.712,9.712,0,0,0,1.977-5.94,48.466,48.466,0,0,0-.476-6.347c-.39-4.066-.257-8.149-.588-12.231a9.862,9.862,0,0,0-.858-3.748c-.313-.609-.738-1.158-1.034-1.776a9.435,9.435,0,0,1-.695-2.685l-1.132-7.167c-.223-1.432-.429-4-2.071-4.555S160.288,68.483,158.95,69.332Z" transform="translate(192.097 62.895)" fill="#e3787d"/>
      <g id="Group_942" data-name="Group 942" transform="translate(344.511 132.922)" opacity="0.1">
        <path id="Path_1815" data-name="Path 1815" d="M155.314,68.845a1.15,1.15,0,0,1,.026-.3,1.308,1.308,0,0,0-.223.266,3.43,3.43,0,0,0-.3,1.462.467.467,0,0,1-.026.184A4.57,4.57,0,0,0,155.314,68.845Z" transform="translate(-149.446 -68.549)"/>
        <path id="Path_1816" data-name="Path 1816" d="M169.873,104.3a5.477,5.477,0,0,1-5.687,1.908,1.514,1.514,0,0,1-1.038-.9c-1.051-2.041-.7-4.752-2.29-6.412-.776-.806-1.891-1.205-2.745-1.938-2.08-1.784-2.08-4.966-1.715-7.685.48-3.581,1.252-7.454-.463-10.632-1.025-1.909-2.912-3.512-2.959-5.674a3.514,3.514,0,0,1,.039-.6,4.1,4.1,0,0,0-.519,2.046c.043,2.144,1.934,3.77,2.959,5.674,1.716,3.182.944,7.051.463,10.632-.365,2.719-.365,5.9,1.715,7.69a33.129,33.129,0,0,1,2.745,1.939c1.587,1.655,1.24,4.37,2.286,6.407a1.887,1.887,0,0,0,.429.588,1.757,1.757,0,0,0,.613.309,5.477,5.477,0,0,0,5.687-1.908,8.23,8.23,0,0,0,1.617-3.328A7.5,7.5,0,0,1,169.873,104.3Z" transform="translate(-152.494 -63.479)"/>
      </g>
      <path id="Path_1817" data-name="Path 1817" d="M181.313,117.493s18.746.643,18.146,3.084-17.065,3.208-18.991,3.208-4.683-3.525-4.683-3.525Z" transform="translate(222.928 129.33)" fill="#efb7b9"/>
      <path id="Path_1818" data-name="Path 1818" d="M183.558,80.778s-9.191-.54-12.974,3.487-2.106.6-4.808,9.5l-2.706,8.895-.36,6.433s-2.1,2.1-1.921,4.387a4.359,4.359,0,0,1-.9,3.367,47.134,47.134,0,0,0,0,5.888c.24,1.141-1.8,2.282-1.681,3.3a30.4,30.4,0,0,1,0,3.367,2.545,2.545,0,0,0-1.621,2.573,33.792,33.792,0,0,1,.12,3.723s-3,3.187-2.406,4.928-.54,4.688-.54,4.688-.66,3.86-2.282,4.868-2.826,5.545-2.826,5.545,1.5,3.907,1.5,4.087-1.081,10.216-4.023,11.477-8.294,6.738-8.063,9.126-.961,16.949-1.741,18.991.12,22.9,4.568,23.918,7.638-4.447,9.684-4.984,4.263-7.574,4.263-7.574,6.073-5.168,6.133-9.311.24-9.435.24-9.435-7.094-12.008-8.535-12.922-5.468-6-2.346-10.4a47.311,47.311,0,0,0,5.112-9.976l3.362-3,2.848-10.765,5.146-16.825,4.868-16.529L175.8,94.24l10.923-7.608S188.67,81.678,183.558,80.778Z" transform="translate(170.218 80.57)" fill="#67647e"/>
      <path id="Path_1819" data-name="Path 1819" d="M185.077,131.447s-.691.712-1.716,1.763c-2.758,2.8-7.951,8.029-8.771,8.492-1.124.643-2.882,3.607-5.146,6.652a72.641,72.641,0,0,0-5.288,9.615s-7.531,10.576-11.936,11.7c-3,.759-7.076,4.683-9.392,7.136-1.111,1.167-1.818,2-1.818,2l-8.663-3.367,1.124-2.964.193-.382c.832-1.621,4.259-8.26,8.779-16.049a105.537,105.537,0,0,1,13.145-17.224s6.888-6.33,7.128-9.217a36.041,36.041,0,0,0-.073-4.8c-.129-2.076-.326-3.86-.326-3.86l10.495-6.806,8.016,3.345Z" transform="translate(165.276 124.871)" fill="#efb7b9"/>
      <path id="Path_1820" data-name="Path 1820" d="M200.6,175.322l-8.535,4.207-1.137-1.347c-2.878-3.375-10.413-12.064-13.3-13.8-3.624-2.183-9.864-9.474-9.2-11.237s-7.029-12.682-7.029-12.682a21.335,21.335,0,0,1-4.289-5.091,5.744,5.744,0,0,1-.832-4.1c1.016-4.031,4.383-12.866,4.383-12.866s1.625-2.706,1.741-2.891,6.026-2.209,6.026-2.209l5.828-.6,7.334,6.249s-.27,1.488-.673,3.555c-.892,4.55-2.436,11.919-3.178,12.373-1.076.66,5,5.575,5,5.575s4.023,3.431,9.006,15.084c3.783,8.839,6.9,15.641,8.2,18.412C200.353,174.846,200.6,175.322,200.6,175.322Z" transform="translate(196.889 122.983)" fill="#efb7b9"/>
      <path id="Path_1821" data-name="Path 1821" d="M163.733,117.487l4.242,13.96s-.69.712-1.715,1.763A71.473,71.473,0,0,1,163.579,124c-1.124-4.568-12.66-3.367-14.663-3.367-.883,0-2.123,2.02-3.358,4.169-.129-2.076-.326-3.86-.326-3.86l10.494-6.806Z" transform="translate(182.378 124.871)" opacity="0.1"/>
      <path id="Path_1822" data-name="Path 1822" d="M181.583,118.951s-.27,1.488-.673,3.555a15.353,15.353,0,0,0-3.736-5.2c-5.605-4.966-13.055-.721-13.055-.721-.768.283-1.141,1.076-1.973,2.059a17.459,17.459,0,0,0-4.04,10.246,35.023,35.023,0,0,1-.986,6.485,5.744,5.744,0,0,1-.832-4.1c1.016-4.031,4.383-12.866,4.383-12.866s1.625-2.706,1.741-2.891,6.013-2.209,6.013-2.209l5.828-.6Z" transform="translate(196.896 122.983)" opacity="0.1"/>
      <path id="Path_1823" data-name="Path 1823" d="M207.11,128.878c-.081,2-7.535,5.146-7.535,5.146s0-8.415-5.61-13.385-13.038-.738-13.038-.738c-.768.283-1.141,1.076-1.973,2.059a17.46,17.46,0,0,0-4.04,10.242c-.257,4.263-1.42,10.109-3.2,10.053-2.8-.077-4.718-8.487-5.85-13.055s-12.66-3.367-14.663-3.367-5.85,10.413-7.291,9.135,1.6-11.318,1.6-11.318l9.688-11.678,2.067-2.483,42.544,2.3s1.059,1.634,2.1,3.251c.982,1.54,1.951,3.066,1.99,3.178C203.983,118.444,207.187,126.871,207.11,128.878Z" transform="translate(180.105 118.707)" fill="#444053"/>
      <path id="Path_1824" data-name="Path 1824" d="M152.345,113.47c.06.09,7.814,8.5,8.174,9.766a41.357,41.357,0,0,1,.725,4.289,30.363,30.363,0,0,1,.429-3.817c.253-.841-.9-2.792-1.741-3.431a12.541,12.541,0,0,1-2.616-2.342c-.21-.51-1.2-5.738-1.2-5.738l-3.247-.721Z" transform="translate(191.819 121.344)" opacity="0.1"/>
      <path id="Path_1825" data-name="Path 1825" d="M161.436,111.971s-4.988,5.708-4.868,6.549S161.436,111.971,161.436,111.971Z" transform="translate(197.421 122.002)" opacity="0.1"/>
      <path id="Path_1826" data-name="Path 1826" d="M187.671,95.954l-5.768,8.016-15.838,3.2s-16.053-4.006-5.146-8.174a6.283,6.283,0,0,0,2.668-1.8c1.921-2.3,1.214-5.781-.386-9.169a49.692,49.692,0,0,0-7.209-10.465s22.555-9.976,19.99.429a10.49,10.49,0,0,0,.124,5.49c1.347,4.718,5.6,8.432,8.556,10.537a29.093,29.093,0,0,0,3.011,1.93Z" transform="translate(196.657 70.622)" fill="#efb7b9"/>
      <path id="Path_1827" data-name="Path 1827" d="M187.027,84.1l-5.768,8.016-15.838,3.2s-16.053-4.006-5.147-8.174a6.282,6.282,0,0,0,2.668-1.8c2.573,1.141,5.267,2.046,6.626,1.638,0,0,8.912-2.612,14.449-4.8A29.066,29.066,0,0,0,187.027,84.1Z" transform="translate(197.302 82.472)" opacity="0.1"/>
      <path id="Path_1828" data-name="Path 1828" d="M195.322,115.493a61.145,61.145,0,0,0-6.712-1.643c-2.239-.395-4.4-.549-5.309.039-2.243,1.441-7.69,4.649-9.615,4.649a2.754,2.754,0,0,1-2.573-1.6,45.372,45.372,0,0,0-9.778,0c-2.573.429-8.62-2.638-12.369-4.718l-.429-.24,2.067-2.483,42.544,2.3s1.059,1.634,2.1,3.251Z" transform="translate(186.763 118.712)" opacity="0.1"/>
      <path id="Path_1829" data-name="Path 1829" d="M195.288,140.9l1.6,10.722a61.766,61.766,0,0,0-6.712-1.647c-2.239-.395-4.4-.545-5.31.039-2.243,1.445-7.69,4.649-9.615,4.649a2.753,2.753,0,0,1-2.573-1.6,45.372,45.372,0,0,0-9.778,0c-2.573.429-8.62-2.638-12.369-4.718-1.874-1.046-3.174-1.844-3.174-1.844l2.4-8.5,7.372-7.853,1.119-11.37,1.758-13.136,2.745-8,4.932-11.721.879-2.076s.961.566,2.376,1.321c.656.347,1.407.738,2.209,1.128,3.054,1.5,6.806,3.032,8.5,2.518,0,0,7.921-2.32,13.471-4.422,2.573-.978,4.615-1.9,5.146-2.526a.561.561,0,0,0,.133-.262c0-.159.034-.039.069.313.343,3.538,1.535,30.613,1.535,30.613Z" transform="translate(185.198 81.608)" fill="#a36468"/>
      <path id="Path_1830" data-name="Path 1830" d="M177.83,112.911,171.1,141.277,172.7,152a61.746,61.746,0,0,0-6.712-1.647c-.382-4.4-.819-11.82.343-14.3,1.681-3.607,2.642-15.011,2.642-15.011l1.973-36.27.193-3.508a26.2,26.2,0,0,1,4.954.982l.2.051C176.637,85.836,177.83,112.911,177.83,112.911Z" transform="translate(209.385 81.228)" opacity="0.1"/>
      <path id="Path_1831" data-name="Path 1831" d="M182.8,120.843c-4.194,1.261-9.864,2.642-10.443,1.149-.429-1.029-.382-3.341-.3-5.867,2.046.146,5.116.553,5.575,1.66S180.96,119.7,182.8,120.843Z" transform="translate(217.903 127.515)" opacity="0.1"/>
      <path id="Path_1832" data-name="Path 1832" d="M171.963,81.264c.36-.244,13.462,2.642,15.264,5.288s2.766,1.441,3,10.7,1.321,12.618,1.321,12.618v12.982s-1.321,8.535,0,10.816,1.081,11.777,1.081,11.777-1.8,9.006,1.081,11.9,3,8.29,3,8.29-14.063,5.048-15.011,2.646.48-11.777-.6-14.543-3.247-10.456-3.247-10.456-1.2-5.768,0-6.862-1.681-8.895-1.681-8.895a9.259,9.259,0,0,0-1.081,5.168c.24,3,0,9.5,0,9.5s1.96,6.249,1.643,9.255,4.718,6.249,4.006,7.45a14.879,14.879,0,0,0-1.205,3.431s6.733.064,7.454,1.746,6.249,2.5,6.729,4.855,5.528,3.079,4.207,7.046-.48,17.545-.48,17.545-24.279-3-21.632-14.063,15.144-6.129,15.144-6.129-9.959-5.884-15.748-5.164-8.054-14.423-8.054-14.423-1.681-14.063,0-17.665S169.8,121.06,169.8,121.06Z" transform="translate(210.483 81.228)" fill="#67647e"/>
      <path id="Path_1833" data-name="Path 1833" d="M173.546,115.41s.6-1.141,4.868-.429,6.433-.236,6.433-.236S176.192,118.6,173.546,115.41Z" transform="translate(219.956 125.683)" opacity="0.1"/>
      <path id="Path_1834" data-name="Path 1834" d="M175.93,91.248c-.06.18,3.127,4.868.721,8.655s-4.387,9.864-4.808,11-1,2.886-1,2.886" transform="translate(216.371 94.498)" opacity="0.1"/>
      <path id="Path_1835" data-name="Path 1835" d="M170.894,78.776s11.3,8.475,11.237,12.437a4.6,4.6,0,0,1-3.431,1.261c-2.35,0-6.549-1.141-7.029-3.787s-2.286,0-1.261,1.385,1.621,2.1,1.621,2.1,10.692,2.946,12.738,4.327-.858,3-.858,3-3,5.408-2.822,6.309-7.394,12.678-7.394,12.678-2.522,12.742-2.4,15.144.3,7.505.3,7.505l-4.8,6.622s-1.175-20.427-.395-23.189,2.882-20.131,2.882-20.131,2.406-10.58,1.445-11.781-1.287-4.928-1.287-4.928Z" transform="translate(210.111 77.944)" opacity="0.05"/>
      <path id="Path_1836" data-name="Path 1836" d="M170.421,78.569s11.3,8.475,11.241,12.437a4.607,4.607,0,0,1-3.431,1.261c-2.346,0-6.549-1.141-7.029-3.787s-2.286,0-1.265,1.385,1.625,2.1,1.625,2.1,10.692,2.946,12.738,4.327-.858,3-.858,3-3,5.412-2.826,6.313-7.368,12.7-7.368,12.7-2.526,12.742-2.4,15.144.3,7.505.3,7.505l-3.86,6.613s-2.144-20.427-1.355-23.194,2.882-20.131,2.882-20.131,2.406-10.576,1.441-11.777-1.287-4.928-1.287-4.928Z" transform="translate(209.619 77.67)" fill="#67647e"/>
      <path id="Path_1837" data-name="Path 1837" d="M170.421,78.569s11.3,8.475,11.241,12.437a4.607,4.607,0,0,1-3.431,1.261c-2.346,0-6.549-1.141-7.029-3.787s-2.286,0-1.265,1.385,1.625,2.1,1.625,2.1,10.692,2.946,12.738,4.327-.858,3-.858,3-3,5.412-2.826,6.313-7.368,12.7-7.368,12.7-2.526,12.742-2.4,15.144.3,7.505.3,7.505l-3.86,6.613s-2.144-20.427-1.355-23.194,2.882-20.131,2.882-20.131,2.406-10.576,1.441-11.777-1.287-4.928-1.287-4.928Z" transform="translate(209.619 77.67)" opacity="0.12"/>
      <path id="Path_1838" data-name="Path 1838" d="M173.584,83.021a7.446,7.446,0,0,1-.429,1.69c-.429,1.33-1.132,3.135-1.715,4.979-.858,2.852-3.478,7.994-5.048,12.866s-3.9,15.259-3.9,15.259.48,9.555-2.7,11.961-6.793,11.237-6.793,11.237-1.141,2.946-2.475,5.751c-1.874-1.046-3.174-1.844-3.174-1.844l2.4-8.5,7.372-7.853,1.145-11.378,1.758-13.136,2.745-8L167.7,84.337c1.329-.1,2.213-.176,2.213-.176s.45-.27,1.042-.579C172.057,83.012,173.623,82.334,173.584,83.021Z" transform="translate(185.183 83.195)" opacity="0.1"/>
      <path id="Path_1839" data-name="Path 1839" d="M175.876,84.384s-11.151.948-13.643.66-1.441,5.348-1.441,5.348-1.938,11.477-1.51,12.695,2.7,10.216,1.321,12.382-5.648,13.4-5.648,13.4-1.381,4.988-2.573,9.976-4.023,14.539-4.748,15.384-6.871,11.9-6.172,13.617,10.164-14.582,12.073-16.04,5.455-10.576,5.455-10.576,3.6-8.835,6.789-11.237,2.706-11.961,2.706-11.961,2.342-10.4,3.9-15.264,4.186-10.01,5.048-12.866,2.046-5.575,2.106-6.673S175.876,84.384,175.876,84.384Z" transform="translate(177.303 83.457)" opacity="0.05"/>
      <path id="Path_1840" data-name="Path 1840" d="M176.283,84.167s-11.151.948-13.642.66-1.441,5.348-1.441,5.348-1.921,11.477-1.5,12.678,2.7,10.216,1.321,12.382-5.648,13.42-5.648,13.42-1.381,4.988-2.573,9.976-4.027,14.543-4.748,15.388-6.862,11.914-6.172,13.647,10.164-14.612,12.073-16.053,5.455-10.576,5.455-10.576,3.607-8.835,6.789-11.237,2.706-11.961,2.706-11.961,2.342-10.4,3.907-15.264,4.182-10.01,5.048-12.866,2.041-5.575,2.1-6.673S176.283,84.167,176.283,84.167Z" transform="translate(177.856 83.194)" fill="#67647e"/>
      <path id="Path_1841" data-name="Path 1841" d="M176.283,84.167s-11.151.948-13.642.66-1.441,5.348-1.441,5.348-1.921,11.477-1.5,12.678,2.7,10.216,1.321,12.382-5.648,13.42-5.648,13.42-1.381,4.988-2.573,9.976-4.027,14.543-4.748,15.388-6.862,11.914-6.172,13.647,10.164-14.612,12.073-16.053,5.455-10.576,5.455-10.576,3.607-8.835,6.789-11.237,2.706-11.961,2.706-11.961,2.342-10.4,3.907-15.264,4.182-10.01,5.048-12.866,2.041-5.575,2.1-6.673S176.283,84.167,176.283,84.167Z" transform="translate(177.856 83.194)" opacity="0.12"/>
      <path id="Path_1842" data-name="Path 1842" d="M155.818,96.089s1.372,6.918-.9,10.19S155.157,97.565,155.818,96.089Z" transform="translate(193.995 100.923)" opacity="0.1"/>
      <path id="Path_1843" data-name="Path 1843" d="M170.348,105.916s-6.369,1.141-8.47,4.507S170.348,105.916,170.348,105.916Z" transform="translate(204.104 113.965)" opacity="0.1"/>
      <path id="Path_1844" data-name="Path 1844" d="M169.234,108.859s-8.11,2.573-6.609,3.487,5.146-.721,6.189-.429S169.234,108.859,169.234,108.859Z" transform="translate(205.217 117.871)" opacity="0.1"/>
      <path id="Path_1845" data-name="Path 1845" d="M142.832,143.754c-1.111,1.167-1.818,2-1.818,2l-8.663-3.367,1.124-2.963.193-.382a.09.09,0,0,1,.064,0c.51.352,4.349,2.822,4.349,2.822Z" transform="translate(165.281 157.921)" opacity="0.1"/>
      <path id="Path_1846" data-name="Path 1846" d="M149.025,142.3s-3.838-2.466-4.353-2.826-4.242,4.452-4.242,4.452a66.779,66.779,0,0,0-3.182,6c-.12.716-2.466,1.2-2.573,1.741a35.777,35.777,0,0,1-2.886,4.027s-1.561,4.087-4.323,5.146-5.713,3.727-1.926,6.729,11.357,4.688,11.357,4.688,4.808-4.988,5.773-7.329a44.633,44.633,0,0,1,3.723-6.249,30.807,30.807,0,0,0,1.926-4.628c.24-1.261,5.755-9.753,5.755-9.753Z" transform="translate(153.856 158.471)" fill="#444053"/>
      <path id="Path_1847" data-name="Path 1847" d="M180.773,140.39l-8.535,4.207L171.1,143.25a36.623,36.623,0,0,0,4.1-2.1l4.932-2.119C180.529,139.914,180.773,140.39,180.773,140.39Z" transform="translate(216.713 157.915)" opacity="0.1"/>
      <path id="Path_1848" data-name="Path 1848" d="M175.945,141.607s-3.808,2.247-4.808,2.286,1.4,2.723,1.4,2.723,1.883,2.6,1.8,3.886,2.363,4.366,2.363,4.366,4.169,7.171,3.886,9.658-2.685,9.006,3,7.72,11.777-1.926,11.657-4.851-2.573-8.011-2.573-8.011l-2.522-5.147a44.765,44.765,0,0,1-3.645-5.61c-1.119-2.286-4.6-9.581-4.6-9.581Z" transform="translate(216.437 157.937)" fill="#444053"/>
      <path id="Path_1849" data-name="Path 1849" d="M163.056,94.448c5.4-2.063,4.242-7.334,1.715-12.133a14.315,14.315,0,0,1-6.772-5.3c-1.621.7-3.092,2.65-2.483,4.259a6.09,6.09,0,0,0,.9,1.368,9.187,9.187,0,0,1-.755,11.55c-.459.472-1.012.974-1.008,1.634,0,.815.858,1.347,1.613,1.621a10.538,10.538,0,0,0,3.088.618C158.939,96.939,159.775,95.7,163.056,94.448Z" transform="translate(194.884 75.606)" fill="#e3787d"/>
      <path id="Path_1850" data-name="Path 1850" d="M173.013,116.138s5.768.227,7.69,1.51a7.639,7.639,0,0,1,2.672,3.178" transform="translate(219.25 127.532)" opacity="0.1"/>
      <g id="Group_943" data-name="Group 943" transform="translate(349.491 154.404)" opacity="0.1">
        <path id="Path_1851" data-name="Path 1851" d="M155.97,81.735a9.224,9.224,0,0,1,.965,8.921,9.26,9.26,0,0,0-.485-9.886,5.805,5.805,0,0,1-.9-1.368,2.393,2.393,0,0,1,0-1.621,2.822,2.822,0,0,0-.48,2.573A5.921,5.921,0,0,0,155.97,81.735Z" transform="translate(-154.22 -77.78)"/>
        <path id="Path_1852" data-name="Path 1852" d="M159.313,87a10.459,10.459,0,0,1-2.573-.575c-.763-.279-1.608-.811-1.613-1.625a1.2,1.2,0,0,1,0-.124,1.681,1.681,0,0,0-.493,1.089c0,.815.858,1.347,1.613,1.621a10.538,10.538,0,0,0,3.088.618,1.419,1.419,0,0,1-.021-1Z" transform="translate(-154.634 -68.63)"/>
        <path id="Path_1853" data-name="Path 1853" d="M160.588,85.425c-2.573.991-3.65,1.969-3.774,2.886a8.314,8.314,0,0,1,3.294-1.926,5.462,5.462,0,0,0,3.487-3.217,5.961,5.961,0,0,1-3.006,2.256Z" transform="translate(-151.741 -70.629)"/>
      </g>
      <path id="Path_1854" data-name="Path 1854" d="M176.1,83.492c-1.93,3.564-8.243,5.245-8.457,5.245a14.154,14.154,0,0,1-4.447-.7,49.691,49.691,0,0,0-7.209-10.465s22.555-9.976,19.99.429a10.489,10.489,0,0,0,.125,5.49Z" transform="translate(196.652 70.629)" opacity="0.1"/>
      <path id="Path_1855" data-name="Path 1855" d="M183.4,81.505a14.264,14.264,0,0,1-13.118,14.217c-.374.03-.76.047-1.146.047A14.264,14.264,0,1,1,183.4,81.505Z" transform="translate(195.165 62.636)" fill="#efb7b9"/>
      <path id="Path_1856" data-name="Path 1856" d="M181,81.5a14.264,14.264,0,0,1-13.118,14.217,20.493,20.493,0,0,1-5.075-6.785,6.466,6.466,0,0,1-.931-3.525c.12-1.068.733-2.029.918-3.092.3-1.715-.575-3.457-1.48-4.975a18.914,18.914,0,0,0-2.852-4.152c-.635-.588-1.222-1.175-1.793-1.788A14.264,14.264,0,0,1,181,81.5Z" transform="translate(197.56 62.639)" opacity="0.1"/>
      <path id="Path_1857" data-name="Path 1857" d="M157.222,73.678a5.56,5.56,0,0,1-1.522-3.131,4.379,4.379,0,0,1,1.287-2.933,5.438,5.438,0,0,1,3-1.831,16.446,16.446,0,0,1,2.3-.056,17.589,17.589,0,0,0,3.761-.691c4.542-1.141,9.594-1.587,13.694.682,3.259,1.8,5.442,5.065,7.154,8.376a9.778,9.778,0,0,1,1.347,4.182,16.474,16.474,0,0,1-.721,3.916,1.677,1.677,0,0,0-.034.8c.184.66,1,.858,1.63,1.136a4.867,4.867,0,0,1,2.44,2.8,14.313,14.313,0,0,1,.708,3.74,5.147,5.147,0,0,1-.137,2.389c-.528,1.342-2.016,1.973-3.315,2.595a10.545,10.545,0,0,0-3.83,2.826,5.1,5.1,0,0,0-1.038,4.5,5.391,5.391,0,0,0,2.783,3.049,16.631,16.631,0,0,0,4.032,1.265,4.473,4.473,0,0,1,1.715.639,2.955,2.955,0,0,1,.249,4.074,6.121,6.121,0,0,1-4,1.943,14.62,14.62,0,0,1-9.607-2.033,7.505,7.505,0,0,1-3.77-4.67c-.244-1.257,0-2.616-.515-3.783-.682-1.518-2.393-2.2-3.813-3.066-2.9-1.776-4.9-4.718-6.433-7.754a6.4,6.4,0,0,1-.935-3.525c.12-1.068.733-2.029.918-3.088.3-1.746-.575-3.457-1.48-4.979a18.9,18.9,0,0,0-2.852-4.156,29.6,29.6,0,0,1-3.019-3.216Z" transform="translate(196.27 58.463)" fill="#e3787d"/>
      <g id="Group_944" data-name="Group 944" transform="translate(352.015 124.417)" opacity="0.1">
        <path id="Path_1858" data-name="Path 1858" d="M171.995,77.469a13.812,13.812,0,0,0-2.509,1.518q.528-.3,1.068-.553a10.264,10.264,0,0,0,2.522-1.488C172.715,77.147,172.351,77.3,171.995,77.469Z" transform="translate(-137.447 -48.901)"/>
        <path id="Path_1859" data-name="Path 1859" d="M190.168,111.763a14.625,14.625,0,0,1-9.607-2.033,7.505,7.505,0,0,1-3.77-4.67c-.24-1.257,0-2.616-.515-3.783-.678-1.518-2.393-2.2-3.813-3.066-2.9-1.776-4.9-4.718-6.433-7.754a6.4,6.4,0,0,1-.935-3.525c.12-1.068.733-2.029.918-3.088.3-1.746-.575-3.457-1.48-4.979a18.309,18.309,0,0,0-2.848-4.156,29.214,29.214,0,0,1-3-3.2,5.561,5.561,0,0,1-1.522-3.131,4.379,4.379,0,0,1,1.287-2.934A6.577,6.577,0,0,1,159,64.9a6.188,6.188,0,0,0-1.99,1.505,4.3,4.3,0,0,0-1.287,2.934,5.6,5.6,0,0,0,1.527,3.131,28.417,28.417,0,0,0,3,3.2,18.17,18.17,0,0,1,2.848,4.156c.9,1.522,1.788,3.234,1.484,4.979-.184,1.059-.8,2.02-.918,3.088a6.4,6.4,0,0,0,.935,3.525c1.531,3.036,3.53,5.979,6.433,7.754,1.415.858,3.131,1.553,3.808,3.066.528,1.167.274,2.526.515,3.783a7.519,7.519,0,0,0,3.77,4.67,14.629,14.629,0,0,0,9.607,2.033,6.506,6.506,0,0,0,3.663-1.574,8.427,8.427,0,0,1-2.226.613Z" transform="translate(-155.718 -64.895)"/>
      </g>
    </g>
  </g>
</svg>
