<svg xmlns="http://www.w3.org/2000/svg" width="637.863" height="207.675" viewBox="0 0 637.863 207.675">
  <path id="Path_983" data-name="Path 983" d="M-25.474,637.38,161.751,533.118c12.678-7.061,25.656-14.36,34.389-24.726s12.4-24.642,5.052-35.718c-7.878-11.878-26.491-16.787-42.631-14.389C133.584,462,118.99,475.41,116.472,478.214c-4.51,5.022-12.112,13.485-9.163,23.112,1.525,4.975,6.157,11.211,13.563,12.8,10.485,2.252,21.1-5.972,25.673-11.6,12.185-14.993,5.892-41.542-11.5-50.376-24.074-12.232-74.415,8.076-78.548,35.011-3.949,25.738,19.525,49.474,46.8,62.342s58.745,18.227,87.422,28.818c23.96,8.849,48.6,25.644,46.484,47.249-1.386,14.156-16.319,26.775-33.489,27.561s-34.026-10.987-35.144-25.159c-1.43-18.12,18.875-31.717,37.055-41.932l128.236-72.06c8.736-4.908,17.714-10.02,23.4-17.374s7.263-17.61.9-24.576c-8.677-9.5-28.481-7.579-37.341,1.8s-8.235,23.042-2.365,33.907,16.125,19.62,25.953,28.319,19.66,17.907,24.341,29.159c3.744,9-2.706,20.785-9.538,22.088-7.711,1.473-20.3-9.555-20.371-15.973-.137-13.212,52.553-31.553,272.65-55.121" transform="translate(26.204 -446.999)" fill="none" stroke="#d63031" stroke-miterlimit="10" stroke-width="3" opacity="0.2"/>
</svg>
