<svg xmlns="http://www.w3.org/2000/svg" width="495.128" height="129.855" viewBox="0 0 495.128 129.855">
  <path id="Path_981" data-name="Path 981" d="M-1.426,473.838c4.849-10.215,14.235-19.59,26.2-20.68S45.848,473.6,45.848,473.6s11.835-22.444,24.575-24.057,26.151,5.865,30.609,17.069a13.622,13.622,0,0,1,5.058-16,16.259,16.259,0,0,1,17.946.179c2.672,1.921,4.551,4.616,6.842,6.923,9.113,9.177,24.2,11.42,37.341,8.8s24.842-9.337,36.249-15.94c4.78-2.767,9.7-5.655,12.883-9.971s4.177-10.482.822-14.685c-4.6-5.763-15.333-4.429-19.846,1.394s-3.69,14.082-.1,20.434c6.08,10.742,18.948,17.146,31.919,18.6s26.074-1.417,38.406-5.426a196.96,196.96,0,0,0,79.664-49.029c6.677-6.831,13-14.56,14.653-23.657s-2.832-19.746-12.208-22.79c-13.047-4.236-25.559,7.526-32.109,18.831-3.831,6.612-6.5,15.984-.193,20.678,4.914,3.655,12.818,1.539,16.549-3.17s4.113-11.043,3.224-16.831c-2.5-16.259-15.667-31.641-33.132-34.188s-36.665,11.21-35.3,27.585c.942,11.3,10.15,20.289,18.823,28.256l36.824,33.825c7.045,6.471,14.216,13.031,22.923,17.423,22.153,11.175,49.732,6.257,73.062-2.613s45.407-21.475,70.238-25.516" transform="translate(3.233 -348.405)" fill="none" stroke="#fdcb6e" stroke-miterlimit="10" stroke-width="4" opacity="0.4"/>
</svg>
