<svg xmlns="http://www.w3.org/2000/svg" xmlns:xlink="http://www.w3.org/1999/xlink" width="404" height="304.731" viewBox="0 0 404 304.731">
  <defs>
    <linearGradient id="linear-gradient" x1="0.877" y1="1" x2="0.877" gradientUnits="objectBoundingBox">
      <stop offset="0" stop-color="gray" stop-opacity="0.251"/>
      <stop offset="0.54" stop-color="gray" stop-opacity="0.122"/>
      <stop offset="1" stop-color="gray" stop-opacity="0.102"/>
    </linearGradient>
    <linearGradient id="linear-gradient-2" x1="0.5" y1="1" x2="0.5" y2="0" xlink:href="#linear-gradient"/>
  </defs>
  <g id="undraw_work_chat_erdt" transform="translate(-0.016 -0.004)">
    <path id="Tracé_1479" data-name="Tracé 1479" d="M309.884,85.229c-17.335,14.715-39.821,13.763-59.525,6.106s-37.8-21.286-57-30.975a160.038,160.038,0,0,0-50.079-15.829c-24.468-3.4-51.792.75-68.839,24.528-18.984,26.492-17.526,74.274,3,98.577,10.446,12.369,24.123,18.441,36.05,28.111s22.973,25.7,21.957,44.341c-.941,17.242-11.874,30.5-23.19,38.809-8.744,6.421-19.513,13.433-20.566,26.736-1.02,12.867,8.036,22.954,16.683,28.689,28.209,18.707,62.969,18.527,91.081-.472,10.023-6.78,19.228-15.8,29.742-21.076,27.605-13.868,58.025.09,87.257,5.2a145.2,145.2,0,0,0,74.214-6.552c14.475-5.184,29.007-13.119,39.176-27.871,7.335-10.645,11.9-24.119,16.192-37.425q6.859-21.278,13.19-42.864c2.53-8.64,5.022-17.444,5.678-26.683,1.184-16.747-3.808-33.3-10.607-47.433C438.151,95.585,410.961,71.99,381.516,66s-60.6,5.712-83.434,31.327" transform="translate(-61.06 -43.49)" fill="#f92626" opacity="0.1"/>
    <ellipse id="Ellipse_364" data-name="Ellipse 364" cx="85.076" cy="3.883" rx="85.076" ry="3.883" transform="translate(98.429 195.721)" fill="#f92626" opacity="0.1"/>
    <path id="Tracé_1480" data-name="Tracé 1480" d="M414.35,275.94a77.13,77.13,0,1,1,77.119-77.13A77.216,77.216,0,0,1,414.35,275.94Zm0-153.51a76.38,76.38,0,1,0,76.38,76.38A76.467,76.467,0,0,0,414.35,122.43Z" transform="translate(-233.701 -92.37)" fill="#fff"/>
    <path id="Tracé_1481" data-name="Tracé 1481" d="M443.215,287.5a59.821,59.821,0,1,1,59.821-59.821A59.894,59.894,0,0,1,443.215,287.5Zm0-118.892a59.071,59.071,0,1,0,59.071,59.071A59.139,59.139,0,0,0,443.215,168.61Z" transform="translate(-262.566 -121.241)" fill="#fff"/>
    <path id="Tracé_1482" data-name="Tracé 1482" d="M474.23,299.92a41.23,41.23,0,1,1,41.23-41.23A41.23,41.23,0,0,1,474.23,299.92Zm0-81.71a40.48,40.48,0,1,0,40.48,40.48,40.48,40.48,0,0,0-40.48-40.48Z" transform="translate(-293.581 -152.25)" fill="#fff"/>
    <ellipse id="Ellipse_365" data-name="Ellipse 365" cx="5.349" cy="1.769" rx="5.349" ry="1.769" transform="translate(361.978 149.345)" fill="#f92626" opacity="0.1"/>
    <ellipse id="Ellipse_366" data-name="Ellipse 366" cx="31.5" cy="5.169" rx="31.5" ry="5.169" transform="translate(35.434 239.147)" fill="#f92626" opacity="0.1"/>
    <g id="Groupe_924" data-name="Groupe 924" transform="translate(21.029 101.098)" opacity="0.1">
      <path id="Tracé_1483" data-name="Tracé 1483" d="M218.262,313.21h-96.1a5.038,5.038,0,0,0-5.023,5.022v60.72a5.038,5.038,0,0,0,5.023,5.023h75.387s1.953,10.367-4.464,11.484c0,0,14.37,1.031,11.859-11.484h13.317a5.038,5.038,0,0,0,5.023-5.023v-60.72A5.038,5.038,0,0,0,218.262,313.21Z" transform="translate(-117.14 -313.21)"/>
      <g id="Groupe_923" data-name="Groupe 923" transform="translate(14.146 16.117)" opacity="0.2">
        <rect id="Rectangle_1613" data-name="Rectangle 1613" width="77.849" height="4.745" rx="2.373"/>
        <rect id="Rectangle_1614" data-name="Rectangle 1614" width="77.849" height="4.745" rx="2.373" transform="translate(0 21.207)"/>
        <rect id="Rectangle_1615" data-name="Rectangle 1615" width="65.286" height="4.745" rx="2.373" transform="translate(0 31.807)"/>
        <rect id="Rectangle_1616" data-name="Rectangle 1616" width="33.756" height="4.745" rx="2.373" transform="translate(0 10.604)"/>
      </g>
    </g>
    <path id="Tracé_1484" data-name="Tracé 1484" d="M220.5,312.09h-96.1a5.038,5.038,0,0,0-5.023,5.022v60.72a5.038,5.038,0,0,0,5.023,5.023h75.387s1.957,10.367-4.464,11.481c0,0,14.37,1.031,11.859-11.481H220.5a5.034,5.034,0,0,0,5.019-5.023v-60.72A5.034,5.034,0,0,0,220.5,312.09Z" transform="translate(-97.505 -211.412)" fill="#fff"/>
    <g id="Groupe_925" data-name="Groupe 925" transform="translate(36.015 116.796)" opacity="0.2">
      <rect id="Rectangle_1617" data-name="Rectangle 1617" width="77.849" height="4.745" rx="2.373" fill="#f92626"/>
      <rect id="Rectangle_1618" data-name="Rectangle 1618" width="77.849" height="4.745" rx="2.373" transform="translate(0 21.207)" fill="#f92626"/>
      <rect id="Rectangle_1619" data-name="Rectangle 1619" width="65.286" height="4.745" rx="2.373" transform="translate(0 31.811)" fill="#f92626"/>
      <rect id="Rectangle_1620" data-name="Rectangle 1620" width="33.756" height="4.745" rx="2.373" transform="translate(0 10.604)" fill="#f92626"/>
    </g>
    <path id="Tracé_1485" data-name="Tracé 1485" d="M261.866,299.148l-5.326,11.327a9.7,9.7,0,0,1-1.293,2.519c-.506.394-2.744,7.122-2.744,7.122l-5.708,8.823h0l-.375.6-2.249-.618-1.571-5.873.1-1.705v-.214s3.535-3.7,4.318-3.977c0,0,.615.071,1.8-2.792s2.249-3.486,2.249-3.486l.615-2.077,6.619-10.536s5.547-7.957,7.058-4.427S261.866,299.148,261.866,299.148Z" transform="translate(-174.546 -199.433)" fill="#ffd2c6"/>
    <path id="Tracé_1486" data-name="Tracé 1486" d="M209.673,518.737a1.274,1.274,0,0,1-.18.543c-.615.9-4.089,19.224-4.089,19.224.277,1.237-.5,3.7-1.012,4.824a69.39,69.39,0,0,0-1.627,6.949s-.277,12.556-1,14.517.232,6.166.232,6.166a9.439,9.439,0,0,0,1.78,5.019c.052.067.094.135.135.191.225.322.375.506.375.506a2.92,2.92,0,0,0,.783.971c.049.041.1.079.157.12a8.925,8.925,0,0,0,3.141,1.327l.109.022c.45.1.75.139.75.139l.277,1.5-2.969.615-5.66.375s-6.672.506-5.158-2.466a4.7,4.7,0,0,0,.274-.63h0c.056-.142.109-.292.154-.442a15.385,15.385,0,0,0,.3-6.327l-1.3-10.1c-2.125-9.416,1.679-19.9,1.679-19.9s-.334-.84.4-2.969,0-6.781,0-6.781-.375-6-.9-8.969a18.123,18.123,0,0,1-.2-3.774,18.847,18.847,0,0,1,.2-2.211L209.1,515.48A9.86,9.86,0,0,1,209.673,518.737Z" transform="translate(-144.467 -338.567)" fill="#ffd2c6"/>
    <path id="Tracé_1487" data-name="Tracé 1487" d="M211.133,681.234l-2.969.615-5.66.375s-6.672.506-5.157-2.466a4.7,4.7,0,0,0,.274-.63h0c.056-.143.109-.292.154-.442a10.268,10.268,0,0,1,3.373.682c1.9.75,3.332-1.181,3.332-1.181l.922-1.762.135-.255c.225.322.375.506.375.506a3,3,0,0,0,.941,1.087l-.157.33-.9,1.874s1.147.116,2.717.375a1.214,1.214,0,0,0,1.477-.81l.109.022c.45.1.75.139.75.139Z" transform="translate(-146.115 -439.028)" opacity="0.1"/>
    <path id="Tracé_1488" data-name="Tracé 1488" d="M213.072,683.4c-.225,1.008-6.473,1.319-6.473,1.319s-3.478-.337-4.453.476-3.846.618-3.958.618-1.623-.06-2.215-2.774c-.573-2.646.772-3.107.84-3.13h0a10.169,10.169,0,0,1,3.535.686c1.9.75,3.332-1.177,3.332-1.177l1.057-2.02c.225.322.375.506.375.506a2.961,2.961,0,0,0,.941,1.091L205,681.212s1.147.116,2.717.375a1.3,1.3,0,0,0,1.586-1.233,1.269,1.269,0,0,0,0-.169s.978.281,2.181.618A2.249,2.249,0,0,1,213.072,683.4Z" transform="translate(-145.307 -439.797)" fill="#626696"/>
    <path id="Tracé_1489" data-name="Tracé 1489" d="M249.911,529.685c-.15.9-.3,3.216-.3,3.216.525,1.942-.821,6.556-.821,6.556l-.671,2.624c.3,3.373-1.848,11.586-1.848,11.586s-1.439,7.624-2.189,10.915a9.074,9.074,0,0,0,.375,5.495c.037.09.06.135.06.135a.629.629,0,0,0,.045.184c.019.06.049.18.079.266a4.047,4.047,0,0,0,.75,1.252,3.789,3.789,0,0,0,.4.412l.023.023a8.113,8.113,0,0,0,2.384,1.465h0l.375.15a11.269,11.269,0,0,0,1.188.375h0a1.274,1.274,0,0,0,.135.03l-.3,1.762-3.958-1.012-5.3-1.72-2.624-1.5s.03-.142.082-.416v-.045c.023-.116.045-.255.079-.412.446-2.286,1.462-8.771.952-13.531-.633-5.9,1.825-14.052,2.425-15.993a9.7,9.7,0,0,0,.45-3.437c-.975-1.424-1.2-7.1-1.2-7.1s-1.792-3.666-3.276-7.553a19.865,19.865,0,0,1-1.068-3.928,13.737,13.737,0,0,1-.217-2.871s12.039-10.986,13.358-.349c.045.375.086.7.127,1.042C250.57,527.027,250.053,528.819,249.911,529.685Z" transform="translate(-170.372 -336.156)" fill="#ffd2c6"/>
    <path id="Tracé_1490" data-name="Tracé 1490" d="M252.909,672.117l-.3,1.762-3.958-1.012-5.3-1.72-2.624-1.5s.03-.142.082-.416v-.045c.022-.116.045-.255.079-.412l.375-.038h.03a4.992,4.992,0,0,1,2.223.3c.862.326,1.994.7,2.226.54a2.834,2.834,0,0,1,1.271-.225l.551-1.207.079-.184a4,4,0,0,0,.75,1.252,4.223,4.223,0,0,0,.424.435l-.023.427-.03.6a7.714,7.714,0,0,0,1.9.881,1.1,1.1,0,0,0,.532,0h0l.375.15a11.257,11.257,0,0,0,1.188.375h0A1.225,1.225,0,0,0,252.909,672.117Z" transform="translate(-173.371 -433.895)" opacity="0.1"/>
    <path id="Tracé_1491" data-name="Tracé 1491" d="M250.306,676.626c-1.106-.319-3.771-.825-4.2-.431s-4.123,0-4.123,0a2.249,2.249,0,0,1-1.908-1.125c-.75-1.2-.146-5.064-.146-5.064l.274-.026.457-.045h.03a4.936,4.936,0,0,1,2.223.3,5.319,5.319,0,0,0,2.226.54,2.78,2.78,0,0,1,1.271-.225l.63-1.391a4.049,4.049,0,0,0,.75,1.252,4.244,4.244,0,0,0,.424.435l-.052,1.031a7.756,7.756,0,0,0,1.9.877.75.75,0,0,0,.915-.289.565.565,0,0,0,.067-.154h0a6.437,6.437,0,0,0,1.563.521h0a2.861,2.861,0,0,1,3.051,2.2C256.22,676.746,251.389,676.941,250.306,676.626Z" transform="translate(-172.731 -434.646)" fill="#626696"/>
    <path id="Tracé_1492" data-name="Tracé 1492" d="M212.393,518.718c-.247.071-.472.139-.682.206a9.456,9.456,0,0,1-1.653.349,68.883,68.883,0,0,1-11.218.083,18.855,18.855,0,0,1,.2-2.212l12.781-1.694A10.014,10.014,0,0,1,212.393,518.718Z" transform="translate(-147.188 -338.549)" opacity="0.1"/>
    <path id="Tracé_1493" data-name="Tracé 1493" d="M221.655,486.544s-4.693.727-8.508,1.563c-1.274.277-2.451.566-3.321.851a10.207,10.207,0,0,1-1.653.349c-4.25.6-11.8.045-11.8.045-2.073-6.724,2.519-15.191,2.519-15.191a8.524,8.524,0,0,1,.956-2.744l.019-.067.652-2.4h17.433l.214,1.031.442,2.1,2.736,12.995Z" transform="translate(-145.31 -309.478)" fill="#626696"/>
    <path id="Tracé_1494" data-name="Tracé 1494" d="M249.416,517.294l-.1.045-2.039.9c-2.208,1.02-8.816,1.211-11.125,1.229a13.736,13.736,0,0,1-.217-2.871s12.039-10.986,13.358-.348C249.334,516.631,249.375,516.957,249.416,517.294Z" transform="translate(-170.372 -336.15)" opacity="0.1"/>
    <path id="Tracé_1495" data-name="Tracé 1495" d="M231.626,489.6l-.427.187-2.039.907c-2.249,1.034-9.067,1.218-11.245,1.229h-.574a2.626,2.626,0,0,1-2.016-1.226c0-.135-.1-.8-.195-1.368-.075-.457-.142-.851-.142-.851a52.358,52.358,0,0,1-6.78-3.512c-1.713-1.166-1.282-9.449-.948-13.613.116-1.436.217-2.38.217-2.38L225.123,470l2.474.142,1.417.315.375.079s1.012,7.4,1.5,8.014.172,2.691.112,3.872a7.189,7.189,0,0,1-.165,1.5,9.269,9.269,0,0,1,.555,3.238,6.459,6.459,0,0,0,.236,2.436Z" transform="translate(-152.26 -309.49)" fill="#626696"/>
    <circle id="Ellipse_367" data-name="Ellipse 367" cx="7.23" cy="7.23" r="7.23" transform="translate(53.249 104.202)" fill="#ffd2c6"/>
    <path id="Tracé_1496" data-name="Tracé 1496" d="M203.091,348.787s.5,6.848-.9,8.418a62.576,62.576,0,0,1-5.045,4.539l1.124,4.651,6.334.731,7.4-7.9-1.683-2.073s-1.289-4.374-.225-6.559S203.091,348.787,203.091,348.787Z" transform="translate(-146.131 -234.338)" fill="#ffd2c6"/>
    <path id="Tracé_1497" data-name="Tracé 1497" d="M246.794,375.221h0l-.375.6-2.249-.618-1.571-5.873.1-1.705.461-.663s2.466.06,2.358,2.3C245.407,371.229,246.528,374.471,246.794,375.221Z" transform="translate(-174.546 -245.715)" opacity="0.1"/>
    <path id="Tracé_1498" data-name="Tracé 1498" d="M229.158,471.416s-1.784.4-3.827.663-4.4.4-5.367-.161c-1.623-.96-10.416-.686-12.939-.589a2.885,2.885,0,0,0-.435.019l.652-2.4h17.433l.214,1.031,2.474.142,1.417.315C229.015,471.019,229.158,471.416,229.158,471.416Z" transform="translate(-152.033 -309.478)" opacity="0.1"/>
    <path id="Tracé_1499" data-name="Tracé 1499" d="M205.542,368.15s2.466.056,2.354,2.3,1.346,6.11,1.346,6.11l-.562,1.289s-.783,3.137-.169,3.924,2.86.783,1.57,7.23c0,0-.277,4.82.394,6.391s.671,5.322,1.679,6.893a37.879,37.879,0,0,1,2.358,5.214s-7.29,1.623-9.194.5-13.621-.551-13.621-.551.056-1.964,0-2.185a1.874,1.874,0,0,1,.281-1.432c.375-.532,1.008-1.428.671-2.211s.843-1.942.225-3.156-1.368-1.458-1.218-2.121a2.875,2.875,0,0,0-.686-2.122c-.446-.559-3.478-6.484-3.478-6.484l-.5-2.777s-3.9-2.86-3.831-4.205a7.868,7.868,0,0,1,1.477-3.208l3.748-3.684s2.073,2.249,4.089,1.458,6.368-4.539,6.368-4.539,1.552-.84,1.664-1.454,1.064-.056,1.064-.056,1.4-.768,1.683-.5a4.865,4.865,0,0,0,1.5.5Z" transform="translate(-137.383 -246.459)" fill="#ffcde5"/>
    <path id="Tracé_1500" data-name="Tracé 1500" d="M156.3,399.3l-1.2.933a15.963,15.963,0,0,0-1.5,6.109,83.709,83.709,0,0,1-1.5,9.468l-2.354,4.209s-3.879,8.122-4.382,10.277a26.815,26.815,0,0,1-2.8,5.8s-7.792,7-2.354,8.246,5.6-5.574,5.6-5.574a7.363,7.363,0,0,0,1.477-2.354c.206-.952,7.1-13.145,7.1-13.145s2.414-3.28,1.908-5.015c0,0,3.137-7.38,3.137-9.232a32.786,32.786,0,0,0-.5-4.591l.5-3.868Z" transform="translate(-109.33 -265.934)" fill="#ffd2c6"/>
    <path id="Tracé_1501" data-name="Tracé 1501" d="M218.259,440.53s-5.495,2.875-6.559,3.025,4.651-.6,4.651-.6Z" transform="translate(-155.145 -291.71)" opacity="0.1"/>
    <path id="Tracé_1502" data-name="Tracé 1502" d="M223.875,446.51s-7.286,2.466-10.495,2.016C213.395,448.526,221.352,450.041,223.875,446.51Z" transform="translate(-156.278 -295.449)" opacity="0.1"/>
    <path id="Tracé_1503" data-name="Tracé 1503" d="M225.187,448.66s-6.559,4.123-10.427,3.452c0,0,9.026,1.8,10.427.843l-4.037-1.124S225.637,449.462,225.187,448.66Z" transform="translate(-157.141 -296.793)" opacity="0.1"/>
    <path id="Tracé_1504" data-name="Tracé 1504" d="M188.5,306.563a6.829,6.829,0,0,0-5.517,1.042c-1.124.885-1.874,2.249-3.137,2.894a18.457,18.457,0,0,1-2.05.723,5.915,5.915,0,0,0-3.609,6.372c.2,1.124.72,2.136.975,3.231a12.625,12.625,0,0,1-.442,5.952,62.633,62.633,0,0,1-6.241,15.454,1.619,1.619,0,0,0-.311,1.038,1.5,1.5,0,0,0,.375.663c2.59,3,6.807,4.022,10.765,4.157a8.152,8.152,0,0,0,4.265-.708,6.447,6.447,0,0,0,2.08-1.908,10.12,10.12,0,0,0,1.942-6.526c-.109-1.874-.75-3.782-.266-5.6a1.5,1.5,0,0,1,.337-.686c.427-.435,1.124-.322,1.739-.394,1.645-.191,2.71-1.927,2.9-3.568a40.69,40.69,0,0,0-.225-4.955,10.379,10.379,0,0,1,1.953-6.1,6.58,6.58,0,0,0,1.432-2.44c.232-1.181-.454-2.05-1.046-3-.918-1.454-1.368-3.152-2.766-4.262A7.466,7.466,0,0,0,188.5,306.563Z" transform="translate(-128.01 -207.853)" opacity="0.1"/>
    <path id="Tracé_1505" data-name="Tracé 1505" d="M187.331,305.364a6.819,6.819,0,0,0-5.517,1.046c-1.124.881-1.874,2.249-3.137,2.894a18.1,18.1,0,0,1-2.047.72,5.918,5.918,0,0,0-3.613,6.372c.2,1.124.72,2.136.978,3.235a12.658,12.658,0,0,1-.442,5.948,62.67,62.67,0,0,1-6.229,15.454,1.585,1.585,0,0,0-.307,1.034,1.443,1.443,0,0,0,.375.663c2.594,3,6.807,4.022,10.765,4.157a8.151,8.151,0,0,0,4.265-.7,6.461,6.461,0,0,0,2.08-1.912,10.12,10.12,0,0,0,1.93-6.511c-.109-1.874-.75-3.782-.262-5.6a1.5,1.5,0,0,1,.334-.686c.427-.435,1.124-.322,1.743-.375,1.645-.191,2.706-1.927,2.9-3.572a39.967,39.967,0,0,0-.225-4.955,10.379,10.379,0,0,1,1.949-6.121A6.555,6.555,0,0,0,194.3,314c.232-1.181-.45-2.047-1.042-3-.918-1.454-1.368-3.152-2.77-4.258A7.428,7.428,0,0,0,187.331,305.364Z" transform="translate(-127.29 -207.103)" fill="#985c7e"/>
    <path id="Tracé_1506" data-name="Tracé 1506" d="M214.76,492.62s1.439,6.724,3.831,8.557Z" transform="translate(-157.141 -324.276)" opacity="0.1"/>
    <g id="Groupe_926" data-name="Groupe 926" transform="translate(39.714 104.921)" opacity="0.1">
      <path id="Tracé_1507" data-name="Tracé 1507" d="M183.751,337.763c-.075-.262-.161-.525-.251-.783C183.575,337.242,183.661,337.5,183.751,337.763Z" transform="translate(-177.311 -331.894)"/>
      <path id="Tracé_1508" data-name="Tracé 1508" d="M193.879,323.41a2.434,2.434,0,0,1-.03.634,6.645,6.645,0,0,1-1.432,2.444,10.348,10.348,0,0,0-1.953,6.1,42.266,42.266,0,0,1,.221,4.955c-.195,1.646-1.256,3.373-2.9,3.572-.607.071-1.316-.045-1.739.375a1.5,1.5,0,0,0-.337.686c-.476,1.822.157,3.726.262,5.6a10.12,10.12,0,0,1-1.927,6.511,6.5,6.5,0,0,1-2.08,1.911,8.383,8.383,0,0,1-4.269.7c-3.891-.131-8.029-1.124-10.63-4.014a1.027,1.027,0,0,0-.064.54,1.442,1.442,0,0,0,.375.663c2.594,3,6.807,4.022,10.765,4.157a8.151,8.151,0,0,0,4.265-.7,6.5,6.5,0,0,0,2.08-1.912,10.12,10.12,0,0,0,1.93-6.511c-.109-1.874-.75-3.782-.262-5.6a1.5,1.5,0,0,1,.334-.686c.427-.435,1.124-.322,1.743-.375,1.645-.191,2.706-1.927,2.9-3.572a39.952,39.952,0,0,0-.225-4.955,10.379,10.379,0,0,1,1.949-6.1,6.555,6.555,0,0,0,1.428-2.444,2.778,2.778,0,0,0-.4-1.979Z" transform="translate(-166.989 -323.41)"/>
    </g>
    <path id="Tracé_1509" data-name="Tracé 1509" d="M561.119,807.439s-14.262-.862-12.579,9.131a2.437,2.437,0,0,0,1.267,2.567s.026-.75,1.462-.487a6.562,6.562,0,0,0,1.548.075,3.234,3.234,0,0,0,1.9-.783h0s4.007-1.657,5.566-8.209c0,0,1.154-1.428,1.124-1.8L559,808.964a4.312,4.312,0,0,1,.172,3.178s-.075-3.115-.54-3.04c-.094,0-1.248.6-1.248.6s1.413,3.025.345,5.221c0,0,.4-3.726-.787-5l-1.694.986s1.653,3.126.532,5.675c0,0,.289-3.909-.888-5.431l-1.537,1.2s1.556,3.077.607,5.191c0,0-.124-4.55-.941-4.872a9.218,9.218,0,0,0-1.544,1.668s1.061,2.249.4,3.415c0,0-.4-3.032-.75-3.044a10.09,10.09,0,0,0-1.477,3.374A7.3,7.3,0,0,1,550.8,814.5a4.014,4.014,0,0,0-2.046,1.061s.206-1.42,2.376-1.544a10.243,10.243,0,0,1,1.4-1.615,8.787,8.787,0,0,0-3.467.4s1.151-1.342,3.864-.75l1.5-1.237a12.933,12.933,0,0,0-4.048.041s1.387-1.188,4.457-.322l1.649-.99a14.982,14.982,0,0,0-3.864-.334s1.522-.821,4.348.071l1.181-.532s-1.777-.349-2.294-.4-.547-.2-.547-.2a6.133,6.133,0,0,1,3.332.375A15.2,15.2,0,0,0,561.119,807.439Z" transform="translate(-365.728 -521.084)" fill="#f92626"/>
    <ellipse id="Ellipse_368" data-name="Ellipse 368" cx="10.094" cy="1.705" rx="10.094" ry="1.705" transform="translate(175.473 297.221)" fill="#f92626" opacity="0.1"/>
    <path id="Tracé_1510" data-name="Tracé 1510" d="M859.233,774.839s-14.243-.858-12.579,9.134a2.438,2.438,0,0,0,1.267,2.568s.026-.75,1.462-.491a6.606,6.606,0,0,0,1.552.075,3.2,3.2,0,0,0,1.893-.783h0s4.01-1.653,5.566-8.2c0,0,1.154-1.432,1.124-1.8l-2.421,1.049a4.324,4.324,0,0,1,.176,3.178s-.079-3.118-.54-3.044c-.094,0-1.252.6-1.252.6s1.413,3.025.349,5.225c0,0,.4-3.726-.791-5l-1.694.989s1.653,3.122.532,5.671c0,0,.289-3.909-.888-5.431l-1.533,1.188s1.552,3.081.6,5.2c0,0-.124-4.554-.937-4.9a9.4,9.4,0,0,0-1.548,1.672s1.064,2.249.4,3.411c0,0-.4-3.028-.75-3.043a10.09,10.09,0,0,0-1.477,3.373,7.29,7.29,0,0,1,1.154-3.58,4.032,4.032,0,0,0-2.05,1.061s.21-1.417,2.38-1.544a10.252,10.252,0,0,1,1.4-1.616,8.809,8.809,0,0,0-3.471.4s1.154-1.342,3.864-.731l1.5-1.237a12.938,12.938,0,0,0-4.048.041s1.387-1.184,4.457-.322l1.649-.986a14.841,14.841,0,0,0-3.868-.334s1.522-.821,4.352.067l1.181-.528s-1.777-.349-2.3-.4-.547-.2-.547-.2a6.144,6.144,0,0,1,3.336.375A15.242,15.242,0,0,0,859.233,774.839Z" transform="translate(-552.106 -500.703)" fill="#f92626"/>
    <ellipse id="Ellipse_369" data-name="Ellipse 369" cx="10.094" cy="1.705" rx="10.094" ry="1.705" transform="translate(287.209 285.002)" fill="#f92626" opacity="0.1"/>
    <ellipse id="Ellipse_370" data-name="Ellipse 370" cx="29.067" cy="4.768" rx="29.067" ry="4.768" transform="translate(288.821 158.966)" fill="#f92626" opacity="0.1"/>
    <path id="Tracé_1511" data-name="Tracé 1511" d="M872.644,140.972a15.6,15.6,0,0,0,0-7.969v-3.748s1.357-7.35-4.685-12.065l-4.011-3.535a15.154,15.154,0,0,0-2.9-2.05,2.937,2.937,0,0,0-.375-.056l-.12-.067a12.079,12.079,0,0,1-.877-1.848,1.713,1.713,0,0,0,1.428-.487,1.875,1.875,0,0,0,.337-.562h0c.232-.521.27-1.151.468-1.705a3.983,3.983,0,0,1,.75-1.226c-.041.067-.082.131-.12.2.566-.7,1.308-1.312,1.837-2.058a4.473,4.473,0,0,0,.292-.457l-.079.094a10.3,10.3,0,0,0,1.177-4A3.613,3.613,0,0,0,865.792,98a4.765,4.765,0,0,0-.4-.907c-.87-1.8-.851-4.056-2.249-5.491a6.722,6.722,0,0,0-4.123-1.589,10.638,10.638,0,0,1-4.344-1.072,4.706,4.706,0,0,0-1.177-.648.971.971,0,0,0-1.158.431.749.749,0,0,1-.154.311.5.5,0,0,1-.446.026l-1.986-.532.022.1h-.049l.071.315a.175.175,0,0,1,.188.109l-.319.491a4.921,4.921,0,0,1-1.8-.375.865.865,0,0,0,0,.1h-.026c-.037.562.6.926.795,1.454a1.1,1.1,0,0,1,0,.712,1.619,1.619,0,0,1-.375.57c-.708.7-1.608.558-2.421,1a.517.517,0,0,0-.3.326.251.251,0,0,0-.026.18.419.419,0,0,0,.165.206,3.749,3.749,0,0,0,.772.48l-.232.225a8.9,8.9,0,0,0,3.074,14.509c.03.154.052.311.075.48v.045l.023.214-2.68,1.124a2.133,2.133,0,0,1-1.919-1.233c-.622-1.289-2.823,0-2.823,0s-6.72-.506-9.205.731c0,0-4.01-1.683-4.573-1.8s-1.413-.562-1.811-.45-.9-.75-1.184-.675-.375-.558-1.3-.783-1.244.056-2.249-.956-9.262-4.993-9.262-4.993L808.67,97.6l-3.954-3.141-.071.131c-.022-.094-.049-.191-.075-.292a37.451,37.451,0,0,0-1.466-4.61c-.255-.607-.375-1.376-.708-.971-.21.244-.57-.289-1.124-.648a.933.933,0,0,0-1.394.4h0c-3.077,4.824-4.179,5.172-2.4,6.938,1.585,1.574,2.642,2.965,3.939,3.373l.154.049a.217.217,0,0,1-.086,0l7.5,8.977s5.42,4.715,9.149,6.229,3.445,1.964,3.445,1.964,11.293,5.723,13.044,5.622,1.413,11.728.679,13.636-1.919,15.712-1.919,15.712-1.125,2.916.056,4.936a31.15,31.15,0,0,1,.026,4.794,16.45,16.45,0,0,0-2.736,7.047,4.018,4.018,0,0,1-.045.427.972.972,0,0,1-.266.217s.1-.023.251-.075a14.244,14.244,0,0,1-.75,3.373,13.743,13.743,0,0,0-.922,4.873v8.917l-.746,5.529s-.9,4.187,0,5.161a2.373,2.373,0,0,1,.495,1.72,3.185,3.185,0,0,0,.577,2.005,1.521,1.521,0,0,1,.375,1.289c-.3.971.442,11.293.442,11.293s-.217,2.845-.517,3,.5,3.268.5,3.268-3.051,2.545-2.275,3.894l.78,1.2-.206.2-.127.127a1.188,1.188,0,0,0-.776-.146,29.066,29.066,0,0,1-3.07,2.732,33.262,33.262,0,0,1-5.12,2.433l-2.954.24h-.056s-1.413-.131-.622,2.058,7.871,1.5,7.871,1.5l4.123-.652s7.376.034,9.487-.431c.885-.2,1.094-.667,1.038-1.147h0l-.023-.022a2.946,2.946,0,0,0-.6-1.241.606.606,0,0,0-.052-.064l.135-1.5c3.13-1.8-.885-5.352-.885-5.352a35.808,35.808,0,0,1,2.08-3.962c.708-.963.7-15.263.7-15.263s.375-5.165-.6-6.372a2.155,2.155,0,0,1,1.053-1.945c.7-.476,2.8-7.032,4.457-12.474l1.042,6.413s-.225,3.066.454,3.966a1.526,1.526,0,0,1,.277,1.192,5.3,5.3,0,0,0,.154,2.6,1.68,1.68,0,0,0,.543.922c.6.3.641,1.368.866,1.593s1.619-.319,1.694.5a18.336,18.336,0,0,1,0,2.17l.453,13.317a8.713,8.713,0,0,0-.9,4.041,5.219,5.219,0,0,1-.543,2.384,1.218,1.218,0,0,0,.112,1.432l.131.15-.558.431a1.218,1.218,0,0,0-.345,1.5,1.2,1.2,0,0,0-.349,1.293,1.491,1.491,0,0,0,.1.21,2.11,2.11,0,0,0-1.124.555,9.224,9.224,0,0,1-1.986,2,37.43,37.43,0,0,0-3.171,2.714,4.549,4.549,0,0,1-1.852,1.5,3,3,0,0,1-.558.165c-1.5.3-1.016,1.855.187,2.1s5.2,1.477,8.3.75a2.9,2.9,0,0,0,2.275-.315,31.322,31.322,0,0,1,4.434-1.5s1.694,0,1.919-.675a2.581,2.581,0,0,0,.1-.656l.049-.045-.045-.041a8.836,8.836,0,0,0-.116-1.5c-.041-.255-.09-.487-.135-.671-.146-.562-.412-1.286-.528-1.593a.577.577,0,0,0,.052-.079c.645-1.091-.427-3.748-.427-3.748a7.16,7.16,0,0,1,1.278-1.5c.6-.446,2.185-12.118,2.185-12.118s-.075-3,.75-4.34-1.125-9.5-1.125-9.5-.828-1.874-.525-2.545-.3-3.141-.3-3.141v-2.946a3.235,3.235,0,0,0-.172-1.034,4.92,4.92,0,0,1-.2-3c.528-1.346,1.732-9.652,1.732-9.652a11.123,11.123,0,0,1,.435-6.578,6.324,6.324,0,0,1,.375-.678c1.02-1.6.716-4.453.214-6.747-.079-.356-.161-.7-.244-1.023-.038-.139-.075-.27-.109-.4l.161-.067a5.053,5.053,0,0,1,.049-.592,4.123,4.123,0,0,0,2.718-1.874s3.445-3.872,6.5-5.5,3.276-3.984,3.276-3.984c-.453-.787.806-3.984.806-3.984ZM860.65,111.594Zm2.073,34.539-3.261,3.782a.077.077,0,0,1,0-.022c-.847-1.177.791-3.816.791-3.816l2.7-6.038a3.653,3.653,0,0,1-.352,1.784c-.75,1.012,1.353,2.695,1.353,2.695-1.128-.011-1.241,1.615-1.241,1.615Z" transform="translate(-520.913 -71.254)" fill="url(#linear-gradient)"/>
    <path id="Tracé_1512" data-name="Tracé 1512" d="M806.7,98.632l-1.777,3.452a6.878,6.878,0,0,1-1.657-.345,6.286,6.286,0,0,1-3.891-3.373,4.893,4.893,0,0,1,2.268-6.454c1.226-.667,2.362-1.436,3.28.75a38,38,0,0,1,1.447,4.58C806.569,98.073,806.7,98.632,806.7,98.632Z" transform="translate(-522.321 -73.325)" fill="#cc818c"/>
    <path id="Tracé_1513" data-name="Tracé 1513" d="M947.245,140.527l-2.841,4.239s-13.441,6.409-10.87-1.124a16.985,16.985,0,0,0,1.061-7.425v-.045a5.861,5.861,0,0,0-1.053-3s13.1-6.7,11.151-2.118a6.373,6.373,0,0,0-.465,3.017,10.277,10.277,0,0,0,1.413,4.187A13.862,13.862,0,0,0,947.245,140.527Z" transform="translate(-606.302 -97.229)" fill="#cc818c"/>
    <path id="Tracé_1514" data-name="Tracé 1514" d="M909.829,316.689s1.934,8.1,1.124,9.442-.75,4.31-.75,4.31-1.563,11.6-2.159,12.047a7.13,7.13,0,0,0-1.263,1.5s1.061,2.624.424,3.711a.881.881,0,0,1-.424.375c-1,.42-4.678-1.443-6.773-2.586a1.154,1.154,0,0,1-.555-.663,1.181,1.181,0,0,1,.341-1.282,1.222,1.222,0,0,1,.341-1.5l.551-.427-.127-.15a1.218,1.218,0,0,1-.112-1.424,5.258,5.258,0,0,0,.536-2.365,8.643,8.643,0,0,1,.892-4.014l-.446-13.235a19.032,19.032,0,0,0,0-2.155c-.075-.817-1.451-.277-1.672-.5s-.262-1.282-.854-1.582a1.664,1.664,0,0,1-.54-.914,5.331,5.331,0,0,1-.154-2.583,1.522,1.522,0,0,0-.274-1.184c-.671-.892-.446-3.939-.446-3.939l-1.027-6.372c-1.634,5.409-3.715,11.923-4.4,12.4a2.144,2.144,0,0,0-1.042,1.934c.967,1.188.6,6.319.6,6.319s0,14.2-.7,15.165a36.954,36.954,0,0,0-2.054,3.939s3.984,3.546.851,5.334l-.034.019c-3.2,1.784-9.813-3.193-9.813-3.193l.69-.69.2-.2-.75-1.192c-.768-1.338,2.249-3.864,2.249-3.864s-.8-3.122-.506-3.272.506-2.976.506-2.976-.731-10.259-.435-11.222a1.5,1.5,0,0,0-.352-1.282,3.2,3.2,0,0,1-.57-1.99,2.368,2.368,0,0,0-.487-1.709c-.892-.967,0-5.131,0-5.131l.75-5.5V295.31a13.871,13.871,0,0,1,.9-4.918,14.839,14.839,0,0,0,.81-3.958,16.619,16.619,0,0,1,2.777-7.121c.54-.825.941-1.319.941-1.319l23.79-.933s.375,1.061.75,2.534c.083.322.165.66.24,1.016.5,2.286.8,5.116-.21,6.713a5.3,5.3,0,0,0-.375.671,11.106,11.106,0,0,0-.431,6.537s-1.188,8.246-1.709,9.592a4.813,4.813,0,0,0,.2,2.961,3.294,3.294,0,0,1,.169,1.027v2.927s.6,2.451.3,3.122S909.829,316.689,909.829,316.689Z" transform="translate(-572.956 -189.511)" fill="#444053"/>
    <path id="Tracé_1515" data-name="Tracé 1515" d="M958.556,293.8a6.177,6.177,0,0,0-.375.671l-1.338-.075c.127-.69-.783-7.155-.783-7.155l2.7-.154C959.261,289.391,959.565,292.225,958.556,293.8Z" transform="translate(-620.589 -195.782)" opacity="0.1"/>
    <path id="Tracé_1516" data-name="Tracé 1516" d="M959.146,293.253a5.263,5.263,0,0,0-.375.671l-1.342-.075c.131-.69-.78-7.159-.78-7.159l2.695-.15C959.855,288.826,960.155,291.656,959.146,293.253Z" transform="translate(-620.958 -195.438)" fill="#444053"/>
    <path id="Tracé_1517" data-name="Tracé 1517" d="M959.146,293.253a5.263,5.263,0,0,0-.375.671l-1.342-.075c.131-.69-.78-7.159-.78-7.159l2.695-.15C959.855,288.826,960.155,291.656,959.146,293.253Z" transform="translate(-620.958 -195.438)" opacity="0.05"/>
    <path id="Tracé_1518" data-name="Tracé 1518" d="M939.871,460.655a.88.88,0,0,1-.424.375c-1,.42-4.678-1.443-6.773-2.586a1.155,1.155,0,0,1-.555-.663c1.192-.217,1.975,1.125,1.975,1.125a1.758,1.758,0,0,1,2.451.6c1.023,1.5,3.216.87,3.216.87S939.807,460.471,939.871,460.655Z" transform="translate(-605.622 -302.48)" opacity="0.1"/>
    <path id="Tracé_1519" data-name="Tracé 1519" d="M924.792,465.576c-.225.667-1.9.667-1.9.667a35.614,35.614,0,0,0-4.333,1.525,2.963,2.963,0,0,1-2.249.315c-3.07.708-7.009-.517-8.2-.75s-1.657-1.784-.187-2.08a2.941,2.941,0,0,0,.551-.169,4.475,4.475,0,0,0,1.829-1.5,37.958,37.958,0,0,1,3.13-2.7A9.056,9.056,0,0,0,915.4,458.9c1.747-1.544,3,.577,3,.577a1.758,1.758,0,0,1,2.451.6c1.023,1.5,3.216.87,3.216.87s.375,1,.577,1.728c.045.184.094.416.135.671A5.864,5.864,0,0,1,924.792,465.576Z" transform="translate(-589.925 -302.843)" fill="#ff748f"/>
    <circle id="Ellipse_371" data-name="Ellipse 371" cx="0.206" cy="0.206" r="0.206" transform="translate(329.549 157.621)" fill="#575988"/>
    <circle id="Ellipse_372" data-name="Ellipse 372" cx="0.206" cy="0.206" r="0.206" transform="translate(327.802 159.255)" fill="#575988"/>
    <circle id="Ellipse_373" data-name="Ellipse 373" cx="0.206" cy="0.206" r="0.206" transform="translate(326.025 160.724)" fill="#575988"/>
    <circle id="Ellipse_374" data-name="Ellipse 374" cx="0.206" cy="0.206" r="0.206" transform="translate(326.944 160.068)" fill="#575988"/>
    <circle id="Ellipse_375" data-name="Ellipse 375" cx="0.206" cy="0.206" r="0.206" transform="translate(328.713 158.385)" fill="#575988"/>
    <path id="Tracé_1520" data-name="Tracé 1520" d="M924.792,473.924c-.225.667-1.9.667-1.9.667a35.6,35.6,0,0,0-4.333,1.526,2.963,2.963,0,0,1-2.249.315c-3.07.708-7.009-.517-8.2-.75s-1.657-1.784-.187-2.08a2.939,2.939,0,0,0,.551-.169,14.239,14.239,0,0,0,4.022.75c3.029.128,5.427,0,5.427,0L921,473.2a5.13,5.13,0,0,1,1.9-.69,4.873,4.873,0,0,0,1.874-.817A5.869,5.869,0,0,1,924.792,473.924Z" transform="translate(-589.925 -311.191)" fill="#dce6f2"/>
    <path id="Tracé_1521" data-name="Tracé 1521" d="M933.24,478.129a2.522,2.522,0,0,1-.51-.052l.045-.217a3.219,3.219,0,0,0,1.837-.255,8.836,8.836,0,0,0,.813-.375,9.447,9.447,0,0,1,.967-.424l.3-.1c.169-.056.337-.112.5-.184.094-.037.184-.082.273-.124a3.049,3.049,0,0,1,.69-.262,3.188,3.188,0,0,1,.375-.049,3.209,3.209,0,0,0,.337-.041,2.931,2.931,0,0,0,.645-.24,3.133,3.133,0,0,1,.693-.255l.165-.03a.791.791,0,0,0,.48-.176l.161.154a1,1,0,0,1-.607.244l-.154.026a2.934,2.934,0,0,0-.645.24,3.125,3.125,0,0,1-.693.255,2.476,2.476,0,0,1-.375.045,3.26,3.26,0,0,0-.348.045,2.834,2.834,0,0,0-.637.247l-.281.127c-.173.071-.345.131-.517.187l-.3.1c-.323.12-.641.27-.952.412s-.544.259-.825.375A3.967,3.967,0,0,1,933.24,478.129Z" transform="translate(-606.004 -313.473)" fill="#575988" opacity="0.5"/>
    <path id="Tracé_1522" data-name="Tracé 1522" d="M936,380.048a5.407,5.407,0,0,1,4.183-2.211,14.319,14.319,0,0,0,3.771-.3,9.362,9.362,0,0,1-2.86,1.124A48.332,48.332,0,0,0,936,380.048Z" transform="translate(-608.048 -252.33)" opacity="0.1"/>
    <path id="Tracé_1523" data-name="Tracé 1523" d="M938.38,383.757a6.215,6.215,0,0,1,2.193-1c.8-.037,1.5-.112,1.5-.112a4.233,4.233,0,0,1-1.226.6C940.164,383.423,938.38,383.757,938.38,383.757Z" transform="translate(-609.536 -255.518)" opacity="0.1"/>
    <path id="Tracé_1524" data-name="Tracé 1524" d="M939.17,387.4s2.1.169,2.121.727" transform="translate(-610.03 -258.494)" opacity="0.1"/>
    <path id="Tracé_1525" data-name="Tracé 1525" d="M887,297.222a8.38,8.38,0,0,0,2.114-2.732,1.911,1.911,0,0,1,.817-1.2s1.211.484.131,1.964A6,6,0,0,1,887,297.222Z" transform="translate(-577.414 -199.658)" opacity="0.1"/>
    <path id="Tracé_1526" data-name="Tracé 1526" d="M945.221,131c-.427,1.012-.806,1.087-.723,2.069a7.455,7.455,0,0,1-1.7,1.338c-1.331.791-2.777,2.335-4.434,2.335a8.788,8.788,0,0,1-3.238-.611,5.862,5.862,0,0,0-1.053-3S947.162,126.416,945.221,131Z" transform="translate(-606.841 -97.196)" opacity="0.1"/>
    <path id="Tracé_1527" data-name="Tracé 1527" d="M939.6,109.364a8.864,8.864,0,1,1-8.864-8.864A8.864,8.864,0,0,1,939.6,109.364Z" transform="translate(-599.214 -79.129)" fill="#cc818c"/>
    <path id="Tracé_1528" data-name="Tracé 1528" d="M947.245,151.81,944.4,156.05s-13.441,6.409-10.87-1.124A16.985,16.985,0,0,0,934.6,147.5h.022a7.032,7.032,0,0,1,.266,1.709c.041,1.154.071,2.624,2.942,3.1a8.019,8.019,0,0,0,7.807-2.777A13.87,13.87,0,0,0,947.245,151.81Z" transform="translate(-606.302 -108.513)" opacity="0.1"/>
    <path id="Tracé_1529" data-name="Tracé 1529" d="M813.757,108.618l-1.776,3.452a6.878,6.878,0,0,1-1.657-.345l-.154-.184c.727.277,3.178-4.352,3.178-4.352l.079.064C813.63,108.06,813.757,108.618,813.757,108.618Z" transform="translate(-529.381 -83.311)" opacity="0.1"/>
    <path id="Tracé_1530" data-name="Tracé 1530" d="M920.536,279.616c-5.738,2.493-25.6.375-25.6.375a2.5,2.5,0,0,0,.1-.648c.54-.825.941-1.319.941-1.319l23.79-.933S920.158,278.143,920.536,279.616Z" transform="translate(-582.378 -189.53)" opacity="0.1"/>
    <path id="Tracé_1531" data-name="Tracé 1531" d="M858.127,122.88,855.481,124a2.114,2.114,0,0,1-1.9-1.229c-.611-1.282-2.785,0-2.785,0s-6.638-.5-9.089.727c0,0-3.958-1.675-4.5-1.784s-1.394-.559-1.784-.446-.892-.727-1.17-.671-.394-.558-1.286-.78-1.226.056-2.23-.948-9.142-4.963-9.142-4.963l-3.681-3-3.9-3.122s-2.455,4.625-3.178,4.348l7.414,8.921s5.352,4.685,9.033,6.188,3.4,1.953,3.4,1.953,11.155,5.686,12.882,5.577,1.394,11.653.667,13.55-1.893,15.611-1.893,15.611-1.124,2.9.052,4.906a27.594,27.594,0,0,1,0,4.85s19.981,2.136,25.649-.375c0,0,.836-9.254,0-10.427s.783-3.789.783-3.789l3.542-7.991,8.688-8.759s1.338-7.305-4.625-11.994l-3.962-3.512a14.693,14.693,0,0,0-2.86-2.035c-.645-.12-.408,0-.408,0a8.02,8.02,0,0,1-7.871,2.871c-2.871-.484-2.9-1.945-2.942-3.1A7.026,7.026,0,0,0,858.127,122.88Z" transform="translate(-529.8 -83.687)" fill="#67647e"/>
    <path id="Tracé_1532" data-name="Tracé 1532" d="M941.5,228.13s-12.268.5-14.719,4.352a12.178,12.178,0,0,1,6.02-1.061C935.641,231.859,941.5,228.13,941.5,228.13Z" transform="translate(-602.284 -158.921)" opacity="0.1"/>
    <path id="Tracé_1533" data-name="Tracé 1533" d="M929.9,259.355s5.8.375,7.028-.836,1.229-1.949,1.229-1.949Z" transform="translate(-604.234 -176.701)" opacity="0.1"/>
    <path id="Tracé_1534" data-name="Tracé 1534" d="M966.005,196.6s-4.906,5.8,1.061,8.306Z" transform="translate(-625.621 -139.209)" opacity="0.1"/>
    <path id="Tracé_1535" data-name="Tracé 1535" d="M891.67,166.7s1.784,3.639,2.676,3.883Z" transform="translate(-580.334 -120.516)" opacity="0.1"/>
    <path id="Tracé_1536" data-name="Tracé 1536" d="M875.61,162.53a66.8,66.8,0,0,0,5.3,4.4S876.277,162.53,875.61,162.53Z" transform="translate(-570.293 -117.909)" opacity="0.1"/>
    <path id="Tracé_1537" data-name="Tracé 1537" d="M918.982,152.27s-4.3,6.409-1.5,10.315C917.46,162.585,915.916,157.956,918.982,152.27Z" transform="translate(-595.88 -111.495)" opacity="0.1"/>
    <path id="Tracé_1538" data-name="Tracé 1538" d="M928.74,275.888l-1.312,1.233-.184.172-1.518,1.435c-.112.082-.217.165-.326.24-6.185,4.434-7.425-2.3-7.425-2.3s-2.732,1.784-3.122.334,6.372-3.512,7.358-3.4a1.307,1.307,0,0,0,.27,0,4.239,4.239,0,0,0,1.387-.491c.1-.052.2-.1.3-.161a11.137,11.137,0,0,0,1-.63Z" transform="translate(-594.817 -186.548)" fill="#cc818c"/>
    <path id="Tracé_1539" data-name="Tracé 1539" d="M944.413,109.363a8.865,8.865,0,0,1-4.334,7.621,5.171,5.171,0,0,1-.321-.645c-.319-.75-.513-1.533-.832-2.275a7.1,7.1,0,0,0-1.5-2.17.95.95,0,0,0-.375-.274,1.076,1.076,0,0,0-.813.225,3.679,3.679,0,0,1-1.237.543,1.316,1.316,0,0,1-1.241-.375,1.86,1.86,0,0,1-.195-1.548,19.22,19.22,0,0,0,.577-3.46,3.413,3.413,0,0,0-1.462-3.021c-.9-.51-2.016-.375-3.017-.656a3.247,3.247,0,0,1-.453-.157,8.868,8.868,0,0,1,15.214,6.192Z" transform="translate(-603.803 -79.127)" opacity="0.1"/>
    <path id="Tracé_1540" data-name="Tracé 1540" d="M927.085,96c-.161.086-.337.24-.289.42a.412.412,0,0,0,.161.206,3.836,3.836,0,0,0,1.4.72c1,.27,2.121.142,3.021.656a3.407,3.407,0,0,1,1.462,3.017,20.213,20.213,0,0,1-.581,3.46,1.875,1.875,0,0,0,.2,1.552,1.323,1.323,0,0,0,1.241.375,3.656,3.656,0,0,0,1.233-.54,1.068,1.068,0,0,1,.813-.225.99.99,0,0,1,.4.27,7.043,7.043,0,0,1,1.5,2.174c.322.75.517,1.529.832,2.275a3.667,3.667,0,0,0,1.5,1.852,1.874,1.874,0,0,0,2.249-.236c.517-.57.5-1.432.75-2.163.442-1.263,1.679-2.058,2.451-3.148a9.677,9.677,0,0,0,1.346-4.258,3.578,3.578,0,0,0,.022-1.424,5.164,5.164,0,0,0-.393-.9c-.862-1.784-.843-4.029-2.219-5.457a6.63,6.63,0,0,0-4.078-1.574,10.483,10.483,0,0,1-4.292-1.068,4.72,4.72,0,0,0-1.162-.645.956.956,0,0,0-1.143.427.75.75,0,0,1-.153.311.488.488,0,0,1-.435.026l-1.964-.528.225.99a4.9,4.9,0,0,1-2.084-.375c-.038.558.592.922.787,1.443A1.334,1.334,0,0,1,929.506,95C928.779,95.7,927.887,95.565,927.085,96Z" transform="translate(-602.289 -73.37)" fill="#585268"/>
    <path id="Tracé_1541" data-name="Tracé 1541" d="M889.8,454.342l-.079.892-.034.019c-3.2,1.784-9.813-3.193-9.813-3.193l.69-.69a1.2,1.2,0,0,1,.3.93l1.353.075,1.615,1.747s4.374.506,5.559.221Z" transform="translate(-572.956 -298.487)" opacity="0.1"/>
    <path id="Tracé_1542" data-name="Tracé 1542" d="M869.06,459.159c-2.08.461-9.37.427-9.37.427l-4.07.648s-7.005.671-7.785-1.5.611-2.043.611-2.043h.052l2.916-.236a32.818,32.818,0,0,0,5.056-2.418,29.157,29.157,0,0,0,3.029-2.714s1.218-.236,1.2,1.173l1.353.075,1.615,1.743s4.374.51,5.558.225h.409l-.187,2.155.052.067C869.753,457.1,870.919,458.743,869.06,459.159Z" transform="translate(-552.78 -298.45)" fill="#ff748f"/>
    <circle id="Ellipse_376" data-name="Ellipse 376" cx="0.206" cy="0.206" r="0.206" transform="translate(308.525 155.087)" fill="#575988"/>
    <circle id="Ellipse_377" data-name="Ellipse 377" cx="0.206" cy="0.206" r="0.206" transform="translate(303.285 157.362)" fill="#575988"/>
    <circle id="Ellipse_378" data-name="Ellipse 378" cx="0.206" cy="0.206" r="0.206" transform="translate(300.587 158.183)" fill="#575988"/>
    <circle id="Ellipse_379" data-name="Ellipse 379" cx="0.206" cy="0.206" r="0.206" transform="translate(304.661 156.927)" fill="#575988"/>
    <circle id="Ellipse_380" data-name="Ellipse 380" cx="0.206" cy="0.206" r="0.206" transform="translate(301.932 157.774)" fill="#575988"/>
    <circle id="Ellipse_381" data-name="Ellipse 381" cx="0.206" cy="0.206" r="0.206" transform="translate(306.052 156.283)" fill="#575988"/>
    <circle id="Ellipse_382" data-name="Ellipse 382" cx="0.206" cy="0.206" r="0.206" transform="translate(307.427 155.687)" fill="#575988"/>
    <path id="Tracé_1543" data-name="Tracé 1543" d="M869.06,468.134c-2.08.461-9.37.427-9.37.427l-4.07.648s-7.005.671-7.785-1.5.611-2.043.611-2.043h.052a3.748,3.748,0,0,0,3.1,1.267l5.037.206,5.221-.375s4.873-.15,5.686-.315a11.805,11.805,0,0,0,1.949-.716C869.753,466.072,870.919,467.718,869.06,468.134Z" transform="translate(-552.78 -307.425)" fill="#dce6f2"/>
    <path id="Tracé_1544" data-name="Tracé 1544" d="M868.625,470.659a3.291,3.291,0,0,1-.825-.1l.075-.2a4.043,4.043,0,0,0,2.076-.094c.247-.064.491-.135.75-.21a8.5,8.5,0,0,1,3.617-.409h.161a34.239,34.239,0,0,0,6.69-.3,2.488,2.488,0,0,0,1.432-.573l.161.157a2.714,2.714,0,0,1-1.555.637,34.75,34.75,0,0,1-6.747.3H874.3a10.945,10.945,0,0,0-2.215.064,11.487,11.487,0,0,0-1.331.334c-.247.075-.495.15-.75.214A5.573,5.573,0,0,1,868.625,470.659Z" transform="translate(-565.41 -309.365)" fill="#575988" opacity="0.5"/>
    <path id="Tracé_1545" data-name="Tracé 1545" d="M944.3,275.888l-1.312,1.233-3.261-4.172a11.121,11.121,0,0,0,1-.63Z" transform="translate(-610.38 -186.548)" opacity="0.1"/>
    <path id="Tracé_1546" data-name="Tracé 1546" d="M958.7,190.5l2.564,3.568v3.748a15.61,15.61,0,0,1,0,7.92l.131,3.456s-1.244,3.178-.8,3.958c0,0-.225,2.343-3.235,3.962a30.359,30.359,0,0,0-6.413,5.435,4.364,4.364,0,0,1-4.738,1.9l-3.291,1.394-3.789-4.85,5.127-2.789s1.784-2.4,2.845-2.286l4.348-5.064s.112-1.615,1.226-1.615c0,0-2.061-1.672-1.338-2.676s.112-5.465.112-5.465Z" transform="translate(-610.005 -135.395)" fill="#67647e"/>
    <path id="Tracé_1547" data-name="Tracé 1547" d="M978.55,233.724s5.855-.109,6.578,1.394S980.334,232.888,978.55,233.724Z" transform="translate(-634.65 -162.341)" opacity="0.1"/>
    <path id="Tracé_1548" data-name="Tracé 1548" d="M940.01,278.314a1.544,1.544,0,0,1-.022.292,1.971,1.971,0,0,1-1.844,1.675h-.105a1.968,1.968,0,0,1-1.968-1.968,2.011,2.011,0,0,1,.109-.641,3.394,3.394,0,0,1-.956-2.762,4.24,4.24,0,0,0,1.387-.491,9.215,9.215,0,0,0,.971,1.983,1.878,1.878,0,0,1,.457-.056,1.968,1.968,0,0,1,1.971,1.968Z" transform="translate(-607.56 -187.861)" opacity="0.1"/>
    <path id="Tracé_1549" data-name="Tracé 1549" d="M937.158,273.26s-1.319.3-1.319.536-.3,2.418,1.151,3.31,1.3-1.244,1.3-1.244S937.045,273.946,937.158,273.26Z" transform="translate(-607.931 -187.136)" fill="#575988"/>
    <circle id="Ellipse_383" data-name="Ellipse 383" cx="1.972" cy="1.972" r="1.972" transform="translate(328.732 88.482)" fill="#e4aab4"/>
    <circle id="Ellipse_384" data-name="Ellipse 384" cx="1.69" cy="1.69" r="1.69" transform="translate(329.013 88.763)" fill="#dce6f2"/>
    <path id="Tracé_1550" data-name="Tracé 1550" d="M922.808,286.84a9.764,9.764,0,0,0,9.517,1.267v1.672s-3.568,2.451-6.8.967S922.808,286.84,922.808,286.84Z" transform="translate(-599.781 -195.626)" opacity="0.1"/>
    <path id="Tracé_1551" data-name="Tracé 1551" d="M922.808,285.65a9.755,9.755,0,0,0,9.517,1.256v1.672s-3.568,2.451-6.8.967S922.808,285.65,922.808,285.65Z" transform="translate(-599.781 -194.882)" opacity="0.1"/>
    <path id="Tracé_1552" data-name="Tracé 1552" d="M922.808,285.65a9.755,9.755,0,0,0,9.517,1.256v1.672s-3.568,2.451-6.8.967S922.808,285.65,922.808,285.65Z" transform="translate(-599.781 -194.882)" fill="#444053"/>
    <path id="Tracé_1553" data-name="Tracé 1553" d="M923.111,285.65a9.764,9.764,0,0,0,9.517,1.267v1.672s-3.58,2.44-6.8.967S923.111,285.65,923.111,285.65Z" transform="translate(-599.971 -194.882)" opacity="0.05"/>
    <path id="Tracé_1554" data-name="Tracé 1554" d="M888,451.32s5.577,1.023,6.394,1.244-.225.615-.225.615S889.061,452.268,888,451.32Z" transform="translate(-578.039 -298.456)" opacity="0.1"/>
    <path id="Tracé_1555" data-name="Tracé 1555" d="M887.61,438.726c.09,0,3.789-1.042,4.588-2.826" transform="translate(-577.795 -288.815)" opacity="0.1"/>
    <path id="Tracé_1556" data-name="Tracé 1556" d="M902,386.506s1.5,1.972,2.466,1.915S902.881,386.432,902,386.506Z" transform="translate(-586.792 -257.934)" opacity="0.1"/>
    <path id="Tracé_1557" data-name="Tracé 1557" d="M904.22,395.24s.63,1.394,1.559.948" transform="translate(-588.18 -263.395)" opacity="0.1"/>
    <path id="Tracé_1558" data-name="Tracé 1558" d="M913.59,313.544l3.954,10.427s.558-6.709-.622-8.718a3.482,3.482,0,0,0-3.332-1.709Z" transform="translate(-594.038 -212.311)" opacity="0.05"/>
    <g id="Groupe_927" data-name="Groupe 927" transform="translate(324.459 18.29)" opacity="0.1">
      <path id="Tracé_1559" data-name="Tracé 1559" d="M938.441,92.6l-.034-.15-.637-.169.071.311A4.566,4.566,0,0,0,938.441,92.6Z" transform="translate(-933.614 -92.28)"/>
      <path id="Tracé_1560" data-name="Tracé 1560" d="M933.578,96.163l.067-.06a1.331,1.331,0,0,0,.375-1.357,1.839,1.839,0,0,0-.315-.506,4.873,4.873,0,0,1-.918-.27c-.037.558.592.918.787,1.443A1.124,1.124,0,0,1,933.578,96.163Z" transform="translate(-930.497 -93.337)"/>
      <path id="Tracé_1561" data-name="Tracé 1561" d="M940.294,119.474a3.683,3.683,0,0,1-1.5-1.852c-.319-.75-.51-1.537-.832-2.275a6.989,6.989,0,0,0-1.5-2.17.948.948,0,0,0-.394-.274,1.064,1.064,0,0,0-.813.225,3.749,3.749,0,0,1-1.237.543,1.338,1.338,0,0,1-1.241-.375,1.859,1.859,0,0,1-.195-1.548,19.252,19.252,0,0,0,.581-3.463,3.348,3.348,0,0,0-1.466-3c-.9-.514-2.016-.375-3-.656a3.809,3.809,0,0,1-1.4-.72l-.079-.071a2.394,2.394,0,0,0-.244.116c-.161.086-.334.24-.289.416a.446.446,0,0,0,.165.21,3.861,3.861,0,0,0,1.4.716c1,.274,2.118.146,3.017.66a3.394,3.394,0,0,1,1.466,3,20.145,20.145,0,0,1-.581,3.46,1.866,1.866,0,0,0,.2,1.548,1.319,1.319,0,0,0,1.24.375,3.749,3.749,0,0,0,1.237-.54,1.083,1.083,0,0,1,.813-.229.985.985,0,0,1,.375.274,7.079,7.079,0,0,1,1.5,2.17c.322.75.513,1.533.832,2.275a3.677,3.677,0,0,0,1.5,1.874,1.9,1.9,0,0,0,2.249-.236,1.772,1.772,0,0,0,.334-.558,1.912,1.912,0,0,1-2.136.1Z" transform="translate(-926.681 -99.507)"/>
      <path id="Tracé_1562" data-name="Tracé 1562" d="M971.54,133.824c.558-.7,1.289-1.3,1.814-2.047a5.179,5.179,0,0,0,.289-.457A18.553,18.553,0,0,0,971.54,133.824Z" transform="translate(-954.726 -116.687)"/>
    </g>
    <g id="Groupe_929" data-name="Groupe 929" transform="translate(214.877 24.894)" opacity="0.1">
      <path id="Tracé_1563" data-name="Tracé 1563" d="M727.638,109.9H638.957a4.648,4.648,0,0,0-4.637,4.633v56.031a4.648,4.648,0,0,0,4.637,4.633h69.566s1.8,9.569-4.123,10.6c0,0,13.261.952,10.945-10.6h12.29a4.644,4.644,0,0,0,4.633-4.633V114.533A4.644,4.644,0,0,0,727.638,109.9Z" transform="translate(-634.32 -109.9)"/>
      <g id="Groupe_928" data-name="Groupe 928" transform="translate(13.055 14.873)" opacity="0.2">
        <rect id="Rectangle_1621" data-name="Rectangle 1621" width="71.837" height="4.378" rx="2.189"/>
        <rect id="Rectangle_1622" data-name="Rectangle 1622" width="59.277" height="4.378" rx="2.189" transform="translate(0 19.565)"/>
        <rect id="Rectangle_1623" data-name="Rectangle 1623" width="42.673" height="4.378" rx="2.189" transform="translate(0 9.783)"/>
      </g>
    </g>
    <path id="Tracé_1564" data-name="Tracé 1564" d="M730.728,107.83H642.046a4.651,4.651,0,0,0-4.636,4.636V168.5a4.648,4.648,0,0,0,4.636,4.633h69.566s1.8,9.569-4.123,10.6c0,0,13.261.952,10.945-10.6h12.29a4.644,4.644,0,0,0,4.633-4.633V112.466a4.648,4.648,0,0,0-4.629-4.636Z" transform="translate(-421.375 -83.712)" fill="#fff"/>
    <g id="Groupe_930" data-name="Groupe 930" transform="translate(229.09 38.991)" opacity="0.2">
      <rect id="Rectangle_1624" data-name="Rectangle 1624" width="71.837" height="4.378" rx="2.189" fill="#f92626"/>
      <rect id="Rectangle_1625" data-name="Rectangle 1625" width="59.277" height="4.378" rx="2.189" transform="translate(0 19.569)" fill="#f92626"/>
      <rect id="Rectangle_1626" data-name="Rectangle 1626" width="42.673" height="4.378" rx="2.189" transform="translate(0 9.786)" fill="#f92626"/>
    </g>
    <path id="Tracé_1565" data-name="Tracé 1565" d="M136.055,596.48s1.334,1.747-.618,4.385-3.565,4.873-2.912,6.51c0,0,2.946-4.9,5.345-4.966S138.694,599.426,136.055,596.48Z" transform="translate(-105.637 -389.207)" fill="#f92626"/>
    <path id="Tracé_1566" data-name="Tracé 1566" d="M136.182,596.48a2.2,2.2,0,0,1,.27.547c2.343,2.751,3.587,5.315,1.338,5.382-2.1.06-4.607,3.8-5.21,4.753a.682.682,0,0,0,.071.214s2.946-4.9,5.345-4.966S138.821,599.426,136.182,596.48Z" transform="translate(-105.763 -389.207)" opacity="0.1"/>
    <path id="Tracé_1567" data-name="Tracé 1567" d="M148.3,601.756c0,.615-.067,1.124-.154,1.124s-.154-.5-.154-1.124.086-.326.172-.326S148.3,601.142,148.3,601.756Z" transform="translate(-115.397 -392.257)" fill="#ffd037"/>
    <path id="Tracé_1568" data-name="Tracé 1568" d="M149.329,603.681c-.54.3-1.012.472-1.053.4s.375-.375.9-.667.33-.079.375,0S149.868,603.389,149.329,603.681Z" transform="translate(-115.574 -393.447)" fill="#ffd037"/>
    <path id="Tracé_1569" data-name="Tracé 1569" d="M118.35,596.48s-1.334,1.747.618,4.385,3.564,4.873,2.912,6.51c0,0-2.946-4.9-5.345-4.966S115.711,599.426,118.35,596.48Z" transform="translate(-94.993 -389.207)" fill="#f92626"/>
    <path id="Tracé_1570" data-name="Tracé 1570" d="M118.35,596.48a2.2,2.2,0,0,0-.27.547c-2.343,2.751-3.587,5.315-1.338,5.382,2.1.06,4.606,3.8,5.21,4.753-.019.071-.045.143-.071.214,0,0-2.946-4.9-5.345-4.966S115.711,599.426,118.35,596.48Z" transform="translate(-94.993 -389.207)" opacity="0.1"/>
    <path id="Tracé_1571" data-name="Tracé 1571" d="M116.73,601.756c0,.615.067,1.124.154,1.124s.154-.5.154-1.124-.086-.326-.172-.326S116.73,601.142,116.73,601.756Z" transform="translate(-95.854 -392.257)" fill="#ffd037"/>
    <path id="Tracé_1572" data-name="Tracé 1572" d="M113.894,603.681c.54.3,1.012.472,1.053.4s-.375-.375-.9-.667-.33-.079-.375,0S113.35,603.389,113.894,603.681Z" transform="translate(-93.873 -393.447)" fill="#ffd037"/>
    <ellipse id="Ellipse_385" data-name="Ellipse 385" cx="13.973" cy="2.144" rx="13.973" ry="2.144" transform="translate(12.915 227.25)" fill="#f92626" opacity="0.1"/>
    <path id="Tracé_1573" data-name="Tracé 1573" d="M127.976,617.913l-.067.544-.094.772-.041.322-.094.768-.037.322-.094.772-1.072,8.767c-.094.783-1.372,1.394-2.916,1.394h-5.57c-1.544,0-2.819-.611-2.916-1.394L114,621.418l-.094-.772-.037-.322-.094-.768-.041-.322-.094-.772-.067-.544c-.052-.442.641-.817,1.5-.817h11.361C127.32,617.1,128.013,617.471,127.976,617.913Z" transform="translate(-93.88 -402.099)" fill="#65617d"/>
    <path id="Tracé_1574" data-name="Tracé 1574" d="M66.947,577.23l-.094.772H52.794l-.094-.772Z" transform="translate(-32.937 -360.872)" fill="#9d9cb5"/>
    <path id="Tracé_1575" data-name="Tracé 1575" d="M67.034,580.15l-.094.768H53.147l-.1-.768Z" transform="translate(-33.156 -362.697)" fill="#9d9cb5"/>
    <path id="Tracé_1576" data-name="Tracé 1576" d="M67.125,583.06l-.094.772H53.5l-.094-.772Z" transform="translate(-33.381 -364.517)" fill="#9d9cb5"/>
    <ellipse id="Ellipse_386" data-name="Ellipse 386" cx="31.5" cy="5.169" rx="31.5" ry="5.169" transform="translate(210.563 290.696)" fill="#f92626" opacity="0.1"/>
    <g id="Groupe_932" data-name="Groupe 932" transform="translate(177.426 137.137)" opacity="0.1">
      <path id="Tracé_1577" data-name="Tracé 1577" d="M635.522,409.36h-96.1a5.037,5.037,0,0,0-5.023,5.022V475.1a5.038,5.038,0,0,0,5.023,5.023h75.387s1.953,10.367-4.464,11.481c0,0,14.367,1.031,11.855-11.481h13.321a5.038,5.038,0,0,0,5.023-5.023v-60.72A5.037,5.037,0,0,0,635.522,409.36Z" transform="translate(-534.4 -409.36)"/>
      <g id="Groupe_931" data-name="Groupe 931" transform="translate(14.146 26.721)" opacity="0.2">
        <rect id="Rectangle_1627" data-name="Rectangle 1627" width="77.849" height="4.745" rx="2.373" transform="translate(0 10.604)"/>
        <rect id="Rectangle_1628" data-name="Rectangle 1628" width="33.756" height="4.745" rx="2.373"/>
      </g>
    </g>
    <path id="Tracé_1578" data-name="Tracé 1578" d="M633.3,407.13H537.183a5.038,5.038,0,0,0-5.023,5.022v60.72a5.038,5.038,0,0,0,5.023,5.023h75.387s1.953,10.367-4.464,11.484c0,0,14.371,1.031,11.859-11.484H633.3a5.037,5.037,0,0,0,5.023-5.023v-60.72A5.037,5.037,0,0,0,633.3,407.13Z" transform="translate(-355.574 -270.829)" fill="#fff"/>
    <g id="Groupe_933" data-name="Groupe 933" transform="translate(190.735 163.022)" opacity="0.2">
      <rect id="Rectangle_1629" data-name="Rectangle 1629" width="77.849" height="4.745" rx="2.373" transform="translate(0 10.604)" fill="#f92626"/>
      <rect id="Rectangle_1630" data-name="Rectangle 1630" width="33.756" height="4.745" rx="2.373" fill="#f92626"/>
    </g>
    <path id="Tracé_1579" data-name="Tracé 1579" d="M622.57,547.531c-.454-1.923-.75-3.613-.75-3.613a7.448,7.448,0,0,0-.836-3.669v-.525h0v-3.872a12.978,12.978,0,0,1,.978-2.028c.7-1.218,0-5.678,0-5.678s-2.586-6.289-1.957-10.277-5.311-17.718-5.311-17.718a17.426,17.426,0,0,1,.558-3.921,3.035,3.035,0,0,0,.075-.821.876.876,0,0,0,0-.1v.034c-.09-2.624-2.17-7.564-2.17-7.564l.281-9.4a27.634,27.634,0,0,0-.84-12.984c-.75-2.594-1.241-4.674-1.548-6.274-.034-.184-.068-.375-.1-.525,4.46-.678,7.871-1.244,7.871-1.244s-2.579-10.821-4.325-12.695-3.141-7.871-3.141-7.871-.911-7.643.559-9.873,1.675-6.083,1.675-6.083,3.373-2.436,3.774-3.516a18.607,18.607,0,0,0,1.124-4.8c0-1.286-.42-2.436-.281-3.111s-.978-3.246-.42-4.464a3.282,3.282,0,0,0,.225-1.173v-.034h0a16.576,16.576,0,0,0-.3-3.171,9,9,0,0,0-3.317-1.773l-.075-.292-.187-.75c-.112-.075-.221-.139-.33-.2v-.277l-.034-1.1.529-2.466c1.031-4.3-4.7-4.936-4.7-4.936a3,3,0,0,0-1.623-1.421c-1.154-.4-.191,6.458.349,6.9a24.9,24.9,0,0,1,2.249,3.538h0l.1.176a2.1,2.1,0,0,0-.262.273l.217,1.5.034.229a6.249,6.249,0,0,0-.915,1.559,3.329,3.329,0,0,1,.84,2.436,7.409,7.409,0,0,0,.345,2.972c-.06-.071-.8-.87-1.533-.675s-2.8.813-2.8.813-1.537.27-1.394.607-1.049,1.825-1.049,1.825l-4.123-3.913c-.037-.116-.083-.232-.12-.356a9.821,9.821,0,0,1-.375-1.713,9.8,9.8,0,0,0,1.319-.42,2.856,2.856,0,0,0,1.125-.731,4.448,4.448,0,0,0,.663-1.78,25.756,25.756,0,0,1,1.533-3.418,11.1,11.1,0,0,0,.825-6.136,4.052,4.052,0,0,0-.633-1.8c-.675-.93-1.9-1.3-2.789-2.046s-1.462-1.874-2.5-2.425a4.97,4.97,0,0,0-3.137-.27,16.9,16.9,0,0,0-5.851,2.129,3.012,3.012,0,0,1-1.957.645,2.637,2.637,0,0,1-1.413-1.038.069.069,0,0,1,.019-.056l-.045-.052a7.262,7.262,0,0,0-.611,3.062,4.368,4.368,0,0,0,.019.495V390h0a.753.753,0,0,1-.03.221,1.612,1.612,0,0,1-.375.558,2.935,2.935,0,0,0-.337.457,1.488,1.488,0,0,1,.056-.169,2.455,2.455,0,0,0-.427,1.3,1.289,1.289,0,0,0,.307.93,4.5,4.5,0,0,0,.675.543,7.871,7.871,0,0,0,3.748,8.186c.049.116.1.236.142.356a9.856,9.856,0,0,1,.75,4.5,1.634,1.634,0,0,1-.052.33c-.023.109-.1.112-.146.172h0s-6.818.068-8.426-1.387-4.052,3.55-4.052,3.55-2.444.472-2.931,0-3.355-.068-3.355-.068a6.165,6.165,0,0,0-4.243-1.552,12.614,12.614,0,0,0-3.126-1.739h0l-.075-.026h0a3.516,3.516,0,0,0-1.537-.195,31.532,31.532,0,0,1-4.333-4.258c-.978-1.484-5.622-7.005-5.656-7.031v-.266l-.052-.806a2.664,2.664,0,0,1-.416.038c-.026-.079-.056-.172-.094-.277a15.586,15.586,0,0,0-.99-2.275s0-1.012.3-1.267-.124-3.973-.124-3.973-3.021-7.065-5.727-1.792c0,0-5.116,3.415-.821,7.388,0,0,1.713.828,1.953,1.5.161.427.75,1.619,1.125,2.41l.176.356-.049.041.064.663.026.255c-.81.461-1.357.915-1.226,1.259a7.619,7.619,0,0,1,.491,1.825s5.915,7.421,6.683,10.607c0,0,15.926,9.464,21.166,10.139l-.907,4.734a37.843,37.843,0,0,0-.21,3.853c.067,1.016-.63,5.622-.63,5.622s-.907,6.747-1.675,7.706-.611,5-.611,5a34.152,34.152,0,0,1-1.049,5.746,15.061,15.061,0,0,0-.21,5.75s-2.654,6.083,3.7,1.96c0,0,3.122-.195,6.717-.319v.375c0,.461,0,.963-.023,1.5-.049,3.486-.067,8.287.09,11.923.281,6.421,2.249,19.134,2.249,19.134v6.372a8.763,8.763,0,0,0-.184,1.825,11.9,11.9,0,0,0,1.72,6.394l.491,4.258a16.675,16.675,0,0,1,1.169,4.5,2.6,2.6,0,0,1-.049.409,2.909,2.909,0,0,0-.056.652,36.793,36.793,0,0,0,1.1,6.559s.067,4.667.75,4.936c.6.232-.8,2.691-1.215,3.4a.25.25,0,0,0-.026-.135l-.086.142a3.267,3.267,0,0,0-.217,1.177,1.7,1.7,0,0,0,.776,1.642c1.327.81,2.039,1.5.911,1.758a12.071,12.071,0,0,0-1.229.259l-.06-.157a.75.75,0,0,0-.457.817,3.4,3.4,0,0,0,.416,1.582,18.035,18.035,0,0,0,1.874,3.448l.54-.06a2.885,2.885,0,0,1-.311.577,2.225,2.225,0,0,1-.791.7,2.383,2.383,0,0,1-.956.326,2.7,2.7,0,0,0-1.979.963c-.7.9-1.124,2.129.244,3.208l5,1.724s8.591,1.124,8.137-.813-.75-3.617-.75-3.617a7.615,7.615,0,0,0-.7-3.418,4.571,4.571,0,0,0-.3-.5l.3-.034s.63-4.262,1.466-5.071c.195-.187.24-.33.191-.442.086-.232-.131-.375-.412-.446l-.06.169a4.091,4.091,0,0,0-.836-.094s-.277-2.23.63-3.04a.862.862,0,0,0,.176-.663,3.723,3.723,0,0,0-.094-.911l-.034.053a33,33,0,0,0-2.005-5.247,6.393,6.393,0,0,1,.491-2.841c.562-.813-.071-11.02-.071-11.02s.21-4.936-.42-7.234.768-5,.768-5v-.15l.019-.034s-.034-.3-.082-.776v.045c-.142-1.3-.408-3.673-.6-4.768-.281-1.555.068-9,.068-9l1.259-3.179,2.249,5.48,2.376,7.3a6.211,6.211,0,0,1,1.2,3.1,1.521,1.521,0,0,1,0,.229,4.4,4.4,0,0,0-.026.491,4.325,4.325,0,0,0,.723,2.6s.63,3.448,1.608,4.329a3.9,3.9,0,0,1,.978,2.568,42.954,42.954,0,0,0,1.747,5.885,8.823,8.823,0,0,1,.491,3.4h0v.184s.165,1.788.157,3.291v.536a.155.155,0,0,1,0-.041,5.486,5.486,0,0,1-.146,1.218.128.128,0,0,1-.022.071l.022-.255a12.884,12.884,0,0,0-.375,3.118c-.034,1.8.24,3.928,1.331,5.176,1.874,2.166,3.073,1.9,3.073,1.9s-.907,2.7-2.028,3.242a.625.625,0,0,0-.116.079,1.179,1.179,0,0,0-.03-.157,1.312,1.312,0,0,0-.326,1.008,7.184,7.184,0,0,0,1.383,4.007,2.18,2.18,0,0,0,.945.551l-.176.109a3.856,3.856,0,0,1-.375.184,1.812,1.812,0,0,1-.57.146,2.677,2.677,0,0,0-1.979.963c-.7.9-1.124,2.125.244,3.2l5,1.724S623.024,549.462,622.57,547.531Z" transform="translate(-362.381 -255.183)" fill="url(#linear-gradient-2)"/>
    <path id="Tracé_1580" data-name="Tracé 1580" d="M658.131,816.174,653.3,814.45c-1.334-1.079-.907-2.305-.236-3.208a2.587,2.587,0,0,1,1.915-.963,2.246,2.246,0,0,0,.926-.326,2.169,2.169,0,0,0,.75-.7,3.533,3.533,0,0,0,.551-1.874s5.311-1.556,6.747,0a3.993,3.993,0,0,1,.645.941,7.868,7.868,0,0,1,.675,3.418s.274,1.69.708,3.617S658.131,816.174,658.131,816.174Z" transform="translate(-430.761 -520.624)" fill="#2d293d"/>
    <path id="Tracé_1581" data-name="Tracé 1581" d="M721.269,809.816l-4.835-1.724c-1.334-1.079-.911-2.305-.236-3.2a2.559,2.559,0,0,1,1.915-.963,1.7,1.7,0,0,0,.551-.146,2.852,2.852,0,0,0,.375-.184,3.07,3.07,0,0,0,1.316-2.567s5.307-1.556,6.747,0a3.625,3.625,0,0,1,.506.69,7.648,7.648,0,0,1,.813,3.673s.27,1.69.708,3.617S721.269,809.816,721.269,809.816Z" transform="translate(-470.233 -516.655)" fill="#2d293d"/>
    <path id="Tracé_1582" data-name="Tracé 1582" d="M671.053,807.382a3.992,3.992,0,0,1,.645.941h0l-7.957.922a3.534,3.534,0,0,0,.551-1.874S669.6,805.827,671.053,807.382Z" transform="translate(-437.836 -520.626)" opacity="0.1"/>
    <path id="Tracé_1583" data-name="Tracé 1583" d="M732.8,801.709v1.5c-1.233,2.039-7.219,1.593-8.958.57a2.865,2.865,0,0,0,.375-.184,3.069,3.069,0,0,0,1.316-2.567s5.307-1.556,6.747,0A3.623,3.623,0,0,1,732.8,801.709Z" transform="translate(-475.409 -516.655)" opacity="0.1"/>
    <path id="Tracé_1584" data-name="Tracé 1584" d="M682.844,655.045a13.805,13.805,0,0,0-.948,2.028v5.341c-1.349,2.249-8.381,1.5-9.329.27s-1.96-4.393-.877-4.933,1.96-3.246,1.96-3.246-1.151.27-2.976-1.893-1.286-6.964-.945-8.115a23.811,23.811,0,0,0,0-5s.068-2.7-.476-3.583a44.107,44.107,0,0,1-1.691-5.881,4,4,0,0,0-.944-2.571c-.945-.881-1.556-4.325-1.556-4.325a4.441,4.441,0,0,1-.686-2.9,5.874,5.874,0,0,0-1.147-3.516l-2.3-7.3-2.167-5.476-1.207,3.175s-.341,7.436-.068,9,.675,5.678.675,5.678a8.367,8.367,0,0,0-.75,5,34.861,34.861,0,0,1,.4,7.234s.607,10.21.067,11.02a6.633,6.633,0,0,0-.472,2.841s2.77,5.948,1.874,6.747-.611,3.044-.611,3.044,1.874,0,1.083.81-1.383,5.083-1.383,5.083l-8.175.944a16.987,16.987,0,0,1-1.833-3.448c-1.083-2.5.2-2.249,1.293-2.5s.4-.948-.885-1.758-.543-2.624-.543-2.624,1.96-3.313,1.286-3.587-.75-4.933-.75-4.933-1.353-5.547-1.016-7.032-1.083-5.071-1.083-5.071L646.2,629.3a11.722,11.722,0,0,1-1.5-8.044v-6.57s-1.874-12.71-2.163-19.134c-.172-4.123-.124-9.727-.068-13.231.034-1.964.068-3.265.068-3.265L671.757,576a24.121,24.121,0,0,0,.529,4.337c.3,1.6.75,3.681,1.5,6.278a28.5,28.5,0,0,1,.81,12.98l-.27,9.4s2.571,6.286,2.028,8.452a17.977,17.977,0,0,0-.54,3.921s5.746,13.726,5.139,17.714,1.874,10.277,1.874,10.277S683.519,653.827,682.844,655.045Z" transform="translate(-424.507 -376.404)" fill="#575988"/>
    <path id="Tracé_1585" data-name="Tracé 1585" d="M705.71,690.934l8.894-1.184S709.567,694.889,705.71,690.934Z" transform="translate(-464.075 -447.518)" opacity="0.05"/>
    <path id="Tracé_1586" data-name="Tracé 1586" d="M723.293,666.57s.3,3.145-1.623,4.329C721.674,670.9,725.122,670.356,723.293,666.57Z" transform="translate(-474.053 -433.026)" opacity="0.1"/>
    <path id="Tracé_1587" data-name="Tracé 1587" d="M707.052,639.88s-7.433,6.117-10.12,5.622S707.052,639.88,707.052,639.88Z" transform="translate(-458.355 -416.34)" opacity="0.1"/>
    <path id="Tracé_1588" data-name="Tracé 1588" d="M666.608,700.58s-5.645,1.282-5.813,3.549S666.608,700.58,666.608,700.58Z" transform="translate(-435.992 -454.289)" opacity="0.1"/>
    <path id="Tracé_1589" data-name="Tracé 1589" d="M669.417,775.8s-7.976,1.5-5.712,2.5a40.2,40.2,0,0,0,6,1.825S672.258,780.26,669.417,775.8Z" transform="translate(-437.561 -501.315)" opacity="0.05"/>
    <g id="Groupe_934" data-name="Groupe 934" transform="translate(217.907 202.453)" opacity="0.05">
      <path id="Tracé_1590" data-name="Tracé 1590" d="M658.368,784.838a1.589,1.589,0,0,1-.727-1.158l-.083.142s-.75,1.825.54,2.624c.15.094.289.187.416.277.24-.045.495-.079.75-.139C660.344,786.323,659.654,785.648,658.368,784.838Z" transform="translate(-651.743 -708.694)"/>
      <path id="Tracé_1591" data-name="Tracé 1591" d="M686.869,783c.221-.2.214-.723.079-1.391a3.769,3.769,0,0,0-.454,1.96A1.645,1.645,0,0,1,686.869,783Z" transform="translate(-669.966 -707.4)"/>
      <path id="Tracé_1592" data-name="Tracé 1592" d="M683.33,695.58a9.1,9.1,0,0,0-.54,2.485,9.79,9.79,0,0,1,.619-1.709S683.378,696.052,683.33,695.58Z" transform="translate(-667.652 -653.615)"/>
      <path id="Tracé_1593" data-name="Tracé 1593" d="M732.756,684.86a3.109,3.109,0,0,0,.075-.75c-.1.5-.172.971-.221,1.383A3.633,3.633,0,0,1,732.756,684.86Z" transform="translate(-698.799 -646.445)"/>
      <path id="Tracé_1594" data-name="Tracé 1594" d="M683.422,757.209a4.308,4.308,0,0,0,.2-1.5,5.1,5.1,0,0,0-.375,1.9A1.822,1.822,0,0,1,683.422,757.209Z" transform="translate(-667.94 -691.208)"/>
      <path id="Tracé_1595" data-name="Tracé 1595" d="M668.806,793.72a26.619,26.619,0,0,0-.929,4.153l-8.175.948a17.144,17.144,0,0,1-1.833-3.448c-.094-.221-.169-.416-.229-.6-.491.225-.682.75-.041,2.219a17.293,17.293,0,0,0,1.829,3.448l8.186-.948s.607-4.258,1.417-5.071C669.425,794.027,669.17,793.825,668.806,793.72Z" transform="translate(-651.648 -714.971)"/>
      <path id="Tracé_1596" data-name="Tracé 1596" d="M648.759,650.229s.067,4.667.75,4.936h0c.341-.772.57-1.5.266-1.627-.678-.27-.75-4.936-.75-4.936s-1.349-5.544-1.012-7.031-1.083-5.071-1.083-5.071l-.472-4.258a11.706,11.706,0,0,1-1.5-8.047v-6.559s-1.874-12.71-2.163-19.116c-.172-4.123-.124-9.745-.067-13.231,0-.633.019-1.2.03-1.668l-.232.023s-.038,1.3-.067,3.268c-.06,3.5-.109,9.116.067,13.227.27,6.424,2.163,19.134,2.163,19.134v6.559a11.7,11.7,0,0,0,1.5,8.047l.476,4.232s1.42,3.583,1.083,5.071S648.759,650.229,648.759,650.229Z" transform="translate(-642.403 -583.62)"/>
      <path id="Tracé_1597" data-name="Tracé 1597" d="M720.888,797.1a7.869,7.869,0,0,1-1.293-3.212c-.836.75.124,3.677,1.023,4.835.944,1.214,7.976,1.96,9.329-.27v-1.289C728.118,798.98,721.795,798.253,720.888,797.1Z" transform="translate(-690.462 -715.077)"/>
      <path id="Tracé_1598" data-name="Tracé 1598" d="M749.418,781.98a13.117,13.117,0,0,0-.948,2.028v.941c.154-.349.375-.81.678-1.357a4.041,4.041,0,0,0,.3-1.672A.231.231,0,0,0,749.418,781.98Z" transform="translate(-708.714 -707.594)"/>
      <path id="Tracé_1599" data-name="Tracé 1599" d="M718.234,768.29a13.046,13.046,0,0,0,.667-1.608s-1.151.27-2.976-1.874c-1.331-1.574-1.406-4.547-1.214-6.488-.341,1.147-.881,5.948.945,8.111A4.849,4.849,0,0,0,718.234,768.29Z" transform="translate(-687.391 -692.839)"/>
      <path id="Tracé_1600" data-name="Tracé 1600" d="M695.368,682.889a36.114,36.114,0,0,1,.135,4.007,5.859,5.859,0,0,1,.139-.63,23.779,23.779,0,0,0,0-5s.068-2.706-.472-3.583a44.558,44.558,0,0,1-1.69-5.885,3.983,3.983,0,0,0-.945-2.568c-.945-.877-1.555-4.329-1.555-4.329a4.426,4.426,0,0,1-.678-2.9,5.9,5.9,0,0,0-1.147-3.516l-2.3-7.305-2.163-5.476-1.218,3.178s0,.4-.041,1.027l.99-2.582,2.163,5.476,2.309,7.305a5.893,5.893,0,0,1,1.151,3.516,4.427,4.427,0,0,0,.678,2.9s.607,3.448,1.552,4.329a4,4,0,0,1,.948,2.567,44.717,44.717,0,0,0,1.69,5.885C695.45,680.187,695.368,682.889,695.368,682.889Z" transform="translate(-668.053 -622.431)"/>
    </g>
    <path id="Tracé_1601" data-name="Tracé 1601" d="M719.349,402.374l-.51,2.466.03,1.1.022.813-2.822.289-.315-.585h0a25.829,25.829,0,0,0-2.189-3.538c-.521-.439-1.451-7.3-.334-6.9a2.954,2.954,0,0,1,1.57,1.424S720.346,398.1,719.349,402.374Z" transform="translate(-468.449 -263.873)" fill="#ffcdd3"/>
    <path id="Tracé_1602" data-name="Tracé 1602" d="M723.977,422.815l-2.822.289-.315-.585h0a2.493,2.493,0,0,1,3.115-.514Z" transform="translate(-473.534 -279.921)" opacity="0.1"/>
    <path id="Tracé_1603" data-name="Tracé 1603" d="M724.421,424.559l-3.722.862-.075-.555-.214-1.5a2.56,2.56,0,0,1,3.6-.491l.184.75Z" transform="translate(-473.265 -280.331)" fill="#dce6f2"/>
    <path id="Tracé_1604" data-name="Tracé 1604" d="M555.33,393.957l-3.969,2.129-.375-.75c-.375-.791-.941-1.983-1.094-2.41-.236-.656-1.893-1.5-1.893-1.5-4.157-3.973.795-7.388.795-7.388,2.624-5.274,5.543,1.792,5.543,1.792s.4,3.722.12,3.973-.289,1.267-.289,1.267a15.389,15.389,0,0,1,.96,2.275C555.266,393.724,555.33,393.957,555.33,393.957Z" transform="translate(-364.437 -255.17)" fill="#ffcdd3"/>
    <path id="Tracé_1605" data-name="Tracé 1605" d="M563.084,412.712l-3.969,2.129-.375-.75c.558-.465,2.549-2.076,3.2-2.005a4.993,4.993,0,0,0,.941.026C563.02,412.48,563.084,412.712,563.084,412.712Z" transform="translate(-372.191 -273.926)" opacity="0.1"/>
    <path id="Tracé_1606" data-name="Tracé 1606" d="M563.714,414.4l-4.46,2.2-.09-.959-.064-.663s2.586-2.215,3.351-2.133a4.028,4.028,0,0,0,1.166,0l.049.8Z" transform="translate(-372.416 -274.401)" fill="#dce6f2"/>
    <path id="Tracé_1607" data-name="Tracé 1607" d="M674.425,431.614s-19.461,2.2-15.821,1.016a4.88,4.88,0,0,0,3.748-4.22,10.142,10.142,0,0,0-.727-4.5,19.357,19.357,0,0,0-1.739-3.516s14.877-8.182,11.9-.75a11.922,11.922,0,0,0-.843,3.523,9.851,9.851,0,0,0,.375,3.564A10.6,10.6,0,0,0,674.425,431.614Z" transform="translate(-434.341 -276.704)" fill="#ffcdd3"/>
    <path id="Tracé_1608" data-name="Tracé 1608" d="M674.68,419.641a11.923,11.923,0,0,0-.843,3.523c-1.4,1.177-2.939,1.1-4.91,1.1-1.5,0-3.193.375-4.408-.375a19.359,19.359,0,0,0-1.739-3.516S677.657,412.2,674.68,419.641Z" transform="translate(-437.236 -276.694)" opacity="0.1"/>
    <circle id="Ellipse_387" data-name="Ellipse 387" cx="8.047" cy="8.047" r="8.047" transform="translate(223.378 131.991)" fill="#ffcdd3"/>
    <path id="Tracé_1609" data-name="Tracé 1609" d="M674.425,447.247s-19.461,2.2-15.821,1.016a4.88,4.88,0,0,0,3.748-4.22,10.613,10.613,0,0,1,4.164-2.208,5.813,5.813,0,0,1,3.527-.056,4.9,4.9,0,0,1,1.282.592A10.6,10.6,0,0,0,674.425,447.247Z" transform="translate(-434.341 -292.336)" opacity="0.1"/>
    <path id="Tracé_1610" data-name="Tracé 1610" d="M724.777,426.538l-3.722.862-.075-.555a3.287,3.287,0,0,1,3.572-1.222Z" transform="translate(-473.621 -282.309)" opacity="0.1"/>
    <path id="Tracé_1611" data-name="Tracé 1611" d="M563.82,415.743l-4.46,2.2-.09-.96a32.8,32.8,0,0,1,4.5-1.994Z" transform="translate(-372.523 -275.743)" opacity="0.1"/>
    <path id="Tracé_1612" data-name="Tracé 1612" d="M672.385,580.344c-7.534,1.192-18.261,2.74-19.963,2.223-1.409-.431-5.918-.375-9.843-.251.034-1.964.068-3.265.068-3.265L671.857,576A24.122,24.122,0,0,0,672.385,580.344Z" transform="translate(-424.607 -376.404)" opacity="0.1"/>
    <path id="Tracé_1613" data-name="Tracé 1613" d="M625.878,478.314s-24.813,4.262-27.478,3.448-16.334.067-16.334.067c-6.151,4.123-3.583-1.96-3.583-1.96a15.138,15.138,0,0,1,.2-5.746,34.991,34.991,0,0,0,1.034-5.746s-.135-4.059.607-5,1.623-7.71,1.623-7.71.678-4.6.611-5.622a38.449,38.449,0,0,1,.2-3.853l.877-4.734c-5.071-.675-20.488-10.143-20.488-10.143-.75-3.175-6.488-10.615-6.488-10.615a7.72,7.72,0,0,0-.476-1.825c-.4-1.079,5.682-3.242,5.682-3.242s4.528,5.544,5.476,7.032a30.9,30.9,0,0,0,4.19,4.258,3.3,3.3,0,0,1,1.5.195l.079.023h0a12.123,12.123,0,0,1,3.029,1.739,5.87,5.87,0,0,1,4.123,1.555s2.774-.4,3.246.067,2.841,0,2.841,0,2.365-5,3.921-3.55,8.152,1.387,8.152,1.387c.881-1.169,3.021-2.009,4.359-2.44a5.84,5.84,0,0,1,3.527-.056,4.547,4.547,0,0,1,1.391.671l4,3.921s1.151-1.5,1.016-1.825,1.353-.607,1.353-.607,1.96-.611,2.7-.813,1.424.6,1.5.675a7.928,7.928,0,0,1-.334-2.972,3.5,3.5,0,0,0-.813-2.436c2.369-5.813,7.71-.944,7.71-.944s.607,3.178.067,4.393.54,3.789.4,4.464.27,1.825.27,3.111a18.245,18.245,0,0,1-1.083,4.8c-.409,1.079-3.651,3.516-3.651,3.516s-.2,3.857-1.623,6.087-.581,9.873-.581,9.873,1.353,5.963,3.055,7.871S625.878,478.314,625.878,478.314Z" transform="translate(-370.584 -276.143)" fill="#656691"/>
    <path id="Tracé_1614" data-name="Tracé 1614" d="M640.011,457.266s-.75-2.23-1.42-2.433a16.069,16.069,0,0,1-1.96-.881l.435-.832s2.538.7,2.946,1.439S640.011,457.266,640.011,457.266Z" transform="translate(-420.887 -299.581)" opacity="0.1"/>
    <path id="Tracé_1615" data-name="Tracé 1615" d="M599.125,448.055c-.135.675-6.154,1.286-6.154,1.286l3.044-3.051h0l.075.026h0a12.119,12.119,0,0,1,3.036,1.739Z" transform="translate(-393.591 -295.311)" opacity="0.1"/>
    <circle id="Ellipse_388" data-name="Ellipse 388" cx="0.54" cy="0.54" r="0.54" transform="translate(187.579 142.928)" fill="#575988"/>
    <circle id="Ellipse_389" data-name="Ellipse 389" cx="0.54" cy="0.54" r="0.54" transform="translate(188.273 144.011)" fill="#575988"/>
    <circle id="Ellipse_390" data-name="Ellipse 390" cx="0.54" cy="0.54" r="0.54" transform="translate(188.951 145.008)" fill="#575988"/>
    <circle id="Ellipse_391" data-name="Ellipse 391" cx="0.54" cy="0.54" r="0.54" transform="translate(189.66 146.091)" fill="#575988"/>
    <circle id="Ellipse_392" data-name="Ellipse 392" cx="0.439" cy="0.439" r="0.439" transform="translate(253.495 146.133)" fill="#575988"/>
    <circle id="Ellipse_393" data-name="Ellipse 393" cx="0.439" cy="0.439" r="0.439" transform="translate(253.562 147.13)" fill="#575988"/>
    <circle id="Ellipse_394" data-name="Ellipse 394" cx="0.439" cy="0.439" r="0.439" transform="translate(253.622 148.127)" fill="#575988"/>
    <path id="Tracé_1616" data-name="Tracé 1616" d="M645.74,513.06c-.064-.079,15.176,19.168,27.009,8.047C672.749,521.107,654.053,523.641,645.74,513.06Z" transform="translate(-426.582 -337.054)" opacity="0.1"/>
    <path id="Tracé_1617" data-name="Tracé 1617" d="M622.38,539.76s9.119.247,10.071,2.871v2.733a1.743,1.743,0,0,1-1.694,0c-.918-.5-6.436-3.3-8.377-1.953Z" transform="translate(-411.978 -353.747)" opacity="0.1"/>
    <path id="Tracé_1618" data-name="Tracé 1618" d="M622.83,539.76s8.722.236,9.633,2.74v2.6a1.672,1.672,0,0,1-1.623,0c-.877-.472-6.151-3.145-8.01-1.874Z" transform="translate(-412.259 -353.747)" fill="#656691"/>
    <path id="Tracé_1619" data-name="Tracé 1619" d="M635.66,486.92a29.468,29.468,0,0,0,3.535,6.068,23.8,23.8,0,0,0,5.54,5.349S635.81,488.176,635.66,486.92Z" transform="translate(-420.28 -320.712)" opacity="0.1"/>
    <path id="Tracé_1620" data-name="Tracé 1620" d="M627.7,458.65s1.522,6.567,5.442,8.8Z" transform="translate(-415.304 -303.038)" opacity="0.1"/>
    <path id="Tracé_1621" data-name="Tracé 1621" d="M621.245,460.417c-.037-.12-1.349,5.195,5.056,8.137C626.316,468.554,623.58,467.628,621.245,460.417Z" transform="translate(-411.184 -304.142)" opacity="0.1"/>
    <path id="Tracé_1622" data-name="Tracé 1622" d="M727.716,448.663a45.982,45.982,0,0,1,4.048,3.04S729.643,448.528,727.716,448.663Z" transform="translate(-477.831 -296.792)" opacity="0.1"/>
    <path id="Tracé_1623" data-name="Tracé 1623" d="M661.53,406.275a1.713,1.713,0,0,0,.63,1.087,1.735,1.735,0,0,0,.75.169c2.455.15,5.007.259,7.275-.686a2.751,2.751,0,0,0,1.124-.731,4.535,4.535,0,0,0,.645-1.78,23.359,23.359,0,0,1,1.5-3.418,11.466,11.466,0,0,0,.795-6.136,4.068,4.068,0,0,0-.611-1.8c-.652-.929-1.837-1.3-2.7-2.043s-1.413-1.874-2.418-2.429a4.666,4.666,0,0,0-3.036-.27,16.021,16.021,0,0,0-5.7,2.129,2.832,2.832,0,0,1-1.874.645,2.618,2.618,0,0,1-1.394-1.068,7.5,7.5,0,0,0-.6,3.5,1.552,1.552,0,0,1,0,.528,1.63,1.63,0,0,1-.375.558,2.02,2.02,0,0,0-.375,2.522c.259.311.66.48.915.795.454.566.3,1.376.289,2.1a1.071,1.071,0,0,0,.18.712,1.038,1.038,0,0,0,.993.236,2.756,2.756,0,0,1,1.057-.1,1.74,1.74,0,0,1,.918.708A13.008,13.008,0,0,1,661.53,406.275Z" transform="translate(-432.279 -258.943)" fill="#2d293d"/>
    <g id="Groupe_935" data-name="Groupe 935" transform="translate(222.548 130.926)" opacity="0.1">
      <path id="Tracé_1624" data-name="Tracé 1624" d="M671.527,416.709a2.719,2.719,0,0,1-1.124.75c-2.249.945-4.82.836-7.275.682a1.634,1.634,0,0,1-.75-.169,1.7,1.7,0,0,1-.63-1.087,12.528,12.528,0,0,0-2.05-4.757,1.739,1.739,0,0,0-.918-.708,2.683,2.683,0,0,0-1.057.1,1.046,1.046,0,0,1-.982-.236,1.079,1.079,0,0,1-.18-.716c0-.723.165-1.537-.289-2.1-.255-.319-.652-.484-.914-.795a1.589,1.589,0,0,1-.157-1.616,1.85,1.85,0,0,0-.112,2.155c.259.311.66.48.914.795.454.566.3,1.376.289,2.1a1.072,1.072,0,0,0,.18.712,1.038,1.038,0,0,0,.993.236,2.753,2.753,0,0,1,1.057-.1,1.739,1.739,0,0,1,.918.708,12.7,12.7,0,0,1,2.05,4.76,1.27,1.27,0,0,0,1.387,1.256c2.455.15,5.008.259,7.275-.686a2.751,2.751,0,0,0,1.125-.731,2.149,2.149,0,0,0,.349-.652,1.162,1.162,0,0,1-.1.094Z" transform="translate(-654.786 -401.086)"/>
      <path id="Tracé_1625" data-name="Tracé 1625" d="M657.61,396.688a1.123,1.123,0,0,0,.248-.4,1.574,1.574,0,0,0,0-.529,7.458,7.458,0,0,1,.375-2.912l-.045-.052a7.445,7.445,0,0,0-.6,3.5A2.283,2.283,0,0,1,657.61,396.688Z" transform="translate(-656.526 -392.79)"/>
    </g>
    <path id="Tracé_1626" data-name="Tracé 1626" d="M668.84,449.27s10.053,1.331,10.956-.18" transform="translate(-441.024 -297.062)" opacity="0.1"/>
    <path id="Tracé_1627" data-name="Tracé 1627" d="M721,438.47s5.581,0,6.81,2.1" transform="translate(-473.634 -290.422)" opacity="0.1"/>
    <path id="Tracé_1628" data-name="Tracé 1628" d="M1038.53,425s.7.911-.323,2.29-1.874,2.545-1.522,3.4c0,0,1.54-2.56,2.792-2.6S1039.909,426.522,1038.53,425Z" transform="translate(-670.944 -282.001)" fill="#f92626"/>
    <path id="Tracé_1629" data-name="Tracé 1629" d="M1038.6,425a1.252,1.252,0,0,1,.142.285c1.222,1.439,1.874,2.777.7,2.811-1.094.034-2.406,1.99-2.721,2.485a.331.331,0,0,0,.037.112c.015.038,1.54-2.56,2.792-2.6S1039.981,426.522,1038.6,425Z" transform="translate(-671.017 -282.001)" opacity="0.1"/>
    <path id="Tracé_1630" data-name="Tracé 1630" d="M1044.931,427.708c0,.322-.034.585-.079.585s-.082-.262-.082-.585.045-.169.09-.169S1044.931,427.389,1044.931,427.708Z" transform="translate(-676.049 -283.565)" fill="#ffd037"/>
    <path id="Tracé_1631" data-name="Tracé 1631" d="M1045.475,428.712c-.281.154-.529.247-.547.206s.188-.195.472-.349.169-.041.191,0S1045.76,428.558,1045.475,428.712Z" transform="translate(-676.147 -284.183)" fill="#ffd037"/>
    <path id="Tracé_1632" data-name="Tracé 1632" d="M1029.281,425s-.7.911.322,2.29,1.874,2.545,1.522,3.4c0,0-1.54-2.56-2.8-2.6S1027.9,426.522,1029.281,425Z" transform="translate(-665.384 -282.001)" fill="#f92626"/>
    <path id="Tracé_1633" data-name="Tracé 1633" d="M1029.281,425a1.136,1.136,0,0,0-.146.285c-1.222,1.439-1.874,2.777-.7,2.811,1.094.034,2.41,1.99,2.725,2.485a.328.328,0,0,1-.038.112c-.015.038-1.54-2.56-2.8-2.6S1027.9,426.522,1029.281,425Z" transform="translate(-665.384 -282.001)" opacity="0.1"/>
    <path id="Tracé_1634" data-name="Tracé 1634" d="M1028.43,427.71c0,.322.038.585.082.585a1.183,1.183,0,0,0,.079-.585c0-.319-.045-.169-.09-.169S1028.43,427.391,1028.43,427.71Z" transform="translate(-665.834 -283.568)" fill="#ffd037"/>
    <path id="Tracé_1635" data-name="Tracé 1635" d="M1026.953,428.712c.285.154.529.247.551.206s-.191-.195-.472-.349-.172-.041-.195,0S1026.672,428.558,1026.953,428.712Z" transform="translate(-664.802 -284.183)" fill="#ffd037"/>
    <path id="Tracé_1636" data-name="Tracé 1636" d="M1029,438.06a7.145,7.145,0,0,0,2.541-.48c.589-.42,3-.918,3.152-.247s2.935,3.343.749,3.373a18.348,18.348,0,0,1-5.712-.7C1029.142,439.645,1029,438.06,1029,438.06Z" transform="translate(-666.19 -289.506)" fill="#a8a8a8"/>
    <path id="Tracé_1637" data-name="Tracé 1637" d="M1035.469,442.223a19.3,19.3,0,0,1-5.708-.7c-.45-.274-.626-1.252-.686-1.7H1029s.124,1.578.712,1.934a18.7,18.7,0,0,0,5.712.7c.637,0,.855-.232.844-.566C1036.185,442.091,1035.945,442.219,1035.469,442.223Z" transform="translate(-666.19 -291.266)" opacity="0.2"/>
  </g>
</svg>
