<svg id="white" xmlns="http://www.w3.org/2000/svg" xmlns:xlink="http://www.w3.org/1999/xlink" width="849.262" height="792.563" viewBox="0 0 849.262 792.563">
  <defs>
    <radialGradient id="radial-gradient" cx="0.48" cy="0.471" r="0.842" gradientTransform="translate(0.033) scale(0.933 1)" gradientUnits="objectBoundingBox">
      <stop offset="0.27" stop-color="#e83b3b"/>
      <stop offset="0.34" stop-color="#e83e3e"/>
      <stop offset="0.38" stop-color="#e94646"/>
      <stop offset="0.42" stop-color="#eb5455"/>
      <stop offset="0.45" stop-color="#ed6869"/>
      <stop offset="0.46" stop-color="#ee7576"/>
      <stop offset="0.48" stop-color="#f18c8d"/>
      <stop offset="0.51" stop-color="#f5afb0"/>
      <stop offset="0.55" stop-color="#f9cccd"/>
      <stop offset="0.58" stop-color="#fce3e3"/>
      <stop offset="0.62" stop-color="#fdf3f3"/>
      <stop offset="0.67" stop-color="#fffcfc"/>
      <stop offset="0.73" stop-color="#fff"/>
    </radialGradient>
    <radialGradient id="radial-gradient-2" cx="0.024" cy="1.595" r="10.129" gradientTransform="translate(0.357) scale(0.287 1)" xlink:href="#radial-gradient"/>
    <radialGradient id="radial-gradient-3" cx="3.945" cy="1.128" r="9.975" gradientTransform="translate(-0.15) scale(1.3 1)" xlink:href="#radial-gradient"/>
    <radialGradient id="radial-gradient-4" cx="-2.854" cy="1.146" r="12.521" gradientTransform="translate(-0.034) scale(1.069 1)" xlink:href="#radial-gradient"/>
  </defs>
  <path id="Path_4" data-name="Path 4" d="M69.9,577.439c25.012-32.947,48.279-67.271,68.733-103.245a679.493,679.493,0,0,0,30.886-61.02c8.8-19.924,18.085-40.677,21.13-62.422,3.2-22.848-1.838-45.32-15.537-64.073-11.176-15.263-27.628-30.159-47.484-31.228-16.683-.9-29.689,11.21-36.975,25.106-8.294,15.819-11.766,34.2-12.142,51.964-.359,17.1,2.873,33.6,10.706,48.809,9.141,17.718,21.694,33.648,32.186,50.571a559.238,559.238,0,0,1,56.941,122.844,631.418,631.418,0,0,1,16.2,61.567c1.967,9.192,3.2,18.419,2.625,27.842a67.552,67.552,0,0,1-8.337,27.9c-4.19,7.781-9.406,15.246-16.247,20.941a29.815,29.815,0,0,1-8.047,4.891,13.431,13.431,0,0,1-9.15.5c-13.553-3.951-21.078-24.918-21.839-38.163-1.026-18.034,6.841-34.64,16.307-49.468,7.328-11.433,14.8-22.729,21.7-34.435,18.983-32.212,35.418-65.9,50.348-100.166q7.32-16.8,14.2-33.794L219.7,440.136a118.422,118.422,0,0,0,8.312,43.242c5.131,12.69,12.211,27.56,22.729,36.709,9.466,8.235,21.916,9.406,31.134.308,9.056-8.927,14.032-22.292,19.223-33.605,5.738-12.493,12.245-25.482,14.383-39.206.855-5.618,1.257-11.809-1.847-16.863-6.8-11.116-24.644-18.359-36.53-11.356-14.1,8.346-9.577,30.578,2.668,38.1,10.945,6.721,25.773,4.421,37.547,1.488a78.324,78.324,0,0,0,39.2-24.251l-13.134-10.124c-9.312,21.514-18.043,44.175-21.626,67.433-1.838,11.886-3.42,26.927,5.25,36.718,9.158,10.381,23.763,6.747,34.683,1.71,14.648-6.764,27.654-17.581,39.625-28.218,11.51-10.261,22.712-21.215,32.4-33.221,12.972-16.067,20.89-38.394,9.278-57.5-4.934-8.123-13.536-15.392-23.6-14.665-10.415.753-19.214,8.551-24.114,17.376-4.327,7.781-6.2,17.256-3.378,25.884,2.429,7.388,7.345,13.63,12.827,19.017,7.26,7.14,15.6,13.228,23.8,19.24,9.449,6.926,18.992,13.682,28.937,19.915,3.42,2.129,6.841,4.207,10.261,6.371,1.334.855,2.659,1.71,3.951,2.565.641.453,1.283.855,1.907,1.377-1.411-1.077.855.744,1.086.949a26.926,26.926,0,0,1,2.7,2.8c-1.385-1.71.419.855.727,1.342s.787,2.206.145.231c.2.607.393,1.2.547,1.813a14.886,14.886,0,0,1,.5,4.934c0,6.2-2.223,14-8.662,16.888a14.854,14.854,0,0,1-10.2.778c-3.352-1.129-4.224-2.847-4.985-5.567-3.318-11.971,2.3-27.491,5.806-39.779,3.292-11.527,6.841-22.968,10.552-34.384,9.338-28.988,19.3-57.779,29.424-86.5,15-42.541,30.527-84.886,46.107-127.213a15.218,15.218,0,0,0,.992-4.13c.983-8.466-11.792-11.056-15.571-4.224-3.164,5.721-4.942,12.6-7.174,18.718Q520.9,268.064,516.753,281c-4.84,15.178-9.1,30.536-12.63,46.073a427.015,427.015,0,0,0-10.586,75.249,318.113,318.113,0,0,0,1.984,51.99c1.325,11.116,2.83,22.318,5.695,33.161,2.454,9.286,6.524,22.583,16.914,25.747,15.315,4.66,24.712-16.324,30.536-26.679a276.866,276.866,0,0,0,21.968-48.963l-16.418-2.223c-1.608,13.374-.582,26.919,1.342,40.19a153.642,153.642,0,0,0,11.3,40.335c3.061,6.909,13.425,4.335,15.272-1.992,2.984-10.159,6.225-20.257,10.013-30.151,2.736-7.157,5.4-13.8,10.03-21.309.752-1.223,1.625-2.36,2.377-3.566.53-.855-1.206,1.308.308-.333.436-.47.855-.941,1.308-1.394.265-.282,1.933-1.582.581-.6-1.522,1.112.222-.205.419-.2a2.783,2.783,0,0,0,.693-.351s-2.2.855-1.18.539c1.642-.5-2.283,0-.616.077,1.2,0-2.565-.522-.915-.077-.855-.239-1.958-1.026-.735-.222.744.5-1.761-1.531-.47-.282s-.855-1.667.094.094c.274.522.607,1.035.906,1.548.205.351.351.744.547,1.112.5.958-.607-1.582-.205-.513.675,1.8,1.283,3.609,1.787,5.473,3.848,14.118,4.447,28.851,5.131,43.542.419,9.132,14.007,11.7,16.409,2.223a264.782,264.782,0,0,1,10.5-33.486,96.83,96.83,0,0,1,4.917-10.441c.778-1.419,1.6-2.813,2.48-4.173.462-.718.949-1.411,1.437-2.1.855-1.18-.718.684.539-.658.855-.915,1.77-1.77,2.634-2.677s-1.274.667-.094.094a9.232,9.232,0,0,0,1.385-.8c.18-.137-1.839.556-.24.2,1.36-.308-2.052.128-.693.077s0-.06-.71-.171c1.2.18,1.2.376-.162-.205a9.645,9.645,0,0,1,1.078.633c-.958-.564-1.069-1.077-.282-.145.376.445.8.855,1.2,1.308.59.667-.479-.607-.47-.6.214.325.453.641.658.975.667,1.146,1.317,2.283,1.9,3.472.214.445.411.855.607,1.342-.068-.154-.462-1.12-.1-.2s.693,1.83,1,2.762c3.8,11.176,5.353,23.088,6.507,34.8.94,9.577,12.886,11.116,16.418,2.223,4.515-11.364,9.15-22.729,14.708-33.631a102.312,102.312,0,0,1,5.285-9.269c.564-.855,2.565-3.284.778-1.265.581-.65,1.231-1.317,1.779-1.992,1.18-1.471-1.83.941,0,0a7.608,7.608,0,0,1-2.745.752c-2.711-.06-5.421-1.813-5.875-3.95.351,1.65.855,3.275,1.24,4.925,2.659,12.587,6.259,25.243,11.9,36.855,6.3,12.972,18.5,18.4,32.6,15.922a80.849,80.849,0,0,0,25.123-9.252c10.09-5.789,18.325-14.537,21.933-25.764s3.1-26.508-3.745-36.5c-8.064-11.766-21.745-10.475-32.006-2.3a34.042,34.042,0,0,0-12.715,32.485c3.155,20.856,22.292,42.755,43.114,47.449,19.787,4.421,34.64-9.663,44.123-25.4,9.047-15.016,14.887-32.1,19.479-48.946a249.988,249.988,0,0,0,.573-127.316c-10.5-40.19-31.784-76.856-59.686-107.443a302.707,302.707,0,0,0-83.954-64.432c-34.2-17.692-71.914-26.645-110.188-29.544a331.7,331.7,0,0,0-76.3,3c-21.66,3.42-43.345,9.192-62.876,19.359-14.665,7.628-29.313,18.812-36.145,34.307-8.867,20.146-5.55,50.049,12.39,64.543,18.94,15.306,48.082,6.73,64.218-8.722,15.443-14.853,16.572-36.479,11.168-56.095-6.422-23.4-20.274-44.628-35.854-62.953-17.606-20.711-39.249-38.625-63.842-50.383-44.816-21.412-96.977-23.31-145.273-15.341A307.357,307.357,0,0,0,128.1,95.5c-37.83,27.568-69.554,63.354-91.444,104.75C13.312,244.395.811,294.58,3.787,344.552,6.352,387.863,19.529,429.4,39.6,467.687c19.419,37.034,47.107,67.638,79.473,93.8,36.992,29.928,76.651,56.334,113.344,86.682A966.808,966.808,0,0,1,361.338,777.2c12.878,15.571,25.054,31.331,36.9,47.7,2.865,3.968,9.355,6.182,13.126,1.71,33.742-40.19,70.212-76.583,115.259-103.074,19.009-11.176,38.856-20.847,58.6-30.647,24.678-12.237,49.177-24.8,73.137-38.377,30.912-17.53,60.353-38.1,88.46-59.8,3.566-2.745,5.481-7.183,3-11.433-2.052-3.506-7.841-5.772-11.433-2.993a861.865,861.865,0,0,1-76.557,52.725c-25.132,15.392-51.52,28.757-77.874,41.9-20.044,9.988-40.267,19.667-59.754,30.732A378.593,378.593,0,0,0,468.79,743.85c-25.456,21.181-47.988,45.637-69.263,70.973l13.126,1.71a987.173,987.173,0,0,0-91.188-108.828c-39.48-40.694-82.646-77.19-128.068-111.052-32.152-24-65.313-46.227-93.659-74.83C74.623,496.5,55.17,465.387,41.591,433c-17.9-42.575-26.286-91.949-18.958-138.62A280.071,280.071,0,0,1,71.707,175.337,293.6,293.6,0,0,1,295.889,53.562c47.193-2.138,95.061,7.491,132.412,37.967a199.093,199.093,0,0,1,46.227,53.487,122.005,122.005,0,0,1,12.39,28,74.857,74.857,0,0,1,2.488,12.108c.171,2.172.3,4.344.265,6.533,0,.983-.068,1.958-.137,2.942a11.5,11.5,0,0,1-.111,1.24c-.154,1.556.077-.3-.085.607a41.858,41.858,0,0,1-1.283,5.413c-.274.855-.573,1.71-.915,2.565.573-1.4-.573,1.1-.8,1.5a32.494,32.494,0,0,1-9.244,10.612c-7.439,5.652-17.008,9.132-25.969,9.03a20.2,20.2,0,0,1-10.749-2.771c-3.42-2.086-6.054-5.592-8.123-9.526a45.731,45.731,0,0,1-4.1-28.364,44.117,44.117,0,0,1,1.762-6.533c.231-.624.983-2.3.3-.812.419-.924.855-1.838,1.351-2.745a46.367,46.367,0,0,1,2.514-4.139c.47-.684.949-1.351,1.445-2.009-1.009,1.325.633-.735.966-1.12a69.734,69.734,0,0,1,8.209-7.918c.3-.257.616-.5.923-.753,1.069-.855-.855.65.231-.171.77-.573,1.548-1.137,2.334-1.71,1.71-1.214,3.523-2.369,5.336-3.42,16.632-10.082,35.384-15.657,54.8-19.488,46.381-9.15,95.857-6.687,141.3,6.131,5.858,1.659,11.672,3.361,17.393,5.456,2.984,1.094,5.943,2.266,8.876,3.489-1.77-.735.419.18.855.359l2.223.975q2.565,1.154,5.131,2.36a283.888,283.888,0,0,1,39.651,22.925c27.748,19.094,54.017,44.73,73.068,73.214,22.079,33.092,35.718,70.973,38.411,110.761a238.238,238.238,0,0,1-16.692,105.836c-1.035,2.565-3.147,7.14-4.942,10.595a98.6,98.6,0,0,1-6.678,11.116,47.206,47.206,0,0,1-6.73,7.7c-.633.59-1.291,1.163-1.967,1.71,1.325-1.052-.932.616-1.231.8-.693.445-1.4.855-2.121,1.24l-.932.47c-1.411.727.727-.231-.205.085-.752.257-1.5.513-2.266.7-.436.111-2.565.462-1.556.351s-1.522,0-1.967,0a11.115,11.115,0,0,1-1.71-.094c.924.086,0,0-.4-.068-4.669-.855-7.867-2.48-11.971-5.25a51.846,51.846,0,0,1-17.82-21.506,27.466,27.466,0,0,1-2.488-11.493,10.157,10.157,0,0,1,.1-1.761c0,.393-.291,1.317.077-.351a15.929,15.929,0,0,1,4.788-8.748,18.488,18.488,0,0,1,5.25-3.976,6.156,6.156,0,0,1,2.1-.735c1.471-.316-1,0,.419-.06.522,0,.573,0,.145-.077s-.376-.077.513.137c0,0-1.2-.547-.214-.06,1.154.573-.8-.718.231.12s.556.385,1.154,1.334a17.5,17.5,0,0,1,2.275,5.986c2.18,9.286,0,19.5-6.49,26.243a37.832,37.832,0,0,1-10.389,7.491c-.855.453-1.71.855-2.565,1.283-.462.214-2.642,1.129-1.112.5q-2.129.855-4.276,1.6c-4.549,1.539-9.457,3.42-14.323,3.318a10.646,10.646,0,0,1-6.294-2.027,12.8,12.8,0,0,1-1.231-1.257,8.8,8.8,0,0,1-1.411-2c-3.061-5.037-4.849-10.868-6.73-16.418a152,152,0,0,1-4.754-17.581c-1.411-6.721-3.42-15.255-12.023-15.246-4.583,0-8.226,3.019-10.937,6.413a89.829,89.829,0,0,0-9.936,16.743c-5.49,11.253-10.261,22.874-14.845,34.5l16.35,2.215c-1.257-12.724-2.771-25.747-6.687-37.975-2.36-7.388-5.763-15.811-12.6-20.172-15.3-9.765-27.731,9.406-33.2,21.078-6.388,13.6-10.74,28.081-14.425,42.618l16.418,2.215c-.71-15.392-1.556-31.186-5.25-46.176-1.864-7.568-4.96-16.957-12.827-20.172-17.008-6.935-27.414,20.309-32.109,31.6a355.633,355.633,0,0,0-12.715,36.923l15.272-1.992c-5.062-11.364-7.9-24.063-9.611-36.359a138.647,138.647,0,0,1-.744-35.752c.487-4.07-3.557-7.764-7.251-8.209a8.423,8.423,0,0,0-9.167,5.986,232.894,232.894,0,0,1-16.409,38.018c-3.8,7-7.619,14.092-12.065,20.711a34.452,34.452,0,0,1-3.78,4.729c-.162.18-1.428,1.214-.581.581s-.359.325-.556.3c-1.018-.1,1.385-.188.342-.162-.855,0,1.71.043,2.044.068-2.112-.171.966.265-.282-.111,1.454.436.556.445-.4-.522s0,0,.145.222c-.257-.359-.522-.727-.744-1.112-.616-1.06-1.2-2.129-1.71-3.241-.094-.2-.624-1.428-.12-.205-.214-.522-.411-1.043-.607-1.573-.41-1.095-.787-2.215-1.137-3.335-.761-2.394-1.411-4.823-1.992-7.268-1.291-5.379-2.275-10.843-3.113-16.307-.65-4.276-.966-6.841-1.531-11.706-4.455-38.574-1.129-77.1,6.926-114.7,3.42-15.93,7.619-31.681,12.442-47.244q4.079-13.177,8.739-26.175,2.386-6.713,4.925-13.365c.436-1.163,3.42-6.644,2.933-7.61-.154-.3,4.122-7.02-.778,1.847l-15.571-4.216c.5-4.275-.1-1.129-.6.231l-2.377,6.285q-4.156,11.236-8.286,22.481Q507,306.218,493.879,342.774c-10.133,28.5-20.163,57.1-29.775,85.792-7.7,23.088-15.486,46.227-21.677,69.776-3.985,15.161-9.346,36.769,2.8,49.715,6.918,7.354,18.248,8.91,27.654,6.328,9.765-2.694,16.794-9.9,20.454-19.171,5.481-13.912,2.847-29.869-9.047-39.283-6.071-4.823-12.827-8.645-19.411-12.758-9.586-5.986-18.812-12.587-27.919-19.274-7.465-5.473-14.981-11.056-21.472-17.692a34.046,34.046,0,0,1-5.7-7.029c-.342-.564-.633-1.154-.966-1.71-.205-.342-.855-1.9-.282-.428a20.234,20.234,0,0,1-.727-2.1c-.111-.376-.693-3.378-.428-1.308-.855-6.909,2.967-14.391,8.611-18.325,2.771-1.933,4.609-2.275,6.841-1.3,2.086.915,4.789,4.19,6.319,6.909,8.637,15.332-3.1,31.912-13.28,43.277a320.351,320.351,0,0,1-33.708,32.494,170.951,170.951,0,0,1-18.427,13.528c-5.917,3.711-10.74,6.353-16.307,7.858a32.811,32.811,0,0,1-3.275.71c2.283-.376-1.351,0-2.027,0-2.4,0,1.163.222-1.052-.2-.65-.12-1.95-.941,0,.12-.624-.333-1.206-.675-1.8-1.06,2.36,1.539-1.24-2.206.222.145-.462-.753-.855-1.5-1.3-2.275,1.129,2.172-.265-1.018-.453-1.77-.128-.487-.2-1-.325-1.488-.556-2.146.043,1.137-.12-.633-1.154-12.827,1.77-23.832,5.481-36.769a354.568,354.568,0,0,1,12.091-34.751c.7-1.753,1.428-3.5,2.155-5.25.855-2.027-.8,1.838.171-.4.2-.462.393-.932.6-1.394,1.659-3.831,1.445-8.1-2.155-10.783-3.155-2.36-8.158-2.505-10.971.65-6.721,7.542-14.836,14.075-24.379,17.675a76.553,76.553,0,0,1-12.083,3.318,45.522,45.522,0,0,1-12.185,1.095c-3.249-.12-7.208-.855-8.927-2.822a8.611,8.611,0,0,1-1.933-4.583c0-.2-.043-2.061-.06-1.933.051-.385.7-2.668.188-1.531.18-.4,1.283-.855.205-.282.077,0,1.2-.5.479-.265.342-.1.051-.068,1.026-.1a14.4,14.4,0,0,1,6.542,1.377c2.505,1.12,4.122,3.258,5.832,4.7,1.257,1.06-.949-2.172-.214-.5s-.41,1.83.154.214a13.685,13.685,0,0,0,.043,2.89c0,.6-.094,1.2-.145,1.8,0,.47-.282,1.531.068-.479-.077.428-.128.855-.214,1.283-2.309,11.048-6.841,21.378-11.493,31.57s-9.038,20.976-15.614,30.108c-.573.8.051,0,.145-.162-.3.376-.607.752-.924,1.1-.522.581-1.112,1.1-1.633,1.71-1.308,1.471.658-.256-.428.41a11.143,11.143,0,0,0-.958.59c-1.189.855,1.137-.3.274-.051-.59.171-1.206.308-1.779.487,1.856-.573.368-.051,0-.085a9.792,9.792,0,0,1-4.275-2.172c-3.7-3-7.183-8.406-9.834-12.912a134.665,134.665,0,0,1-8.731-17.059,102.954,102.954,0,0,1-7.439-38.095,8.346,8.346,0,0,0-7.243-8.209c-4.429-.522-7.559,2.018-9.167,5.986-15.563,38.326-32.767,76.053-52.768,112.275q-10.62,19.231-22.412,37.77c-8.235,12.878-16.837,25.217-22.378,39.583-7.405,19.18-7.405,39.685.761,58.574,7.277,16.657,22.121,32.579,41.977,28.817,17.8-3.369,31.091-20.916,38.89-36.051,10.039-19.479,11.629-40.25,7.7-61.567-7.875-42.584-21.566-84.321-39.018-123.9a567.99,567.99,0,0,0-31.553-61.242c-10.732-18.034-23.344-34.879-33.973-52.956a83.8,83.8,0,0,1-11.971-43.388c-.1-16.007,2.565-33.238,10.116-47.347,6.567-12.3,15.477-19.727,29.338-14.759,16.555,5.926,30.476,23.669,36.29,39.762,7.551,20.916,3.138,42.319-4.275,62.576A543.661,543.661,0,0,1,139.628,437.2c-19.53,38.206-42.516,74.59-67.587,109.367q-8.149,11.313-16.572,22.4c-2.736,3.6-.564,9.355,2.993,11.441,4.275,2.505,8.7.607,11.441-3Z" transform="translate(-3.353 -36.518)" fill="url(#radial-gradient)"/>
  <path id="Path_5" data-name="Path 5" d="M487.934,413.9q1.95-1.582,3.933-3.113l-1.71,1.308a216.054,216.054,0,0,1,36.872-22.865q5.55-2.719,11.262-5.131l-2,.855A230.775,230.775,0,0,1,581.825,371.1q6.661-1.291,13.382-2.2l-2.223.3a230.008,230.008,0,0,1,47.407-1.445q6.67.5,13.3,1.385l-2.223-.3a215.513,215.513,0,0,1,41.575,9.876,8.356,8.356,0,1,0,4.447-16.11,231.307,231.307,0,0,0-89.161-11.689,244.128,244.128,0,0,0-45.594,7.4,238.632,238.632,0,0,0-43.208,16.033,215.954,215.954,0,0,0-37.625,23.2c-1.941,1.488-3.865,2.984-5.763,4.523-1.565,1.266-2.454,3.993-2.454,5.909a8.5,8.5,0,0,0,2.454,5.909,8.38,8.38,0,0,0,5.909,2.446l2.215-.291a8.418,8.418,0,0,0,3.694-2.155Z" transform="translate(-71.503 -82.002)" fill="url(#radial-gradient-2)"/>
  <path id="Path_6" data-name="Path 6" d="M263.9,424.511c-1.471-1.445-2.942-2.9-4.335-4.429-.676-.735-1.317-1.5-1.958-2.275-.436-.513.12-.231.214.3,0-.12-.376-.5-.419-.556a14.631,14.631,0,0,1-.855-1.291,27.1,27.1,0,0,1-1.488-2.565c-.214-.411-.385-.855-.6-1.257.761,1.479,0-.171-.171-.633a19.259,19.259,0,0,1-.521-2.181c-.171-.9.085.641.085.633a1.986,1.986,0,0,1-.051-.564,13.093,13.093,0,0,1,0-1.419c.051-.47,0-.761.051-1.137,0-.188.051-.376.06-.564-.051,1.548-.162,1.06-.077.641a17.032,17.032,0,0,1,.641-2.437c.06-.18.428-1.06,0-.1s-.111.248,0,.043.334-.641.522-.958c.3-.479,1.189-1.283,0-.086.282-.282.522-.616.8-.855s1.2-1.009.35-.351.325-.179.564-.316l.487-.257c.453-.248.564,0-.581.24.419-.077.855-.257,1.283-.368s.761.111-.7.085a2.225,2.225,0,0,0,.53-.043h1.052c.906,0-.744-.086-.693-.111a1.975,1.975,0,0,1,.522.094,11.042,11.042,0,0,1,1.291.351c.162.06.333.137.5.188-1.428-.385-.855-.376-.351-.12.359.188.7.385,1.043.607.145.1.291.214.445.308.47.3-1.129-.992-.291-.2.291.274.581.547.855.855.111.12.222.282.342.4-1.112-1.06-.522-.71-.239-.274.128.205.693.915.641,1.154,0,.051-.513-1.454-.265-.6.077.257.171.5.231.761s.077.342.12.513c.222.949-.145-1.445-.068-.41a5.584,5.584,0,0,0,10.945,1.479c.393-1.342.787-2.694,1.257-4.01l.359-.992.128-.325c.231-.547.171-.428-.154.368.162-.12.342-.744.436-.941a13.56,13.56,0,0,1,.658-1.214c.231-.359.351-.6.547-.855.094-.137.8-.958.171-.273l.222-.24c.205-.231.419-.436.641-.65s.436-.385.65-.573c.8-.718-1.129.752-.239.2.513-.325,1.069-.59,1.582-.906-1.283.8-.958.376-.419.2a6.182,6.182,0,0,1,.676-.214c.231-.06.453-.1.684-.145.949-.2-1.548.1-.59.086h1.095c.941,0-1.531-.333-.633-.094.273.077.547.12.855.2s.393.171.59.214c-1.488-.325-1.086-.53-.573-.205.171.111.359.214.539.317.607.359.222.607-.453-.359a8.16,8.16,0,0,0,.9.906c-1.06-1.035-.71-.992-.47-.607.171.248.333.5.479.753s.2.419.308.624c-.8-1.454-.385-.949-.222-.453s.222.975.359,1.462c-.436-1.548-.111-1.009-.077-.428v1.71c-.1,1.539.291-1.069,0,.085-.154.6-.282,1.2-.479,1.8-.043.145-.239.983-.376,1.043l.273-.65c-.1.231-.205.453-.316.675a36.358,36.358,0,0,1-2.446,4.224c-3.668,5.627-7.474,11.168-11.21,16.743l-13.015,19.411a5.607,5.607,0,0,0,1.992,7.628,5.712,5.712,0,0,0,7.628-2l12.553-18.975c4.13-6.165,8.483-12.236,12.382-18.547,3.7-5.986,5.866-13.741,2.044-20.24a13.22,13.22,0,0,0-15.392-5.815A18.2,18.2,0,0,0,267.488,393c-2.2,3.215-3.369,7.1-4.455,10.8l10.945,1.479A15.554,15.554,0,0,0,266,392.736a15.28,15.28,0,0,0-14.947-.257,17.033,17.033,0,0,0-7.952,11.484A23.292,23.292,0,0,0,245.272,419c2.565,5.131,6.738,9.406,10.783,13.374a5.575,5.575,0,0,0,7.884-7.884Z" transform="translate(-38.033 -87.027)" fill="url(#radial-gradient-3)"/>
  <path id="Path_7" data-name="Path 7" d="M670.513,444.5c-.573-.59-1.129-1.2-1.659-1.821-.3-.342-.582-.693-.855-1.043-.154-.18-.3-.359-.444-.547-.573-.71.958,1.266.137.171-1.257-1.659-2.437-3.42-3.523-5.173a60.832,60.832,0,0,1-3.181-5.883c-.239-.5-.47-1.018-.7-1.531-.436-.992.53,1.308.137.3-.069-.171-.146-.342-.205-.513a33.393,33.393,0,0,1-1.172-3.369,31.1,31.1,0,0,1-.752-3.078c-.085-.419-.136-.855-.214-1.266.385,2.129,0,.06,0-.5a22.934,22.934,0,0,1,0-2.865c.077-.992-.248,1.531-.077.556l.077-.445a11.954,11.954,0,0,1,.385-1.539c.068-.214.145-.419.222-.633.308-.855-.641,1.359-.222.5.205-.393.4-.8.633-1.171.12-.2.248-.376.376-.564.522-.8-.949,1.12-.316.4.308-.351.736-.676,1.009-1.043-.676.915-.761.547-.154.18a5.591,5.591,0,0,0,.778-.419l-.787.316.556-.2a7.445,7.445,0,0,1,.855-.24c.616-.145,1.095.086-.308,0,.282,0,.6-.051.855-.06s.6,0,.855,0c1.086,0-1.274-.282-.3-.043.291.068.581.128.855.205a5.418,5.418,0,0,1,.564.188c.547.205.376.128-.5-.222a5.645,5.645,0,0,0,.778.419c.171.1.333.214.5.325-.727-.582-.855-.693-.428-.325.214.205.428.4.625.616.984,1.06-.428-.786,0,0,.145.248.308.488.436.744s.18.351.257.522l-.342-.787c.394.436.359,1.419.522,1.967-.436-1.454-.111-.906-.085-.325v1.163c0,1.1.316-1.394,0-.333-.1.376-.205.752-.3,1.12-.282,1.043.65-1.206.12-.256-.188.342-.368.676-.582,1a5.618,5.618,0,0,0,1.992,7.627,5.721,5.721,0,0,0,7.627-2c.59-.855,1.2-1.71,1.8-2.523s-.633.778-.136.162l.436-.539c.393-.487.855-.966,1.24-1.428a9.475,9.475,0,0,1,.958-.975,8.406,8.406,0,0,0,1.274-1.112c-.06.1-1.086.77-.316.274.188-.12.376-.257.565-.368s.487-.3.735-.427,1.359-.633.342-.205.333-.094.6-.163.718-.128,1.069-.231c-1.462.419-1.069.1-.539.094H683.8c.573,0,1.1.308-.4-.086.385.1.786.145,1.171.257.111,0,.573.1.624.205s-1.385-.684-.607-.257l.855.5c.855.479-.855-.855-.419-.333a4.7,4.7,0,0,0,.547.539c.5.393-.8-1.249-.325-.428.085.145.18.316.274.445.427.633-.214-.419-.2-.539a3.127,3.127,0,0,0,.239.778c.222.855-.274.214,0-.368a3.114,3.114,0,0,0,0,.633,3.857,3.857,0,0,0,0,.633c.137-.949.154-1.12,0-.522l-.077.316c-.068.265-.154.522-.239.787s-.239.923,0,.111-.06.068-.162.265-.222.41-.334.607c-.265.462-.556.907-.855,1.343a5.564,5.564,0,0,1-.521.727l.427-.564c-.145.188-.3.376-.453.556-3.147,3.779-6.772,7.226-10.261,10.732q-6.071,6.182-12.305,12.194a5.569,5.569,0,0,0,7.875,7.875q6.31-6.08,12.459-12.339c4.138-4.207,8.551-8.337,12.057-13.117a18.105,18.105,0,0,0,3.42-8.645,12.016,12.016,0,0,0-2.925-9.073c-3.42-4.1-9.654-5.182-14.639-3.831-6.4,1.71-10.561,7.26-14.16,12.425l9.62,5.627a15.316,15.316,0,0,0,1.924-11.116,14.537,14.537,0,0,0-6.174-9.261,15.331,15.331,0,0,0-11.228-2.1,14.229,14.229,0,0,0-9.064,5.892c-3.42,4.558-3.617,10.475-2.787,15.871a46.529,46.529,0,0,0,5.652,15.118,62.191,62.191,0,0,0,9.62,13.3,5.575,5.575,0,1,0,7.884-7.875Z" transform="translate(-96.581 -89.464)" fill="url(#radial-gradient-4)"/>
</svg>
