<svg xmlns="http://www.w3.org/2000/svg" xmlns:xlink="http://www.w3.org/1999/xlink" width="1911" height="871" viewBox="0 0 1911 871">
  <defs>
    <radialGradient id="radial-gradient" cx="0.407" cy="0.476" r="1.335" gradientTransform="translate(0.288) scale(0.425 1)" gradientUnits="objectBoundingBox">
      <stop offset="0.07" stop-color="#ee7576"/>
      <stop offset="0.11" stop-color="#ec6566"/>
      <stop offset="0.2" stop-color="#ea4e4e"/>
      <stop offset="0.27" stop-color="#e84040"/>
      <stop offset="0.34" stop-color="#e83b3b"/>
      <stop offset="0.38" stop-color="#df3b3b"/>
      <stop offset="0.45" stop-color="#c83a3a"/>
      <stop offset="0.53" stop-color="#a23839"/>
      <stop offset="0.63" stop-color="#6e3638"/>
      <stop offset="0.73" stop-color="#2e3436"/>
    </radialGradient>
    <radialGradient id="radial-gradient-2" cx="-1.119" cy="2.386" r="9.781" gradientTransform="translate(0.357) scale(0.287 1)" xlink:href="#radial-gradient"/>
    <radialGradient id="radial-gradient-3" cx="-1.157" cy="1.909" r="9.641" gradientTransform="translate(-0.149) scale(1.297 1)" xlink:href="#radial-gradient"/>
    <radialGradient id="radial-gradient-4" cx="-8.125" cy="2.126" r="12.103" gradientTransform="translate(-0.034) scale(1.068 1)" xlink:href="#radial-gradient"/>
  </defs>
  <g id="ligne_avec_coeur_noir" data-name="ligne avec coeur noir" transform="translate(0.631 0.124)">
    <g id="long" transform="translate(62.679 56.021)">
      <g id="black" transform="translate(0 0)">
        <path id="Path_16" data-name="Path 16" d="M93.041,637A1495.071,1495.071,0,0,0,249.05,586.589c79.86-30.536,160.059-67.184,226.914-121.324,28.728-23.265,55.774-51.2,72.115-84.763,14.7-30.188,18.324-61.74,13.537-94.7-3.529-24.541-12.077-48.406-27.713-67.88-16.283-20.306-40.66-32.567-66.033-36.938-45.7-7.871-104.624,2.321-138.129,36.928-17.279,17.85-21.147,41.579-11.69,64.6,10.791,26.243,36.744,46.684,65.579,34.414,27.481-11.691,46.7-43.329,46.7-72.831s-16.438-57.408-36.8-77.849c-22.994-23.091-52.438-38.195-84.956-41.579-26.475-2.736-53.463,3.085-77.617,13.76-58.288,25.76-98.252,85.092-97.333,149.133.387,27.239,7.146,54.788,18.372,79.522,12.57,27.587,32.509,51.084,54.468,71.661,24.174,22.636,49.846,43.977,77.849,61.672,22.3,14.1,45.9,25.672,70.056,36.193a561.436,561.436,0,0,0,102.41,33.843q22.24,4.9,44.808,7.919c13.46,1.837,27.694,4.4,41.3,3.8,66.236-2.969,131.583-24.493,185-64.1,40.322-29.9,73.585-68.422,98.136-112.167,19.523-34.81,36.164-75.422,41.975-114.874,5.144-34.946-2.64-69.147-23.265-97.952-17.221-24.067-42.652-47.816-73.585-50.349-57.292-4.69-76.3,70.994-78.516,114.448-1.354,26.553,2.611,52.805,13.944,76.95s27.974,45.379,42.149,67.745c13.266,20.935,24.88,43.01,35.99,65.134A1203.71,1203.71,0,0,1,851.16,627.877c10.172,30.633,21.5,62.446,26.262,94.481s-3.327,62.929-22.24,89.076c-7.03,9.669-16.438,20.054-28.042,24.261-11.014,4.023-20.6-.744-28.177-8.9C779,805.342,774.694,772.33,782.652,745.091c8.838-30.265,29.125-56.557,44.48-83.67,17.405-30.71,33.253-62.311,47.835-94.462,11.362-25.122,22-50.6,32.49-76.1,6.073-14.678,11.6-30.237,20.055-43.8.6-.967,1.247-1.934,1.866-2.9,1.209-1.837-.57.687-.7.861a9.48,9.48,0,0,1,.88-1.025s.754-.909.861-.87-.184.648-1.4.967c1.576-.454-2.572.677-3.81.638a12.231,12.231,0,0,1-6.1-2.591c.232.232-3.278-3.8-1.827-2.64.387.3.213,2.495.271.783,0-1.228.271,3.22.319,4,.193,2.746.29,5.5.454,8.258a176.379,176.379,0,0,0,23.052,77.472c9.94,17.512,30.8,46.124,54.71,36.164,8.161-3.4,13.711-10.917,18.662-17.918,7.513-10.636,13.76-22.24,20.084-33.553,12.251-22.046,26.678-45.215,30.111-70.655,1.75-13.063-.793-25.392-10.453-34.859-9.37-9.186-23.526-15.075-36.745-14.108-33.418,2.427-35.419,48.058-10.259,63.684,17.105,10.636,41.221,7.736,59.671,2.369a107.259,107.259,0,0,0,34.394-17.463q7.078-5.318,13.6-11.284c1.663-1.509,3.288-3.065,4.961-4.574.609-.551,1.209-1.112,1.828-1.644,1.663-1.4,0,.522,0-.068l.329-.232q5.125-2.582-7.736-5.241c-3.443-2.011-9.853-3.994-8.1-6.566-.725,1.073-1.035,3.249-1.537,4.516-.735,1.837-4.119,8.809-5.85,12.57-6.362,13.76-12.212,27.819-16.438,42.391-6.856,23.594-13.373,50.4-9.892,75,3.3,23.207,20.78,36,43.706,31.494,22.627-4.448,43.116-19.8,60.918-33.621a466.779,466.779,0,0,0,59.681-55.552c20.1-22.24,39.867-47.381,34.607-79.29-4.506-27.336-28.719-58.394-59.129-43.774-26.359,12.667-38.407,46.7-25.5,72.705,13.537,27.181,44.78,45.311,68.721,62.03,13.363,9.341,27.142,17.937,40.96,26.562,7.068,4.419,15.877,9.505,20.093,15.4a17.056,17.056,0,0,1,3.172,7.793,35.1,35.1,0,0,1-1.208,17.26c-3.607,11.4-14.253,19.194-26.524,16.506-11.6-2.543-10.936-16.815-10.269-26.195.842-11.777,4.061-23.333,7.136-34.694,6.044-22.356,12.715-44.538,19.648-66.633,29.753-94.906,63.674-188.556,98.629-281.673q7.33-19.494,14.765-38.939c1.373-3.578,2.746-7.155,4.148-10.733,1.054-2.678,3.423-5.183.358-1.064l-23.951-10.056c-22.24,54.517-37.238,113.385-47.313,171.325-6.769,39.065-11.226,78.71-11.787,118.384-.193,14.1-.087,28.322,1.422,42.362a433.532,433.532,0,0,0,7.735,49.092c3.5,15.471,8.248,37.112,22.646,46.414,27.287,17.579,47.651-27.645,57.118-45.447a380.278,380.278,0,0,0,20.461-45.892c1.818-4.893,3.51-9.824,5.308-14.717.638-1.711,1.47-4.671,1.238-3.375a6.346,6.346,0,0,1,.59-1.209c.58-.967.474-.87-.319.213a8.337,8.337,0,0,1-2.7,2.495l-6.614,1.779h.3l-6.6-1.789c4.438,2.089-6.836-5.686-5.367-8.219-.29.5.1,2.176.087,2.823,0,2.359-.087,4.709-.165,7.078-.242,7.059-.5,14.127-.493,21.2a338.189,338.189,0,0,0,2.292,37.4c1.934,17.154,2.9,48.928,20.132,58.791,18.478,10.54,30.082-13.537,35.642-26.717,7.919-18.827,13.721-38.485,21.109-57.5a85.559,85.559,0,0,1,3.964-8.944c.764-1.489,1.663-2.9,2.437-4.371a12.764,12.764,0,0,1,1.063-1.605c-2.263,3.1-.474.358,0,.145,1.479-.6-.281.609-1.112.831-1.789.493-2.485,1.189-4.6,1.151-4.284-.077-5.6-2.785-7.552-3.945.686.416.648,2.466.483.677s0,.116.213.706c.571,1.876,1.083,3.742,1.5,5.657,3.993,18.13,4.032,38.62,6.845,58.017,2.05,14.156,9.9,40.322,29.792,29.009,14.069-7.977,19.339-31.126,24.309-45.051,3.578-9.94,7.01-19.948,10.946-29.763,1.286-3.21,2.485-6.043,4.216-9.515.871-1.75,1.77-3.471,2.766-5.144.4-.667.812-1.315,1.228-1.934,1.479-2.35.126-.1.4-.619,1.19-2.33,1.934-.793.387-.629-1.934.2-4.96,1.305-8.035-.251-1.46-.735-1.741-2.311-1.4-1.112.174.619.745,1.189.967,1.808a12.715,12.715,0,0,1,.464,1.257c3.133,9.041,4.661,18.643,6.343,28.042,2.717,15.162,3.868,41.173,18.585,50.349,18.73,11.652,31.068-12.87,36.87-26.485,7.436-17.405,12.725-36.019,20.993-51.877a17.644,17.644,0,0,1,1.334-2.118c.706-1.054-.774.5-.484.657-.348-.184,2.611-1.6-.068-.1-4.235,2.388-9.244,3.4-13.354-.967-1.489-1.6-2.05-4.7-1.354-1.151.464,2.34,1.083,4.661,1.586,6.991a287.155,287.155,0,0,0,13.7,45.447c4.9,12.387,10.907,24.88,23,31.706,15.278,8.615,32.441,5.183,48.183,0,21.157-6.943,42.1-18.595,53.182-38.736,12.058-21.892,13.721-63.152-10.066-78.633-26.881-17.5-58.017,16.835-61.4,41.792-3.5,26.108,12.135,52.505,30.865,69.543s42.759,27.152,67.281,16.516a79.289,79.289,0,0,0,35.864-31.262c8.925-14.35-13.721-27.51-22.607-13.209-7.649,12.309-23.9,25.8-38.543,22.636-13.943-3.017-26.233-14.291-34.53-25.382s-16.641-27.587-10.849-41.579c2.736-6.585,8.7-13.721,15.307-16.554,5.405-2.3,6.517.8,8.48,6.208,5.8,15.964,1.934,34.888-10.143,46.723-8.587,8.374-19.02,13.006-29.743,16.525-8.2,2.7-18.681,6.962-27.191,3.094-6.769-3.065-9.757-11.371-12.271-17.773a265.055,265.055,0,0,1-10.443-31.958c-1.692-6.682-2.6-13.673-4.67-20.248-4.023-12.812-17.947-18.933-28.428-8.519-8.035,7.968-11.8,20.867-15.694,31.126-4.477,11.749-8.393,23.865-13.692,34.975-1.189,2.485-2.475,4.893-3.868,7.281a25.42,25.42,0,0,1-1.934,2.9c2.146-2.756-.135.087-.184,0,1.16,1.431-5.038.106.435-.222l1.866-.715q-3.393.841,4.458.145c3.868,1.18,4.061,4.458,2.427.213.967,2.572-1.025-3.027-1.247-3.752-.87-2.853-1.567-5.8-2.214-8.7-1.509-6.72-2.669-13.537-3.868-20.306-2.195-12.348-3.8-26.059-9.757-37.305-5.454-10.279-16.854-16.245-27.664-9.669-8.945,5.453-13.624,16.525-17.56,25.711-9.863,23-16.951,46.878-27.655,68.161,1.432-2.843.967-.774-.077-.251,2.3-1.17,3.307-2.359,6.169-2.35,1.228,0,8.935,3.326,6.372,2.427,5.8,2.021-1.3,1.4.426.145,0,0,1.189,3.2.261.522-.358-1.034-.657-2.089-.967-3.143a88.367,88.367,0,0,1-1.837-9.118c-1.741-10.878-2.572-24.851-3.868-37.024-1.228-11.6-1.8-25.276-7.474-35.835-5.8-10.859-18.875-13.7-28.119-5.212-7.736,7.136-11.6,18.74-15.326,28.255-4.835,12.377-8.9,25.025-13.392,37.527-3.761,10.453-6.6,19.639-12.793,28.863-1.354,2.031-.193-1.605-.251.329s-3.558.445.367,0c-2.62.329,4.264-.812,3.81-.812l4.525,1.276c1.421,1.247,1.605,1.344.532.271-.213.551.735,1.209-.184-.8-1.092-2.369,1.209,3.181-.667-1.518a74.2,74.2,0,0,1-3.269-11.816,264.234,264.234,0,0,1-4.777-34.4c-1.6-18.836.841-37.711-.522-56.412-1.189-16.264-19.658-21.9-27.877-6.914-7.929,14.5-11.507,31.745-18.372,46.781-5.067,11.072-10.82,21.844-16.835,32.422a156.626,156.626,0,0,1-8.7,14.176c-1.161,1.615-6.672,6.469-6.769,7.465.068-.59,3.868.164,3.578.435-.087.087-.223.416-.6-.561-.184-.474-1.025-1.209-2.359-3.6-3.036-5.425-4.835-11.719-6.614-18.13-8.577-31.5-11.081-62.127-10.54-95.158,1.18-71.748,14.5-143.2,34.81-211.879,6.895-23.342,14.166-46.946,23.381-69.485,2.456-6.015-2.195-13.18-7.581-15.471-6.421-2.707-12.4,0-16.351,5.357-3.056,4.119-4.564,11.333-6.363,16.022q-6.9,17.956-13.663,35.951-22.443,59.661-43.909,119.68c-17.018,47.6-33.592,95.39-49.131,143.505-7.271,22.53-14.321,45.137-20.9,67.89-6.218,21.534-13.383,43.668-14.437,66.2-.571,12.154,1.141,25.334,8.606,35.313,8.548,11.429,22.81,16.254,36.744,14.92,29.821-2.9,48.173-30.643,45.331-59.458-2.1-21.273-15.9-33.408-32.954-44.257-26.581-16.912-53.588-33.418-78.1-53.318-17.067-13.866-37.982-32.8-21.273-55.348,6.295-8.49,15.046-13.77,22.868-4.467,8.132,9.669,11.6,24.27,8.4,36.435-6.024,23.072-28.564,43.058-44.953,59.313-17.85,17.7-36.909,34.636-58.017,48.348-8.2,5.309-16.835,10.54-26.185,13.537a59.031,59.031,0,0,1-5.87,1.557c-2.62.532-.725.281-2.64.319-.658,0-5.444-.242-2.61,0-2.727-.28-1.151.7-3.094-1.16a30.861,30.861,0,0,1-2.707-5.927c-1.335-5.057-1.257-10.395-1.054-15.578.445-11.4,2.7-22.636,5.231-33.727,5.55-24.329,15.171-45.988,25.025-68.712,3.471-8.016,6.981-17.714-.29-24.976-7.833-7.832-17.666-3.268-24.677,2.746-14.5,12.416-27.694,24.474-46.859,29.183-8.3,2.04-17.144,3.394-25.711,2.466-7.126-.764-18.314-5.869-14.5-15.568,2.611-6.653,14.968-.1,18.8,3.22,7.175,6.218,3.868,16.38,1.392,24.493-7.088,23.062-20.935,44.6-32.963,65.279-4.835,8.238-10.124,17.289-15.655,23.5-.5.561-1.073,1.1-1.625,1.605-1.276,1.189,0,.725.329-.174a7.036,7.036,0,0,1-1.479.9c.416-.087,2.591-1.48.967-.5,2.369-1.451,1.673.348-.464-.619a24.787,24.787,0,0,1-4.709-2.572c-8.577-6.42-14.321-16.96-19.262-26.214a146.641,146.641,0,0,1-13.847-35.545c-2.5-10.636-3.084-21.273-3.761-32.093-.532-8.306-1.17-17.405-8.287-22.859-11.932-9.2-23.913.657-30.44,10.849-8.441,13.17-13.914,28.574-19.89,42.933-9.273,22.24-18.372,44.6-28.158,66.652q-19.538,44.311-42.343,86.813c-15.133,27.984-33.843,54.333-47.526,83.071-13.344,28.119-19.571,58.926-10.636,89.414,7.126,24.4,22.694,51.683,48.522,59.622,26.717,8.219,51.587-10.192,67.319-30.082,19.242-24.338,31.262-53.685,32.325-84.86,1.015-29.975-8.287-59.487-16.719-87.925q-13.982-47.149-31.668-93.088a1211.237,1211.237,0,0,0-60.821-134.2c-10.888-20.412-22.578-40.109-35.323-59.381-13.924-21.031-29.975-42.159-37.025-66.72-6.72-23.429-6.227-49.4-1.5-73.169,3.994-20.083,11.2-45.331,28.834-57.882,19.89-14.166,44.122,2.688,58.5,17.086,22.366,22.375,35.971,52.08,34.278,83.989-1.334,25.141-10.327,50.078-19.252,73.488-2.64,6.9-3.558,9.06-6.111,14.756q-4.99,11.12-10.724,21.892a353.735,353.735,0,0,1-32.045,50.021c-33.031,42.836-77.018,77.4-127.241,97.759A315.728,315.728,0,0,1,554.18,555.3c-26.408,2.04-53.472-2.63-79.29-7.735A535.948,535.948,0,0,1,310.663,485.8c-27.316-15.906-51.829-35.2-75.422-56.18-20.944-18.691-40.728-38.794-54.449-63.5C154,317.776,151.5,256.239,183.751,209.96c28.68-41.154,83.554-68.257,133.836-57.543,46.056,9.815,108.637,66.72,79.213,117.775-5.8,10.114-15.925,22.288-28.216,24.319-10.124,1.673-18.121-6.923-22.859-14.852-11.033-18.42-7.736-34.385,6.768-47.178,15.549-13.731,37.121-20.925,57.128-24.938,22.356-4.458,46.269-4.284,68.064,2.795,42.846,13.9,58.858,58.307,59.951,99.828.745,27.442-7.242,51.626-22.443,75.229-18.653,28.951-45.911,53.385-74.127,73.846-33.031,23.961-68.828,43.987-105.475,61.827-64.428,31.358-132.1,56.083-200.662,76.805-16.216,4.893-32.509,9.563-48.9,13.847s-9.379,29.511,6.962,25.247Z" transform="translate(-76.695 -106.39)" fill="url(#radial-gradient)"/>
        <path id="Path_17" data-name="Path 17" d="M1265.625,323.4c2.04-1.644,4.09-3.268,6.169-4.835l-2.649,2.05a337.633,337.633,0,0,1,58.143-36q8.7-4.245,17.618-8.006l-3.133,1.325a361,361,0,0,1,71.255-21.611q10.4-2.011,20.923-3.423l-3.48.464a359.767,359.767,0,0,1,73.613-2.292q10.433.774,20.8,2.147l-3.471-.464a338.432,338.432,0,0,1,51.325,10.936q7.165,2.127,14.2,4.574c3.085,1.073,7.339.29,10.085-1.315a13.345,13.345,0,0,0,6.024-7.823c1.654-7.3-2.214-13.7-9.148-16.109a362.192,362.192,0,0,0-139.752-18.256,382.918,382.918,0,0,0-71.333,11.6A374.29,374.29,0,0,0,1315,261.508a338.441,338.441,0,0,0-58.878,36.3c-3.036,2.33-6.053,4.68-9.021,7.078-2.447,1.982-3.868,6.256-3.868,9.263a13.207,13.207,0,0,0,13.121,13.122l3.482-.474a12.991,12.991,0,0,0,5.8-3.365Z" transform="translate(-115.247 -110.276)" fill="url(#radial-gradient-2)"/>
        <path id="Path_18" data-name="Path 18" d="M956.551,333.731a115.719,115.719,0,0,1-10.811-11.71l1.363,1.769a43.6,43.6,0,0,1-5.609-9.428l.851,2.118a28.3,28.3,0,0,1-1.856-6.633l.309,2.321a26.668,26.668,0,0,1,0-6.769l-.309,2.321a23.71,23.71,0,0,1,1.643-6.1l-.88,2.079a19.927,19.927,0,0,1,2.3-3.984l-1.363,1.76a17.666,17.666,0,0,1,2.987-3.017l-1.769,1.373a15.84,15.84,0,0,1,3.2-1.876l-2.089.88a14.568,14.568,0,0,1,3.481-.967l-2.32.319a15.271,15.271,0,0,1,3.578,0l-2.321-.319a17.462,17.462,0,0,1,4.351,1.18l-2.078-.88a18.774,18.774,0,0,1,3.925,2.292l-1.77-1.363a17.374,17.374,0,0,1,3,2.969l-1.382-1.722a16.147,16.147,0,0,1,1.982,3.336l-.88-2.079a14.178,14.178,0,0,1,.967,3.462l-.309-2.321c0,.3.058.6.087.909.29,4.361,3.094,7.968,7.562,8.567a8.7,8.7,0,0,0,9.573-6.247,90.437,90.437,0,0,1,3.055-9.1l-.88,2.079a31.635,31.635,0,0,1,3.868-6.866l-1.373,1.77a21.269,21.269,0,0,1,3.423-3.481l-1.76,1.364a18.5,18.5,0,0,1,4.062-2.408l-2.08.88a15.188,15.188,0,0,1,3.577-.967l-2.32.319a13.222,13.222,0,0,1,3.211,0l-2.321-.309a12.358,12.358,0,0,1,2.979.8l-2.088-.88a12.113,12.113,0,0,1,2.445,1.412l-1.769-1.363a12.377,12.377,0,0,1,2.224,2.214l-1.324-1.77a14.088,14.088,0,0,1,1.653,2.9l-.879-2.089a16.986,16.986,0,0,1,1.025,3.762l-.319-2.321a20.744,20.744,0,0,1,0,5.424l.319-2.321a24.976,24.976,0,0,1-1.741,5.957l.88-2.079a74.418,74.418,0,0,1-7,11.778l-8.606,12.851-17.24,25.682-9.67,14.456a8.73,8.73,0,1,0,15.075,8.809l19.638-29.309,9.961-14.843c3.142-4.7,6.4-9.331,9.4-14.127a41.066,41.066,0,0,0,6.5-17.56,24.608,24.608,0,0,0-2.9-14.2,20.7,20.7,0,0,0-24.174-9.466,28.382,28.382,0,0,0-14.7,11.429c-3.442,5.038-5.28,11.12-6.981,16.931l17.144,2.32a22.478,22.478,0,0,0-3.752-11.506,26.692,26.692,0,0,0-8.866-8.21c-7.252-3.984-16.09-4.448-23.391-.28-6.575,3.752-11.13,10.917-12.435,18.314a37.711,37.711,0,0,0-.106,12.812,36.752,36.752,0,0,0,3.868,10.878c4,7.852,10.415,14.3,16.622,20.422,3.258,3.21,9.138,3.491,12.348,0a8.9,8.9,0,0,0,0-12.348Z" transform="translate(-104.671 -111.864)" fill="url(#radial-gradient-3)"/>
        <path id="Path_19" data-name="Path 19" d="M1520.29,362a71.25,71.25,0,0,1-5.125-5.956l1.363,1.76a96.784,96.784,0,0,1-12.57-21.273l.879,2.089a57.138,57.138,0,0,1-4.118-14.243l.309,2.321a31.23,31.23,0,0,1-.088-8.171l-.309,2.321a21.907,21.907,0,0,1,1.374-5.183l-.88,2.089a18.537,18.537,0,0,1,2.416-4.148l-1.373,1.76a15.02,15.02,0,0,1,2.36-2.4l-1.761,1.373a14.789,14.789,0,0,1,2.9-1.682l-2.089.88a16.462,16.462,0,0,1,3.868-1.054l-2.322.309a17.246,17.246,0,0,1,4.053,0l-2.322-.309a15.981,15.981,0,0,1,3.869,1.035l-2.089-.88a14.436,14.436,0,0,1,3.191,1.866l-1.761-1.363a14.145,14.145,0,0,1,2.321,2.379l-1.363-1.77a15.781,15.781,0,0,1,1.8,3.162l-.879-2.089a16.727,16.727,0,0,1,1.044,3.868l-.31-2.32a16.516,16.516,0,0,1,0,4.312l.31-2.321a15.956,15.956,0,0,1-.967,3.51l.88-2.088a15.237,15.237,0,0,1-1.267,2.34c-2.523,3.81-.88,9.814,3.133,11.942a8.789,8.789,0,0,0,6.768.87,9.809,9.809,0,0,0,5.222-4c1.19-1.712,2.4-3.413,3.665-5.057l-1.364,1.76a39.316,39.316,0,0,1,6.691-6.943l-1.769,1.363a22.227,22.227,0,0,1,4.835-2.833l-2.088.88a17.084,17.084,0,0,1,3.868-1.025l-2.32.309a17.316,17.316,0,0,1,4.3,0l-2.321-.319a15.457,15.457,0,0,1,3.781.967l-2.041-.851a12.891,12.891,0,0,1,2.534,1.441l-1.769-1.363a11.4,11.4,0,0,1,1.856,1.818l-1.372-1.77a10.67,10.67,0,0,1,1.218,2.021l-.88-2.089a11.981,11.981,0,0,1,.8,2.9l-.311-2.321a12.586,12.586,0,0,1,0,2.9l.32-2.321a16.443,16.443,0,0,1-1.132,3.955l.88-2.079a29.925,29.925,0,0,1-3.732,6.15l1.364-1.76a119.111,119.111,0,0,1-8.23,9.022q-4.631,4.834-9.33,9.611-9.312,9.457-18.874,18.672c-3.288,3.181-3.423,9.2,0,12.348a8.913,8.913,0,0,0,12.347,0q9.67-9.379,19.2-19.01c6.411-6.527,13.179-12.928,18.71-20.229,2.6-3.433,4.913-7.562,5.6-11.855a21.354,21.354,0,0,0-.2-8.993,19.305,19.305,0,0,0-4.013-7.484,19.623,19.623,0,0,0-10.365-6.2,25.482,25.482,0,0,0-12.85.193c-9.921,2.852-16.332,11.342-21.959,19.407l15.075,8.809c3.451-5.221,4.119-11.681,2.958-17.7A22.626,22.626,0,0,0,1519.7,298.7c-5.26-3.346-11.758-4.023-17.762-2.824a20.306,20.306,0,0,0-7.619,3.239,24.791,24.791,0,0,0-6.3,6.449c-5.1,7.233-5.26,16.564-3.868,24.938,1.4,8.219,4.941,16.187,8.964,23.429a96.531,96.531,0,0,0,14.833,20.364c3.182,3.288,9.187,3.442,12.339,0a8.888,8.888,0,0,0,0-12.338Z" transform="translate(-123.184 -112.634)" fill="url(#radial-gradient-4)"/>
      </g>
    </g>
    <g id="Rectangle_37" data-name="Rectangle 37" transform="translate(-0.631 -0.124)" fill="#171717" stroke="#707070" stroke-width="1" opacity="0">
      <rect width="1911" height="871" stroke="none"/>
      <rect x="0.5" y="0.5" width="1910" height="870" fill="none"/>
    </g>
  </g>
</svg>
