<svg xmlns="http://www.w3.org/2000/svg" width="741" height="369" viewBox="0 0 741 369">
  <g id="Group_966" data-name="Group 966" transform="translate(-1468 -975)">
    <rect id="Rectangle_1904" data-name="Rectangle 1904" width="741" height="369" transform="translate(1468 975)" fill="#e8e7fb"/>
    <g id="undraw_a_moment_to_relax_bbpa" transform="translate(1617.759 977.065)">
      <path id="Path_1639" data-name="Path 1639" d="M63.486,140.822s2.128-9.457,17.027-6.3,17.027,6.3,17.027,6.3Z" transform="translate(50.377 170.793)" fill="#3f3d56"/>
      <path id="Path_1640" data-name="Path 1640" d="M32.038,135.809s2.128-9.457,17.027-6.3,17.027,6.3,17.027,6.3Z" transform="translate(8.395 163.423)" fill="#3f3d56"/>
      <path id="Path_1641" data-name="Path 1641" d="M95.1,138.712s-11.919-7.656-17.027,0Z" transform="translate(69.847 172.903)" fill="#3f3d56"/>
      <path id="Path_1642" data-name="Path 1642" d="M71.307,129.961s-11.919-7.656-17.027,0Z" transform="translate(38.086 160.038)" fill="#3f3d56"/>
      <path id="Path_1643" data-name="Path 1643" d="M34.2,134.172c3.549,6.962,11.08,9.951,11.08,9.951s1.778-8.3-1.771-15.261-11.08-9.951-11.08-9.951S30.655,127.21,34.2,134.172Z" transform="translate(8.326 148.794)" fill="#3f3d56"/>
      <path id="Path_1644" data-name="Path 1644" d="M42.172,125.86c6.407,4.078,8.874,12.177,8.874,12.177s-7.92,1.488-14.326-2.589-8.874-12.177-8.874-12.177S35.765,121.783,42.172,125.86Z" transform="translate(2.797 154.815)" fill="#a29bfe"/>
      <path id="Path_1645" data-name="Path 1645" d="M184.626,138.543s2.128-9.457,17.027-6.3,17.027,6.3,17.027,6.3Z" transform="translate(212.099 167.443)" fill="#3f3d56"/>
      <path id="Path_1646" data-name="Path 1646" d="M284.672,182.652q-15.527-2.571-29.858-4.375l3.679-7.784c-1.277-.45-6.811,4.053-6.811,4.053l4.682-22.516c-6.385.9-9.365,23.867-9.365,23.867l-7.236-7.656,3.562,8.667a623.949,623.949,0,0,0-75.671-4.031l3.149-6.663c-1.277-.45-6.811,4.053-6.811,4.053l4.682-22.516c-6.385.9-9.365,23.867-9.365,23.867l-7.237-7.655,3.773,9.18a401.978,401.978,0,0,0-43.429,3.7c3.142-10.356,14.115-20.31,14.115-20.31-8.437,2.777-12.827,7.3-15.1,11.494a190.442,190.442,0,0,1,9.139-62.606S103.545,145.951,106.1,172.97l.324,4.8c-14.813,2.445-22.246,4.882-22.246,4.882Z" transform="translate(78 128.963)" fill="#3f3d56"/>
      <path id="Path_1647" data-name="Path 1647" d="M122.461,148.2s78.325-12.159,126.852,0" transform="translate(129.109 183.907)" fill="#3f3d56"/>
      <path id="Path_1648" data-name="Path 1648" d="M73.057,154.943s78.325-12.159,126.852,0" transform="translate(63.154 193.824)" fill="#3f3d56"/>
      <path id="Path_1649" data-name="Path 1649" d="M135.222,156.829s46.39-12.446,75.132,0" transform="translate(146.145 196.408)" fill="#3f3d56"/>
      <path id="Path_1650" data-name="Path 1650" d="M201.113,193.341l-.757-.413c9.826-20.1,4.572-46.192-1.566-64.546a203.146,203.146,0,0,0-15.868-35.429l.72-.481a204.178,204.178,0,0,1,15.951,35.609C205.787,146.6,211.079,172.96,201.113,193.341Z" transform="translate(209.825 109.924)" fill="#3f3d56"/>
      <path id="Path_1673" data-name="Path 1673" d="M.009.315,32.456,0l-.009.853L0,1.167Z" transform="translate(412.392 234.485) rotate(-79.645)" fill="#3f3d56"/>
      <path id="Path_1671" data-name="Path 1671" d="M1.209.025,2.083,0,.875,43.165,0,43.19Z" transform="matrix(0.732, -0.681, 0.681, 0.732, 379.975, 231.218)" fill="#3f3d56"/>
      <path id="Path_1672" data-name="Path 1672" d="M.023.679,25.655,0l-.023.868L0,1.547Z" transform="translate(417.744 286.208) rotate(-54.137)" fill="#3f3d56"/>
      <ellipse id="Ellipse_395" data-name="Ellipse 395" cx="4.257" cy="4.503" rx="4.257" ry="4.503" transform="translate(416.52 185.074)" fill="#a29bfe"/>
      <ellipse id="Ellipse_396" data-name="Ellipse 396" cx="4.257" cy="4.503" rx="4.257" ry="4.503" transform="translate(370.121 219.749)" fill="#3f3d56"/>
      <ellipse id="Ellipse_397" data-name="Ellipse 397" cx="4.257" cy="4.503" rx="4.257" ry="4.503" transform="translate(388.851 224.252)" fill="#3f3d56"/>
      <ellipse id="Ellipse_398" data-name="Ellipse 398" cx="4.257" cy="4.503" rx="4.257" ry="4.503" transform="translate(380.337 241.815)" fill="#a29bfe"/>
      <ellipse id="Ellipse_399" data-name="Ellipse 399" cx="4.257" cy="4.503" rx="4.257" ry="4.503" transform="translate(433.545 253.073)" fill="#3f3d56"/>
      <ellipse id="Ellipse_400" data-name="Ellipse 400" cx="4.257" cy="4.503" rx="4.257" ry="4.503" transform="translate(419.5 258.026)" fill="#3f3d56"/>
      <ellipse id="Ellipse_401" data-name="Ellipse 401" cx="4.257" cy="4.503" rx="4.257" ry="4.503" transform="translate(429.289 272.437)" fill="#3f3d56"/>
      <ellipse id="Ellipse_402" data-name="Ellipse 402" cx="4.257" cy="4.503" rx="4.257" ry="4.503" transform="translate(384.594 190.478)" fill="#3f3d56"/>
      <path id="Path_1651" data-name="Path 1651" d="M154.457,155.083c0,55.665-31.281,75.1-69.867,75.1s-69.867-19.436-69.867-75.1S84.59,28.6,84.59,28.6,154.457,99.419,154.457,155.083Z" transform="translate(-14.722 16.027)" fill="#f2f2f2"/>
      <path id="Path_1652" data-name="Path 1652" d="M44.887,211.132l.715-46.586,29.779-57.634L45.714,157.238l.321-20.947,20.524-41.7L46.121,130.748h0L46.7,93.074l21.977-33.2L46.79,87.15l.361-69.082L44.88,109.519l.186-3.772L22.723,69.564l21.986,43.424-2.082,42.076-.062-1.117L16.806,115.871l25.681,42.022-.261,5.262-.046.079.021.432L36.919,270.415h7.057l.847-55.138,25.618-41.918Z" transform="translate(22.436 26.564)" fill="#3f3d56"/>
      <path id="Path_1653" data-name="Path 1653" d="M270.863,165.053c0,68-38.215,91.749-85.355,91.749s-85.355-23.745-85.355-91.749S185.508,10.537,185.508,10.537,270.863,97.048,270.863,165.053Z" transform="translate(99.327 -10.537)" fill="#f2f2f2"/>
      <path id="Path_1654" data-name="Path 1654" d="M140.267,235.862l.874-56.913,36.381-70.41-36.243,61.482.393-25.591L166.745,93.49l-24.969,44.169h0l.707-46.026,26.849-40.555L142.593,84.395,143.035,0l-2.775,111.724.228-4.609-27.3-44.2,26.86,53.05-2.544,51.4L137.431,166l-31.47-46.517,31.374,51.337-.318,6.428-.057.1.026.528-6.453,130.413h8.622l1.035-67.361,31.3-51.211Z" transform="translate(141.459 0)" fill="#3f3d56"/>
      <path id="Path_1655" data-name="Path 1655" d="M114.229,112.739l3.889,12.736a69.557,69.557,0,0,0-1.852,25.276c1.667,13.324.741,13.716.741,13.716s-16.655-1.014-14.988,4.276,17.952,2.19,17.952,2.19,3.128-.891,4.609-10.3,5.207-27.52,5.207-27.52l-3.5-17.1Z" transform="translate(101.662 139.721)" fill="#ffb8b8"/>
      <path id="Path_1656" data-name="Path 1656" d="M111.76,102.189s-7.038,2.743-7.038,10.189,2.593,17.634,4.26,18.222,12.78,8.621,14.817,2.939S111.76,102.189,111.76,102.189Z" transform="translate(105.427 124.21)" fill="#a29bfe"/>
      <path id="Path_1657" data-name="Path 1657" d="M120.885,128.746l14.817-.588L147,126.4l-3.334,11.756-27.412.784Z" transform="translate(155.2 185.825)" fill="#ffb8b8"/>
      <path id="Path_1658" data-name="Path 1658" d="M143.617,143.533s-.185-4.311-1.852-4.115-.556-1.568.926-1.959,5.742-2.351,5.742-2.351l16.854,1.175s10.928,10.189,6.482,15.675-15.928.588-15.928.588l-12.409.2S139.357,145.688,143.617,143.533Z" transform="translate(153.768 172.606)" fill="#2f2e41"/>
      <path id="Path_1659" data-name="Path 1659" d="M130.215,129.454l5.371,26.648L146.7,153.75l-6.3-33.31-6.668-3.723Z" transform="translate(173.837 171.598)" fill="#ffb8b8"/>
      <path id="Path_1660" data-name="Path 1660" d="M129.7,163.343s-31.116,14.891-17.966,29.978c0,0,0,7.054,13.891,5.682s40.747-3.919,42.043-3.135,5.371-15.479,1.852-16.263-7.779-1.763-7.779-1.763,3.7-.588,3.7-3.919c0,0,10.557-.784,13.706-7.837s6.112-12.344,6.112-12.344l7.223,19.594s8.335-16.263,14.632-9.013c0,0-7.038-46.829-12.409-51.139s-9.075-5.682-14.076-1.763S171,125.331,171,125.331Z" transform="translate(110.457 134.378)" fill="#2f2e41"/>
      <path id="Path_1661" data-name="Path 1661" d="M156.247,140.069a42.445,42.445,0,0,0-3.7,3.331c-1.482,1.568-3.519.784-3.7,0s-3.519.588-3.889,6.27-2.593,10.777,3.334,12.54,5.742,6.858,5.742,6.858a18.98,18.98,0,0,0,15,.98c8.335-2.939,5.371-6.074,5.371-6.074l-11.113-19.4S160.322,138.7,156.247,140.069Z" transform="translate(158.177 179.596)" fill="#2f2e41"/>
      <path id="Path_1662" data-name="Path 1662" d="M139.918,100.6s17.781,6.466,19.633,7.837,10.187,7.837,6.112,11.168-7.409,5.486-15.373,2.939-16.854-10.385-16.854-10.385Z" transform="translate(143.76 121.878)" fill="#ffb8b8"/>
      <path id="Path_1663" data-name="Path 1663" d="M128.6,97.3s7.038-1.372,12.039,1.568,9.261,8.817,9.261,8.817-4.63,10.385-7.964,11.952-9.446-6.27-9.446-6.27Z" transform="translate(137.301 116.557)" fill="#a29bfe"/>
      <path id="Path_1664" data-name="Path 1664" d="M115.057,95.37s.185,7.642-.556,8.425,8.89,23.9,19.447,13.716,2.408-14.3,2.408-14.3-3.889-7.642-3.7-8.425-17.225,0-17.225,0Z" transform="translate(118.429 112.808)" fill="#ffb8b8"/>
      <path id="Path_1665" data-name="Path 1665" d="M115.057,95.37s.185,7.642-.556,8.425,8.89,23.9,19.447,13.716,2.408-14.3,2.408-14.3-3.889-7.642-3.7-8.425-17.225,0-17.225,0Z" transform="translate(118.429 112.808)" opacity="0.1"/>
      <path id="Path_1666" data-name="Path 1666" d="M117.468,102.4s7.038,5.094,10,3.919,6.668-6.27,7.038-6.662,19.262,39.775,19.262,39.775-2.778,14.7-10.187,19.006-7.316,7.74-8.242,10.679-12.872-9.307-12.872-9.307l-7.594-34.093V104.943Z" transform="translate(118.981 120.477)" fill="#a29bfe"/>
      <path id="Path_1667" data-name="Path 1667" d="M124.907,97.1a5.769,5.769,0,0,0-4.723,1.665c-2.408,2.155-13.706,10.189-13.15,10.973s5.556,11.952,6.668,16.459,2.778,5.094,2.778,5.094,3.889,2.939,3.334,5.094-2.963,31.546.37,38.012,2.778,12.148,1.852,13.716,8.89-4.507,8.89-4.507,14.632-12.54,15.743-16.263a46.038,46.038,0,0,0,1.482-7.837s-9.446-39.579-12.409-41.735S124.907,97.1,124.907,97.1Z" transform="translate(108.487 116.66)" fill="#575a89"/>
      <path id="Path_1668" data-name="Path 1668" d="M125.191,98.53s4.564-3,5.49-2.212,9.631.784,9.816,1.568.556,19.594,6.853,24.492,2.223,14.7,2.223,14.7l4.63,7.837s-25.189,25.666-23.522,16.851c.093-.49,0-.588,0-.588s-9.816-44.478-8.52-46.829S125.813,101.33,125.191,98.53Z" transform="translate(128.55 115.386)" fill="#575a89"/>
      <path id="Path_1669" data-name="Path 1669" d="M166.727,104.41l-25.189,9.209s-25,6.27-21.114,13.52,20.373-5.094,20.373-5.094l33.543-3.976S187.657,106.174,166.727,104.41Z" transform="translate(125.841 127.476)" fill="#ffb8b8"/>
      <ellipse id="Ellipse_403" data-name="Ellipse 403" cx="13.706" cy="14.499" rx="13.706" ry="14.499" transform="translate(229.782 186.429)" fill="#ffb8b8"/>
      <path id="Path_1670" data-name="Path 1670" d="M117.135,91.2,114.6,90.22s5.3-5.608,12.676-5.12L125.2,82.905s5.071-1.951,9.68,3.17c2.423,2.692,5.227,5.855,6.975,9.419h2.715l-1.133,2.4,3.966,2.4-4.071-.431a12.767,12.767,0,0,1-.385,6.209l-.922,2.682s-3.688-7.8-3.688-8.778v2.438s-2.535-2.194-2.535-3.657l-1.383,1.707-.691-2.682-8.528,2.682,1.383-2.194-5.3.731,2.074-2.682s-5.992,3.17-6.223,5.852-3.227,6.1-3.227,6.1l-1.383-2.438S110.451,94.853,117.135,91.2Z" transform="translate(115.438 95.323)" fill="#2f2e41"/>
    </g>
  </g>
</svg>
