<svg xmlns="http://www.w3.org/2000/svg" xmlns:xlink="http://www.w3.org/1999/xlink" width="796" height="792" viewBox="0 0 796 792">
  <defs>
    <radialGradient id="radial-gradient" cx="0.48" cy="0.471" r="0.842" gradientTransform="translate(0.033) scale(0.933 1)" gradientUnits="objectBoundingBox">
      <stop offset="0.11" stop-color="#ee7576"/>
      <stop offset="0.14" stop-color="#ec6566"/>
      <stop offset="0.19" stop-color="#ea4e4e"/>
      <stop offset="0.24" stop-color="#e84040"/>
      <stop offset="0.28" stop-color="#e83b3b"/>
      <stop offset="0.32" stop-color="#df3b3b"/>
      <stop offset="0.4" stop-color="#c83a3a"/>
      <stop offset="0.5" stop-color="#a23839"/>
      <stop offset="0.61" stop-color="#6e3638"/>
      <stop offset="0.73" stop-color="#2e3436"/>
    </radialGradient>
    <radialGradient id="radial-gradient-2" cx="0.024" cy="1.595" r="10.129" gradientTransform="translate(0.357) scale(0.287 1)" xlink:href="#radial-gradient"/>
    <radialGradient id="radial-gradient-3" cx="3.945" cy="1.128" r="9.975" gradientTransform="translate(-0.15) scale(1.3 1)" xlink:href="#radial-gradient"/>
    <radialGradient id="radial-gradient-4" cx="-2.854" cy="1.146" r="12.521" gradientTransform="translate(-0.034) scale(1.069 1)" xlink:href="#radial-gradient"/>
  </defs>
  <g id="carré_noir" data-name="carré noir" transform="translate(0.399 -0.216)">
    <g id="Black" transform="translate(16.433 41.868)">
      <path id="Path_8" data-name="Path 8" d="M63.064,521.85a841.84,841.84,0,0,0,61.669-92.635,609.657,609.657,0,0,0,27.712-54.749c7.895-17.876,16.227-36.5,18.958-56.007,2.869-20.5-1.65-40.663-13.94-57.488-10.028-13.695-24.789-27.06-42.6-28.019-14.969-.806-26.638,10.058-33.175,22.526C74.242,269.671,71.127,286.166,70.79,302.1c-.322,15.344,2.578,30.144,9.606,43.793,8.2,15.9,19.464,30.19,28.878,45.374a501.766,501.766,0,0,1,51.089,110.219,566.517,566.517,0,0,1,14.539,55.24,92.153,92.153,0,0,1,2.355,24.981,60.61,60.61,0,0,1-7.48,25.035c-3.759,6.982-8.439,13.68-14.577,18.789a26.754,26.754,0,0,1-7.22,4.388,12.05,12.05,0,0,1-8.209.445c-12.16-3.545-18.912-22.357-19.595-34.241-.921-16.181,6.138-31.08,14.631-44.384,6.575-10.258,13.281-20.393,19.472-30.9,17.032-28.9,31.778-59.13,45.174-89.872Q206.02,415.9,212.2,400.651l-14.731-1.995a106.252,106.252,0,0,0,7.457,38.8c4.6,11.386,10.956,24.728,20.393,32.937,8.493,7.388,19.664,8.439,27.935.276,8.125-8.01,12.59-20,17.247-30.152,5.148-11.209,10.987-22.863,12.9-35.177.767-5.041,1.128-10.6-1.657-15.13-6.1-9.974-22.111-16.472-32.776-10.189-12.651,7.488-8.593,27.436,2.394,34.188,9.82,6.03,23.124,3.967,33.689,1.335a70.275,70.275,0,0,0,35.169-21.758L308.437,384.7c-8.355,19.3-16.188,39.635-19.4,60.5-1.65,10.664-3.069,24.16,4.711,32.944,8.217,9.314,21.321,6.053,31.119,1.535,13.143-6.069,24.812-15.774,35.553-25.318a255.783,255.783,0,0,0,29.07-29.807c11.639-14.416,18.743-34.448,8.324-51.588-4.427-7.289-12.145-13.81-21.175-13.158-9.345.675-17.24,7.672-21.636,15.59-3.882,6.982-5.562,15.483-3.031,23.224,2.179,6.629,6.59,12.23,11.508,17.063,6.514,6.406,13.994,11.869,21.352,17.262,8.478,6.215,17.04,12.276,25.963,17.869,3.069,1.91,6.138,3.775,9.207,5.716,1.2.767,2.386,1.534,3.545,2.3.575.407,1.151.767,1.711,1.235-1.266-.967.767.667.974.852a24.154,24.154,0,0,1,2.424,2.509c-1.243-1.534.376.767.652,1.2s.706,1.979.13.207c.176.545.353,1.074.491,1.627a13.356,13.356,0,0,1,.445,4.427c0,5.562-1.995,12.559-7.772,15.153a13.328,13.328,0,0,1-9.153.7c-3.007-1.013-3.79-2.555-4.473-4.995-2.977-10.741,2.064-24.666,5.209-35.691,2.954-10.342,6.138-20.608,9.468-30.85,8.378-26.009,17.316-51.841,26.4-77.612,13.457-38.169,27.39-76.162,41.369-114.14a13.655,13.655,0,0,0,.89-3.706c.882-7.6-10.58-9.92-13.971-3.79-2.839,5.133-4.435,11.3-6.437,16.795q-4.189,11.508-7.91,23.116c-4.343,13.618-8.163,27.4-11.332,41.338a383.134,383.134,0,0,0-9.5,67.516,285.425,285.425,0,0,0,1.78,46.647c1.189,9.974,2.539,20.024,5.11,29.753,2.2,8.332,5.854,20.262,15.176,23.1,13.741,4.181,22.173-14.646,27.4-23.937a248.411,248.411,0,0,0,19.71-43.931L497.6,394.368c-1.442,12-.522,24.152,1.2,36.06a137.853,137.853,0,0,0,10.135,36.19c2.747,6.2,12.045,3.89,13.7-1.788,2.678-9.115,5.585-18.176,8.984-27.052a106.435,106.435,0,0,1,9-19.119c.675-1.1,1.458-2.117,2.133-3.2.476-.767-1.082,1.174.276-.3.391-.422.767-.844,1.174-1.251.238-.253,1.734-1.419.522-.537-1.366,1,.2-.184.376-.176a2.5,2.5,0,0,0,.621-.315s-1.972.767-1.059.483c1.473-.453-2.048,0-.552.069,1.074,0-2.3-.468-.821-.069-.767-.215-1.757-.921-.66-.2.668.445-1.581-1.373-.422-.253s-.767-1.5.084.084c.245.468.545.928.813,1.389.184.315.315.668.491,1,.445.859-.545-1.419-.184-.46.606,1.611,1.151,3.238,1.6,4.91,3.452,12.667,3.99,25.886,4.6,39.067.376,8.194,12.567,10.5,14.723,1.995a237.563,237.563,0,0,1,9.422-30.044,86.893,86.893,0,0,1,4.411-9.368c.7-1.273,1.435-2.524,2.225-3.744.414-.645.852-1.266,1.289-1.887.767-1.059-.644.614.483-.591.767-.821,1.588-1.588,2.363-2.4s-1.143.6-.084.084a8.3,8.3,0,0,0,1.243-.714c.161-.123-1.65.5-.215.176,1.22-.276-1.841.115-.621.069s0-.054-.637-.153c1.074.161,1.074.338-.146-.184a8.634,8.634,0,0,1,.967.568c-.859-.506-.959-.967-.253-.13.338.4.721.767,1.074,1.174.529.6-.43-.545-.422-.537.192.292.407.575.591.875.6,1.028,1.182,2.048,1.7,3.115.192.4.368.767.545,1.2-.061-.138-.414-1.005-.092-.176s.622,1.642.9,2.478c3.406,10.028,4.8,20.715,5.839,31.226.844,8.593,11.562,9.974,14.731,1.995,4.051-10.2,8.209-20.393,13.2-30.175a91.816,91.816,0,0,1,4.741-8.317c.506-.767,2.3-2.946.7-1.135.522-.583,1.1-1.182,1.6-1.788,1.059-1.32-1.642.844,0,0a6.826,6.826,0,0,1-2.463.675c-2.432-.054-4.864-1.626-5.271-3.544.315,1.481.767,2.938,1.112,4.419,2.386,11.293,5.616,22.648,10.68,33.067,5.654,11.639,16.6,16.511,29.247,14.286a72.54,72.54,0,0,0,22.541-8.3c9.053-5.194,16.442-13.043,19.679-23.116s2.777-23.784-3.361-32.745c-7.235-10.557-19.51-9.4-28.717-2.064a30.543,30.543,0,0,0-11.408,29.147c2.831,18.713,20,38.361,38.683,42.573,17.754,3.967,31.08-8.67,39.589-22.787,8.117-13.472,13.357-28.8,17.477-43.916a224.3,224.3,0,0,0,.514-114.232c-9.421-36.059-28.518-68.958-53.552-96.4a271.6,271.6,0,0,0-75.326-57.81c-30.689-15.874-64.523-23.907-98.864-26.508A297.61,297.61,0,0,0,462,107.948c-19.434,3.069-38.891,8.248-56.414,17.37-13.158,6.844-26.3,16.879-32.43,30.781-7.956,18.076-4.979,44.906,11.117,57.91,16.994,13.733,43.141,6.038,57.618-7.826,13.856-13.327,14.869-32.73,10.02-50.33-5.762-21-18.191-40.041-32.17-56.483-15.8-18.582-35.216-34.656-57.281-45.2C322.247,34.954,275.447,33.251,232.114,40.4A275.771,275.771,0,0,0,115.281,89.443c-33.942,24.735-62.406,56.844-82.047,93.985C12.289,223.031,1.072,268.06,3.742,312.9c2.3,38.86,14.125,76.132,32.131,110.48,17.424,33.228,42.266,60.687,71.306,84.164,33.19,26.853,68.774,50.545,101.7,77.773A867.452,867.452,0,0,1,324.549,701.081c11.554,13.971,22.48,28.111,33.106,42.8,2.57,3.56,8.393,5.547,11.777,1.534,30.275-36.06,63-68.713,103.414-92.481,17.055-10.028,34.863-18.7,52.578-27.5,22.142-10.979,44.123-22.249,65.621-34.433,27.735-15.728,54.151-34.187,79.369-53.652,3.2-2.463,4.918-6.445,2.693-10.258-1.841-3.146-7.035-5.179-10.258-2.685a773.31,773.31,0,0,1-68.689,47.307c-22.549,13.81-46.225,25.8-69.871,37.594-17.984,8.961-36.129,17.646-53.614,27.574a339.685,339.685,0,0,0-49.716,34.279c-22.84,19-43.057,40.947-62.145,63.68l11.777,1.534a885.721,885.721,0,0,0-81.817-97.644c-35.423-36.512-74.152-69.257-114.907-99.64-28.848-21.536-58.6-41.476-84.034-67.14C67.3,449.224,49.844,421.313,37.661,392.258c-16.058-38.2-23.584-82.5-17.009-124.375A251.289,251.289,0,0,1,64.683,161.07,263.426,263.426,0,0,1,265.826,51.81c42.343-1.918,85.292,6.721,118.8,34.065a178.632,178.632,0,0,1,41.476,47.99,109.467,109.467,0,0,1,11.117,25.119,67.166,67.166,0,0,1,2.233,10.864c.153,1.949.269,3.9.238,5.862,0,.882-.061,1.757-.123,2.639a10.342,10.342,0,0,1-.1,1.112c-.138,1.4.069-.269-.077.545a37.552,37.552,0,0,1-1.151,4.857c-.246.767-.514,1.534-.821,2.3.514-1.258-.514.99-.713,1.35a29.155,29.155,0,0,1-8.294,9.521c-6.675,5.071-15.26,8.194-23.3,8.1a18.123,18.123,0,0,1-9.644-2.486c-3.069-1.872-5.432-5.018-7.289-8.547a41.031,41.031,0,0,1-3.683-25.449,39.579,39.579,0,0,1,1.581-5.862c.207-.56.882-2.064.268-.729.376-.829.767-1.65,1.212-2.463a41.6,41.6,0,0,1,2.256-3.713c.422-.614.852-1.212,1.3-1.8-.905,1.189.568-.66.867-1.005a62.569,62.569,0,0,1,7.365-7.1c.268-.23.552-.453.829-.675.959-.767-.767.583.207-.153.69-.514,1.389-1.02,2.094-1.534,1.534-1.089,3.161-2.125,4.788-3.069,14.922-9.046,31.748-14.048,49.171-17.485,41.614-8.209,86.006-6,126.776,5.5,5.255,1.488,10.473,3.015,15.605,4.895,2.677.982,5.332,2.033,7.964,3.13-1.588-.66.376.161.767.322l1.995.875q2.3,1.036,4.6,2.118a254.713,254.713,0,0,1,35.576,20.569c24.9,17.132,48.466,40.134,65.559,65.69,19.81,29.692,32.047,63.68,34.464,99.378A213.755,213.755,0,0,1,734.768,421.5c-.928,2.3-2.823,6.406-4.434,9.506a88.439,88.439,0,0,1-5.992,9.974,42.36,42.36,0,0,1-6.038,6.905c-.568.529-1.159,1.043-1.765,1.534,1.189-.944-.836.552-1.1.721-.621.4-1.258.767-1.9,1.112l-.836.422c-1.266.652.652-.207-.184.077-.675.23-1.343.46-2.033.629-.391.1-2.3.414-1.4.315s-1.366,0-1.765,0a9.982,9.982,0,0,1-1.534-.084c.829.077,0,0-.361-.061a26.126,26.126,0,0,1-10.741-4.711,46.519,46.519,0,0,1-15.989-19.3,24.644,24.644,0,0,1-2.232-10.311,9.109,9.109,0,0,1,.092-1.58c0,.353-.261,1.182.069-.315a14.292,14.292,0,0,1,4.3-7.849,16.587,16.587,0,0,1,4.711-3.568,5.523,5.523,0,0,1,1.887-.66c1.32-.284-.9,0,.376-.054.468,0,.514,0,.13-.069s-.338-.069.46.123c0,0-1.074-.491-.192-.054,1.036.514-.721-.644.207.108s.5.345,1.036,1.2a15.7,15.7,0,0,1,2.041,5.371c1.956,8.332,0,17.493-5.823,23.546a33.943,33.943,0,0,1-9.322,6.721c-.767.407-1.534.767-2.3,1.151-.414.192-2.371,1.013-1,.453q-1.91.767-3.836,1.435c-4.082,1.381-8.485,3.069-12.851,2.977a9.552,9.552,0,0,1-5.647-1.818,11.472,11.472,0,0,1-1.1-1.128,7.9,7.9,0,0,1-1.266-1.8c-2.747-4.519-4.35-9.751-6.038-14.731a136.367,136.367,0,0,1-4.266-15.774c-1.266-6.03-3.069-13.687-10.787-13.68-4.112,0-7.381,2.708-9.813,5.754a80.6,80.6,0,0,0-8.915,15.022c-4.926,10.1-9.207,20.523-13.319,30.957l14.669,1.987c-1.128-11.416-2.486-23.1-6-34.072-2.118-6.629-5.171-14.186-11.309-18.1-13.726-8.762-24.881,8.439-29.791,18.912-5.731,12.207-9.636,25.2-12.943,38.238l14.731,1.987c-.637-13.81-1.4-27.981-4.711-41.43-1.673-6.79-4.45-15.214-11.508-18.1-15.26-6.222-24.6,18.222-28.809,28.349a319.087,319.087,0,0,0-11.409,33.129l13.7-1.788c-4.542-10.2-7.089-21.59-8.624-32.622a124.4,124.4,0,0,1-.668-32.078c.438-3.652-3.192-6.966-6.506-7.365a7.557,7.557,0,0,0-8.225,5.37A208.961,208.961,0,0,1,483.164,426.5c-3.406,6.284-6.836,12.644-10.825,18.582a30.919,30.919,0,0,1-3.391,4.243c-.146.161-1.281,1.089-.522.522s-.322.292-.5.268c-.913-.092,1.243-.169.307-.146-.767,0,1.534.038,1.834.061-1.895-.153.867.238-.253-.1,1.3.391.5.4-.361-.468s0,0,.13.2c-.23-.322-.468-.652-.668-1-.552-.951-1.074-1.91-1.534-2.908-.084-.176-.56-1.281-.107-.184-.192-.468-.368-.936-.545-1.412-.368-.982-.706-1.987-1.02-2.992-.683-2.148-1.266-4.327-1.788-6.521-1.159-4.826-2.041-9.728-2.793-14.631-.583-3.836-.867-6.138-1.373-10.5-4-34.609-1.013-69.173,6.215-102.915,3.069-14.293,6.836-28.426,11.163-42.389q3.66-11.823,7.841-23.485,2.141-6.023,4.419-11.992c.391-1.043,3.069-5.961,2.632-6.828-.138-.269,3.7-6.3-.7,1.657l-13.971-3.782c.445-3.836-.092-1.013-.537.207l-2.133,5.639q-3.729,10.081-7.434,20.17Q455.238,278.5,443.468,311.3c-9.092,25.572-18.091,51.228-26.715,76.976-6.905,20.715-13.894,41.476-19.449,62.605-3.575,13.6-8.386,32.991,2.516,44.606,6.207,6.6,16.373,7.994,24.812,5.678,8.762-2.417,15.068-8.884,18.352-17.2,4.918-12.483,2.555-26.8-8.117-35.246-5.447-4.327-11.508-7.757-17.416-11.447-8.6-5.37-16.879-11.293-25.05-17.293-6.7-4.91-13.442-9.92-19.265-15.874a30.55,30.55,0,0,1-5.117-6.307c-.307-.506-.568-1.036-.867-1.534-.184-.307-.767-1.7-.253-.384a18.142,18.142,0,0,1-.652-1.88c-.1-.338-.622-3.031-.384-1.174-.767-6.2,2.662-12.912,7.726-16.442,2.486-1.734,4.135-2.041,6.138-1.166,1.872.821,4.3,3.759,5.67,6.2,7.749,13.756-2.777,28.633-11.915,38.829A287.424,287.424,0,0,1,343.238,449.4,153.383,153.383,0,0,1,326.7,461.538c-5.309,3.33-9.636,5.7-14.631,7.051a29.446,29.446,0,0,1-2.938.637c2.048-.338-1.212,0-1.818,0-2.156,0,1.043.2-.944-.176-.583-.107-1.749-.844,0,.107-.56-.3-1.082-.606-1.611-.951,2.117,1.381-1.113-1.979.2.13-.414-.675-.767-1.343-1.166-2.041,1.013,1.949-.238-.913-.407-1.588-.115-.437-.176-.9-.291-1.335-.5-1.926.038,1.02-.107-.568-1.036-11.508,1.588-21.383,4.918-32.991a318.134,318.134,0,0,1,10.849-31.18c.629-1.573,1.281-3.138,1.933-4.711.767-1.818-.714,1.65.153-.361.177-.414.353-.836.537-1.251,1.488-3.437,1.3-7.266-1.933-9.675-2.831-2.118-7.319-2.248-9.843.583-6.03,6.767-13.311,12.628-21.874,15.858a68.685,68.685,0,0,1-10.841,2.977,40.844,40.844,0,0,1-10.933.982c-2.915-.107-6.468-.767-8.01-2.532a7.726,7.726,0,0,1-1.734-4.112c0-.177-.038-1.849-.054-1.734.046-.345.629-2.394.169-1.373.161-.361,1.151-.767.184-.253.069,0,1.074-.445.43-.238.307-.092.046-.061.921-.092a12.921,12.921,0,0,1,5.869,1.235c2.248,1.005,3.7,2.923,5.232,4.22,1.128.951-.852-1.949-.192-.445s-.368,1.642.138.192a12.277,12.277,0,0,0,.038,2.593c0,.537-.084,1.074-.13,1.611,0,.422-.253,1.373.061-.43-.069.384-.115.767-.192,1.151-2.071,9.913-6.138,19.181-10.311,28.326s-8.11,18.82-14.01,27.014c-.514.714.046,0,.13-.146-.269.338-.545.675-.829.99-.468.522-1,.99-1.465,1.534-1.174,1.32.591-.23-.384.368a9.978,9.978,0,0,0-.859.529c-1.066.767,1.02-.269.245-.046-.529.153-1.082.276-1.6.437,1.665-.514.33-.046,0-.077a8.785,8.785,0,0,1-3.836-1.949c-3.322-2.693-6.445-7.542-8.823-11.585a120.821,120.821,0,0,1-7.833-15.306,92.373,92.373,0,0,1-6.675-34.18,7.488,7.488,0,0,0-6.5-7.365c-3.974-.468-6.782,1.811-8.225,5.371-13.963,34.387-29.4,68.237-47.345,100.736q-9.529,17.255-20.109,33.888c-7.388,11.554-15.107,22.625-20.078,35.515-6.644,17.209-6.644,35.607.683,52.555,6.529,14.945,19.848,29.231,37.663,25.855,15.974-3.023,27.9-18.766,34.893-32.346,9.007-17.477,10.434-36.113,6.9-55.24-7.066-38.208-19.349-75.656-35.008-111.171a509.622,509.622,0,0,0-28.311-54.949c-9.629-16.181-20.945-31.3-30.482-47.514a75.188,75.188,0,0,1-10.741-38.929c-.092-14.362,2.3-29.822,9.076-42.481,5.892-11.033,13.887-17.7,26.323-13.242,14.853,5.317,27.344,21.237,32.561,35.676,6.775,18.766,2.816,37.97-3.836,56.145a487.8,487.8,0,0,1-24.29,54.78C108.1,430.3,87.477,462.95,64.982,494.153Q57.67,504.3,50.113,514.247c-2.455,3.23-.506,8.393,2.685,10.266,3.836,2.248,7.8.545,10.265-2.693Z" transform="translate(-3.353 -36.518)" fill="url(#radial-gradient)"/>
      <path id="Path_9" data-name="Path 9" d="M486.469,407.38q1.749-1.42,3.529-2.793l-1.534,1.174a193.858,193.858,0,0,1,33.083-20.516q4.979-2.44,10.1-4.6l-1.8.767a207.07,207.07,0,0,1,40.855-12.437q5.977-1.158,12.007-1.972l-1.995.269a206.359,206.359,0,0,1,42.535-1.3q5.984.445,11.93,1.243l-1.995-.269a193.37,193.37,0,0,1,37.3,8.861,7.5,7.5,0,1,0,3.99-14.454,207.539,207.539,0,0,0-80-10.488,219.046,219.046,0,0,0-40.909,6.636,214.131,214.131,0,0,0-38.767,14.385A193.782,193.782,0,0,0,481.053,392.7c-1.741,1.335-3.468,2.678-5.171,4.059a7.511,7.511,0,0,0-2.2,5.3,7.627,7.627,0,0,0,2.2,5.3,7.518,7.518,0,0,0,5.3,2.194l1.987-.261a7.556,7.556,0,0,0,3.314-1.933Z" transform="translate(-112.834 -109.588)" fill="url(#radial-gradient-2)"/>
      <path id="Path_10" data-name="Path 10" d="M261.724,420.461c-1.32-1.3-2.639-2.6-3.89-3.974-.606-.66-1.182-1.35-1.757-2.041-.391-.46.107-.207.192.269,0-.107-.338-.445-.376-.5a13.1,13.1,0,0,1-.767-1.159,24.341,24.341,0,0,1-1.335-2.3c-.192-.368-.345-.767-.537-1.128.683,1.327,0-.154-.154-.568a17.284,17.284,0,0,1-.468-1.956c-.154-.805.077.575.077.568a1.779,1.779,0,0,1-.046-.506,11.747,11.747,0,0,1,0-1.274c.046-.422,0-.683.046-1.02,0-.169.046-.337.054-.506-.046,1.389-.146.951-.069.575a15.275,15.275,0,0,1,.575-2.187c.054-.161.384-.951,0-.092s-.1.222,0,.038.3-.575.468-.859c.269-.43,1.066-1.151,0-.077.253-.253.468-.552.721-.767s1.074-.905.314-.315.292-.161.506-.284l.437-.23c.407-.222.506,0-.522.215.376-.069.767-.23,1.151-.33s.683.1-.629.077a1.99,1.99,0,0,0,.476-.038h.944c.813,0-.668-.077-.621-.1a1.773,1.773,0,0,1,.468.084,9.931,9.931,0,0,1,1.159.315c.146.054.3.123.453.169-1.281-.345-.767-.338-.315-.108.322.169.629.345.936.545.13.092.261.192.4.276.422.269-1.013-.89-.261-.177.261.246.522.491.767.767.1.107.2.253.307.36-1-.951-.468-.637-.215-.245.115.184.621.821.575,1.036,0,.046-.46-1.3-.238-.537.069.23.153.453.207.683s.069.307.108.46c.2.852-.13-1.3-.061-.368a5.01,5.01,0,0,0,9.821,1.327c.353-1.2.706-2.417,1.128-3.6l.322-.89.115-.291c.207-.491.154-.384-.138.33.146-.107.307-.667.391-.844a12.168,12.168,0,0,1,.591-1.089c.207-.322.315-.537.491-.767.084-.123.714-.859.154-.245l.2-.215c.184-.207.376-.391.576-.583s.391-.345.583-.514c.721-.645-1.013.675-.215.176.46-.291.959-.529,1.419-.813-1.151.714-.859.338-.376.177a5.582,5.582,0,0,1,.606-.192c.207-.053.407-.092.614-.13.852-.184-1.389.092-.529.077h.982c.844,0-1.373-.3-.568-.084.245.069.491.107.767.176s.353.154.529.192c-1.335-.291-.975-.476-.514-.184.154.1.322.192.483.284.545.322.2.545-.407-.322a7.333,7.333,0,0,0,.806.813c-.951-.928-.637-.89-.422-.545.153.222.3.445.43.675s.176.376.276.56c-.721-1.3-.345-.852-.2-.407s.2.875.322,1.312c-.391-1.389-.1-.905-.069-.384v1.534c-.092,1.381.261-.959,0,.077-.138.537-.253,1.074-.43,1.611-.038.13-.215.883-.337.936l.245-.583c-.092.207-.184.407-.284.606a32.636,32.636,0,0,1-2.194,3.79c-3.291,5.048-6.705,10.02-10.058,15.022l-11.677,17.416a5.031,5.031,0,0,0,1.788,6.844,5.125,5.125,0,0,0,6.844-1.8l11.263-17.025c3.706-5.532,7.611-10.979,11.109-16.641,3.322-5.37,5.263-12.329,1.834-18.16a11.861,11.861,0,0,0-13.81-5.217,16.324,16.324,0,0,0-8.324,6.521c-1.972,2.885-3.023,6.368-4,9.69l9.82,1.327a13.956,13.956,0,0,0-7.158-11.255,13.71,13.71,0,0,0-13.411-.23,15.283,15.283,0,0,0-7.135,10.3,20.9,20.9,0,0,0,1.949,13.488c2.3,4.6,6.046,8.44,9.675,12a5,5,0,0,0,7.074-7.074Z" transform="translate(-59.065 -117.659)" fill="url(#radial-gradient-3)"/>
      <path id="Path_11" data-name="Path 11" d="M668.071,440.127c-.514-.529-1.013-1.074-1.488-1.634-.268-.307-.522-.621-.767-.936-.138-.161-.269-.322-.4-.491-.514-.637.859,1.136.123.153-1.128-1.488-2.187-3.069-3.161-4.642a54.6,54.6,0,0,1-2.854-5.278c-.215-.453-.422-.913-.629-1.373-.391-.89.476,1.174.123.268-.062-.153-.131-.307-.184-.46a29.921,29.921,0,0,1-1.051-3.023,27.832,27.832,0,0,1-.675-2.762c-.077-.376-.123-.767-.192-1.136.345,1.91,0,.054,0-.453a20.542,20.542,0,0,1,0-2.57c.069-.89-.223,1.373-.069.5l.069-.4a10.718,10.718,0,0,1,.345-1.381c.061-.192.13-.376.2-.568.276-.767-.576,1.22-.2.452.184-.353.36-.714.568-1.051.107-.176.222-.338.337-.506.468-.713-.852,1.005-.284.36.276-.314.66-.606.905-.936-.606.821-.683.491-.138.161a5.026,5.026,0,0,0,.7-.376l-.706.284.5-.176a6.682,6.682,0,0,1,.767-.215c.552-.13.982.077-.276,0,.253,0,.537-.046.767-.054s.537,0,.767,0c.974,0-1.143-.253-.268-.038.261.061.522.115.767.184a4.869,4.869,0,0,1,.506.169c.491.184.338.115-.453-.2a5.068,5.068,0,0,0,.7.376c.153.092.3.192.445.292-.652-.522-.767-.621-.384-.292.192.184.384.361.56.552.883.951-.384-.706,0,0,.13.223.276.437.391.667s.161.315.23.468l-.307-.706c.353.391.323,1.274.468,1.765-.391-1.3-.1-.813-.076-.292v1.043c0,.99.284-1.251,0-.3-.092.337-.184.675-.269,1-.253.936.583-1.082.107-.23-.169.307-.33.606-.522.9a5.041,5.041,0,0,0,1.788,6.844,5.133,5.133,0,0,0,6.844-1.8c.53-.767,1.074-1.535,1.619-2.263s-.568.7-.123.146l.391-.483c.353-.437.767-.867,1.112-1.281a8.521,8.521,0,0,1,.859-.875,7.552,7.552,0,0,0,1.143-1c-.054.092-.974.691-.284.245.169-.107.338-.23.506-.33s.437-.268.66-.384,1.22-.568.307-.184.3-.084.537-.146.644-.115.959-.207c-1.312.376-.959.092-.483.084h1.1c.514,0,.99.276-.36-.077.345.092.706.131,1.051.23.1,0,.514.092.56.184s-1.243-.614-.545-.23l.767.453c.768.43-.767-.767-.376-.3a4.186,4.186,0,0,0,.491.483c.453.353-.714-1.12-.292-.384.077.13.161.284.246.4.384.568-.192-.376-.176-.483a2.794,2.794,0,0,0,.215.7c.2.767-.246.192,0-.33a2.792,2.792,0,0,0,0,.568,3.444,3.444,0,0,0,0,.568c.123-.852.138-1.005,0-.468l-.069.284c-.061.238-.138.468-.215.706s-.215.828,0,.1-.054.061-.146.238-.2.368-.3.545c-.238.414-.5.813-.767,1.2a4.99,4.99,0,0,1-.468.652l.383-.506c-.13.169-.269.337-.407.5-2.823,3.391-6.076,6.483-9.206,9.629q-5.448,5.547-11.041,10.941a5,5,0,0,0,7.066,7.066q5.662-5.455,11.178-11.071c3.713-3.775,7.672-7.48,10.818-11.769a16.244,16.244,0,0,0,3.069-7.757,10.781,10.781,0,0,0-2.624-8.14c-3.069-3.675-8.662-4.649-13.135-3.437-5.746,1.535-9.475,6.514-12.705,11.148l8.631,5.048a13.741,13.741,0,0,0,1.726-9.974,13.042,13.042,0,0,0-5.539-8.309,13.755,13.755,0,0,0-10.074-1.887,12.767,12.767,0,0,0-8.132,5.286c-3.069,4.089-3.245,9.4-2.5,14.24a41.742,41.742,0,0,0,5.071,13.564,55.777,55.777,0,0,0,8.631,11.93,5,5,0,1,0,7.074-7.066Z" transform="translate(-153.121 -121.574)" fill="url(#radial-gradient-4)"/>
    </g>
    <rect id="Rectangle_36" data-name="Rectangle 36" width="796" height="792" transform="translate(-0.399 0.216)" fill="#fff" opacity="0"/>
  </g>
</svg>
