<svg id="Calque_2" data-name="Calque 2" xmlns="http://www.w3.org/2000/svg" viewBox="0 0 1125 2448.5"><defs><style>.cls-1{fill:#ffeaa7;}.cls-2{fill:#fdcb6e;}.cls-3{fill:#fab1a0;}.cls-4{fill:#ff7675;}</style></defs><title>Sans titre - 2</title><path class="cls-1" d="M1044.16,2417.73C1091.83,2433,1125,2449,1125,2449v-18s-21.41-12.9-53.16-28.83A314.26,314.26,0,0,1,1044.16,2417.73Z" transform="translate(0 -0.5)"/><path class="cls-1" d="M.1,2430.86,0,2449s28.5-15.16,71.93-29.9A200.76,200.76,0,0,1,37,2393.76C13.51,2412.33,1.25,2429.23.1,2430.86Z" transform="translate(0 -0.5)"/><path class="cls-1" d="M559,2394c-35.7,0-79.88-7.2-127.71-16.2-25.58,10.43-51.08,22.28-77.4,33.28C419.32,2427.73,484.16,2449,559,2449c74.13,0,139.18-21.22,203.69-38.08-26.11-11.4-51.8-23.69-78-34.36C639.84,2386.12,596.33,2394,559,2394Z" transform="translate(0 -0.5)"/><path class="cls-2" d="M684.68,2376.56C645.06,2360.43,604.24,2348,559,2348s-86.63,13.07-127.71,29.8c47.83,9,92,16.2,127.71,16.2C596.33,2394,639.84,2386.12,684.68,2376.56Z" transform="translate(0 -0.5)"/><path class="cls-2" d="M1071.84,2402.17C1103.59,2418.1,1125,2431,1125,2431v-71.5S1106.22,2380.51,1071.84,2402.17Z" transform="translate(0 -0.5)"/><path class="cls-2" d="M37,2393.76C11,2370.14.5,2347.89.5,2347.89V2272.5L.23,2359,0,2431l.1-.14C1.25,2429.23,13.51,2412.33,37,2393.76Z" transform="translate(0 -0.5)"/><path class="cls-3" d="M1124.5,2334.31h.38s-113,68.69-236,68.69-210-68.69-322-68.69H559c-112,0-199,68.69-322,68.69S1,2334.31,1,2334.31H.5v13.58S11,2370.14,37,2393.76a200.76,200.76,0,0,0,34.92,25.34C101.2,2435.88,140.77,2449,193,2449c60.35,0,112-17.5,160.89-37.92,26.32-11,51.82-22.85,77.4-33.28,41.08-16.73,82.39-29.8,127.71-29.8s86.06,12.43,125.68,28.56c26.21,10.67,51.9,23,78,34.36C809.63,2431.41,857.92,2449,913,2449a292.91,292.91,0,0,0,131.16-31.27,314.26,314.26,0,0,0,27.68-15.56c34.38-21.66,53.16-42.67,53.16-42.67v-197h-.5Z" transform="translate(0 -0.5)"/><path class="cls-4" d="M.5,2334.31H1S114,2403,237,2403s210-68.69,322-68.69h7.88c112,0,199,68.69,322,68.69s236-68.69,236-68.69h-.38V.5H.5V2334.31Z" transform="translate(0 -0.5)"/></svg>