<svg id="Calque_2" data-name="Calque 2" xmlns="http://www.w3.org/2000/svg" viewBox="0 0 1125 4000"><defs><style>.cls-1{fill:#ffeaa7;}.cls-2{fill:#fdcb6e;}.cls-3{fill:#fab1a0;}.cls-4{fill:#ff7675;}</style></defs><title>Plan de travail 1</title><path class="cls-1" d="M0,2169v190H.5L0,2449s108-57.45,224-57.45S436,2449,559,2449s221-58.43,333-58.43S1125,2449,1125,2449V2169Z"/><path class="cls-2" d="M0,2431s61-88,185-88,279,51,374,51,230-51,325-51,241,88,241,88V2114H1Z"/><path class="cls-3" d="M.5,2347.89S48,2449,193,2449s240-101,366-101c129,0,222,101,354,101s212-89.5,212-89.5v-197H.5Z"/><path class="cls-4" d="M1124.5,2334.31V.5H.5V2334.31H1S114,2403,237,2403s210-68.69,322-68.69h7.88c112,0,199,68.69,322,68.69s236-68.69,236-68.69Z"/></svg>