<svg xmlns="http://www.w3.org/2000/svg" width="19.097" height="14.024" viewBox="0 0 19.097 14.024">
  <g id="email" transform="translate(11.198 8.224)">
    <g id="email-2" data-name="email" transform="translate(-11.198 -8.224)">
      <g id="Groupe_961" data-name="Groupe 961">
        <g id="Groupe_960" data-name="Groupe 960">
          <path id="Tracé_1868" data-name="Tracé 1868" d="M16.859,68H2.238A2.24,2.24,0,0,0,0,70.238v9.548a2.24,2.24,0,0,0,2.238,2.238H16.859A2.24,2.24,0,0,0,19.1,79.786V70.238A2.24,2.24,0,0,0,16.859,68ZM17.6,79.786a.747.747,0,0,1-.746.746H2.238a.747.747,0,0,1-.746-.746V70.238a.747.747,0,0,1,.746-.746H16.859a.747.747,0,0,1,.746.746Z" transform="translate(0 -68)" fill="#fff"/>
        </g>
      </g>
      <g id="Groupe_963" data-name="Groupe 963" transform="translate(0.728 0.93)">
        <g id="Groupe_962" data-name="Groupe 962">
          <path id="Tracé_1869" data-name="Tracé 1869" d="M36.272,92.937l-7.93,5.9-7.93-5.9-.89,1.2,8.82,6.561,8.82-6.561Z" transform="translate(-19.522 -92.937)" fill="#fff"/>
        </g>
      </g>
    </g>
  </g>
</svg>
