<svg xmlns="http://www.w3.org/2000/svg" width="18" height="18" viewBox="0 0 18 18">
  <g id="location" transform="translate(0 0)">
    <rect id="Rectangle_305" data-name="Rectangle 305" width="18" height="18" transform="translate(0 0)" fill="none"/>
    <path id="Tracé_114" data-name="Tracé 114" d="M7.4,10.66a3.135,3.135,0,0,0,3.14-3.14A3.231,3.231,0,0,0,7.4,4.268a3.135,3.135,0,0,0-3.14,3.14A3.31,3.31,0,0,0,7.4,10.66ZM2.128,2.137A7.454,7.454,0,0,1,12.67,12.679L7.4,17.95,2.128,12.679A7.658,7.658,0,0,1,2.128,2.137Z" transform="translate(0.975 0.05)" fill="#e84393" fill-rule="evenodd"/>
  </g>
</svg>
