<svg id="testimony" xmlns="http://www.w3.org/2000/svg" width="18" height="18" viewBox="0 0 18 18">
  <path id="Tracé_19" data-name="Tracé 19" d="M6.637,9.535V16.8H0V11.011C0,7.946.337,5.676,1.125,4.2A9.34,9.34,0,0,1,5.737,0L7.313,2.5A5.924,5.924,0,0,0,4.5,4.881,8.639,8.639,0,0,0,3.487,9.535Zm10.8,0V16.8H10.8V11.011c0-3.178.338-5.335,1.125-6.811A9.34,9.34,0,0,1,16.538,0L18,2.5a5.924,5.924,0,0,0-2.812,2.384,11.407,11.407,0,0,0-1.013,4.654Z" transform="translate(0 1)" fill="#fdcb6e"/>
  <rect id="Rectangle_1451" data-name="Rectangle 1451" width="18" height="18" fill="none"/>
</svg>
