<svg id="Video" xmlns="http://www.w3.org/2000/svg" width="18" height="18" viewBox="0 0 18 18">
  <rect id="Rectangle_312" data-name="Rectangle 312" width="18" height="18" fill="none"/>
  <path id="Tracé_123" data-name="Tracé 123" d="M16.8.42v9.8a.3.3,0,0,1-.28.28h-.14c-.14,0-.14,0-.28-.14l-3.5-3.5V9.52c0,.28-.14.42-.28.7a1.5,1.5,0,0,1-.84.28H1.12a1.069,1.069,0,0,1-.7-.28C.14,9.94,0,9.8,0,9.52V1.12A1.069,1.069,0,0,1,.28.42,1,1,0,0,1,1.12,0h10.5a1.069,1.069,0,0,1,.7.28,1.99,1.99,0,0,1,.28.84V3.78L16.24.14c0-.14.14-.14.28-.14C16.66.14,16.8.14,16.8.42Z" transform="translate(0 3)" fill="#e17055"/>
</svg>
